<svg xmlns="http://www.w3.org/2000/svg" xmlns:xlink="http://www.w3.org/1999/xlink" width="500" zoomAndPan="magnify" viewBox="0 0 375 374.999991" height="500" preserveAspectRatio="xMidYMid meet" version="1.0"><defs><clipPath id="34a813cf14"><path d="M 0 12.421875 L 375 12.421875 L 375 362.671875 L 0 362.671875 Z M 0 12.421875 " clip-rule="nonzero"/></clipPath></defs><g clip-path="url(#34a813cf14)"><path fill="#246fb5" d="M 156.25 62.511719 L 18.75 62.511719 C 18.136719 62.515625 17.523438 62.542969 16.914062 62.605469 C 16.300781 62.667969 15.695312 62.757812 15.09375 62.878906 C 14.492188 62.996094 13.898438 63.148438 13.308594 63.324219 C 12.722656 63.503906 12.144531 63.710938 11.578125 63.945312 C 11.011719 64.183594 10.457031 64.445312 9.914062 64.734375 C 9.375 65.023438 8.847656 65.339844 8.339844 65.679688 C 7.828125 66.023438 7.335938 66.386719 6.859375 66.777344 C 6.386719 67.167969 5.933594 67.578125 5.496094 68.011719 C 5.0625 68.445312 4.652344 68.902344 4.261719 69.375 C 3.871094 69.851562 3.507812 70.34375 3.167969 70.855469 C 2.824219 71.363281 2.507812 71.890625 2.21875 72.429688 C 1.929688 72.972656 1.667969 73.527344 1.433594 74.09375 C 1.199219 74.660156 0.992188 75.238281 0.8125 75.828125 C 0.632812 76.414062 0.484375 77.007812 0.363281 77.609375 C 0.242188 78.214844 0.152344 78.820312 0.09375 79.429688 C 0.03125 80.042969 0 80.65625 0 81.269531 L 0 293.824219 C 0 294.4375 0.03125 295.050781 0.09375 295.664062 C 0.152344 296.273438 0.242188 296.878906 0.363281 297.484375 C 0.484375 298.085938 0.632812 298.679688 0.8125 299.265625 C 0.992188 299.855469 1.199219 300.433594 1.433594 301 C 1.667969 301.566406 1.929688 302.121094 2.21875 302.664062 C 2.507812 303.203125 2.824219 303.730469 3.167969 304.238281 C 3.507812 304.75 3.871094 305.242188 4.261719 305.71875 C 4.652344 306.191406 5.0625 306.648438 5.496094 307.082031 C 5.933594 307.515625 6.386719 307.925781 6.859375 308.316406 C 7.335938 308.707031 7.828125 309.070312 8.339844 309.414062 C 8.847656 309.753906 9.375 310.070312 9.914062 310.359375 C 10.457031 310.648438 11.011719 310.910156 11.578125 311.148438 C 12.144531 311.382812 12.722656 311.589844 13.308594 311.769531 C 13.898438 311.945312 14.492188 312.097656 15.09375 312.214844 C 15.695312 312.335938 16.300781 312.425781 16.914062 312.488281 C 17.523438 312.550781 18.136719 312.578125 18.75 312.582031 L 156.25 312.582031 C 156.863281 312.578125 157.476562 312.550781 158.085938 312.488281 C 158.699219 312.425781 159.304688 312.335938 159.90625 312.214844 C 160.507812 312.097656 161.101562 311.945312 161.691406 311.769531 C 162.277344 311.589844 162.855469 311.382812 163.421875 311.148438 C 163.988281 310.910156 164.542969 310.648438 165.085938 310.359375 C 165.625 310.070312 166.152344 309.753906 166.660156 309.414062 C 167.171875 309.070312 167.664062 308.707031 168.140625 308.316406 C 168.613281 307.925781 169.066406 307.515625 169.503906 307.082031 C 169.9375 306.648438 170.347656 306.191406 170.738281 305.71875 C 171.128906 305.242188 171.492188 304.75 171.832031 304.238281 C 172.175781 303.730469 172.492188 303.203125 172.78125 302.664062 C 173.070312 302.121094 173.332031 301.566406 173.566406 301 C 173.800781 300.433594 174.007812 299.855469 174.1875 299.265625 C 174.367188 298.679688 174.515625 298.085938 174.636719 297.484375 C 174.757812 296.878906 174.847656 296.273438 174.90625 295.664062 C 174.96875 295.050781 175 294.4375 175 293.824219 L 175 81.269531 C 175 80.65625 174.96875 80.042969 174.90625 79.429688 C 174.847656 78.820312 174.757812 78.214844 174.636719 77.609375 C 174.515625 77.007812 174.367188 76.414062 174.1875 75.828125 C 174.007812 75.238281 173.800781 74.660156 173.566406 74.09375 C 173.332031 73.527344 173.070312 72.972656 172.78125 72.429688 C 172.492188 71.890625 172.175781 71.363281 171.832031 70.855469 C 171.492188 70.34375 171.128906 69.851562 170.738281 69.375 C 170.347656 68.902344 169.9375 68.445312 169.503906 68.011719 C 169.066406 67.578125 168.613281 67.167969 168.140625 66.777344 C 167.664062 66.386719 167.171875 66.023438 166.660156 65.679688 C 166.152344 65.339844 165.625 65.023438 165.085938 64.734375 C 164.542969 64.445312 163.988281 64.183594 163.421875 63.945312 C 162.855469 63.710938 162.277344 63.503906 161.691406 63.324219 C 161.101562 63.148438 160.507812 62.996094 159.90625 62.878906 C 159.304688 62.757812 158.699219 62.667969 158.085938 62.605469 C 157.476562 62.542969 156.863281 62.515625 156.25 62.511719 Z M 93.75 94.140625 C 95.320312 94.320312 96.878906 94.5625 98.429688 94.871094 C 99.976562 95.179688 101.511719 95.554688 103.027344 95.992188 C 104.546875 96.429688 106.042969 96.929688 107.519531 97.496094 C 108.992188 98.058594 110.441406 98.683594 111.867188 99.371094 C 113.289062 100.054688 114.679688 100.800781 116.039062 101.601562 C 117.402344 102.40625 118.726562 103.265625 120.011719 104.179688 C 121.300781 105.09375 122.546875 106.0625 123.753906 107.078125 C 124.960938 108.097656 126.125 109.167969 127.242188 110.285156 C 128.359375 111.402344 129.425781 112.566406 130.445312 113.773438 C 131.464844 114.980469 132.429688 116.226562 133.34375 117.515625 C 134.257812 118.804688 135.117188 120.128906 135.921875 121.488281 C 136.722656 122.847656 137.46875 124.242188 138.152344 125.664062 C 138.839844 127.089844 139.464844 128.539062 140.027344 130.015625 C 140.59375 131.488281 141.09375 132.988281 141.53125 134.503906 C 141.96875 136.023438 142.34375 137.554688 142.652344 139.105469 C 142.960938 140.65625 143.203125 142.214844 143.382812 143.785156 L 93.75 143.785156 Z M 81.25 94.140625 L 81.25 146.496094 L 36.398438 173.414062 C 35.9375 172.410156 35.503906 171.390625 35.101562 170.359375 C 34.699219 169.328125 34.324219 168.285156 33.984375 167.230469 C 33.644531 166.179688 33.332031 165.117188 33.054688 164.042969 C 32.777344 162.972656 32.527344 161.894531 32.316406 160.808594 C 32.101562 159.722656 31.917969 158.628906 31.769531 157.53125 C 31.617188 156.4375 31.5 155.335938 31.414062 154.230469 C 31.332031 153.128906 31.277344 152.023438 31.257812 150.914062 C 31.238281 149.808594 31.253906 148.699219 31.296875 147.59375 C 31.34375 146.488281 31.421875 145.382812 31.535156 144.28125 C 31.644531 143.179688 31.789062 142.082031 31.964844 140.992188 C 32.140625 139.898438 32.351562 138.808594 32.589844 137.730469 C 32.832031 136.648438 33.105469 135.574219 33.410156 134.511719 C 33.710938 133.445312 34.046875 132.390625 34.414062 131.347656 C 34.78125 130.300781 35.179688 129.269531 35.605469 128.246094 C 36.03125 127.226562 36.492188 126.21875 36.976562 125.222656 C 37.464844 124.230469 37.980469 123.25 38.527344 122.289062 C 39.070312 121.324219 39.644531 120.378906 40.246094 119.449219 C 40.847656 118.519531 41.476562 117.605469 42.128906 116.714844 C 42.785156 115.820312 43.46875 114.949219 44.171875 114.097656 C 44.878906 113.246094 45.613281 112.414062 46.367188 111.605469 C 47.125 110.796875 47.902344 110.011719 48.707031 109.246094 C 49.507812 108.484375 50.332031 107.746094 51.179688 107.03125 C 52.023438 106.320312 52.890625 105.628906 53.777344 104.96875 C 54.664062 104.304688 55.570312 103.667969 56.496094 103.058594 C 57.417969 102.449219 58.359375 101.871094 59.320312 101.316406 C 60.277344 100.761719 61.253906 100.238281 62.242188 99.742188 C 63.234375 99.246094 64.234375 98.78125 65.253906 98.34375 C 66.269531 97.910156 67.300781 97.503906 68.34375 97.128906 C 69.382812 96.753906 70.433594 96.410156 71.496094 96.097656 C 72.558594 95.78125 73.628906 95.5 74.707031 95.25 C 75.785156 95.003906 76.871094 94.785156 77.960938 94.597656 C 79.054688 94.414062 80.148438 94.261719 81.25 94.140625 Z M 37.5 287.574219 C 37.089844 287.574219 36.683594 287.535156 36.28125 287.453125 C 35.878906 287.375 35.488281 287.253906 35.109375 287.097656 C 34.730469 286.941406 34.367188 286.75 34.027344 286.519531 C 33.6875 286.292969 33.371094 286.03125 33.082031 285.742188 C 32.789062 285.453125 32.53125 285.136719 32.304688 284.796875 C 32.074219 284.453125 31.882812 284.09375 31.726562 283.714844 C 31.570312 283.335938 31.449219 282.945312 31.371094 282.542969 C 31.289062 282.140625 31.25 281.734375 31.25 281.320312 C 31.25 280.910156 31.289062 280.503906 31.371094 280.101562 C 31.449219 279.699219 31.570312 279.308594 31.726562 278.929688 C 31.882812 278.550781 32.074219 278.191406 32.304688 277.847656 C 32.53125 277.507812 32.789062 277.191406 33.082031 276.902344 C 33.371094 276.609375 33.6875 276.351562 34.027344 276.125 C 34.367188 275.894531 34.730469 275.703125 35.109375 275.546875 C 35.488281 275.390625 35.878906 275.269531 36.28125 275.191406 C 36.683594 275.109375 37.089844 275.070312 37.5 275.070312 C 37.910156 275.070312 38.316406 275.109375 38.71875 275.191406 C 39.121094 275.269531 39.511719 275.390625 39.890625 275.546875 C 40.269531 275.703125 40.632812 275.894531 40.972656 276.125 C 41.3125 276.351562 41.628906 276.609375 41.917969 276.902344 C 42.210938 277.191406 42.46875 277.507812 42.695312 277.847656 C 42.925781 278.191406 43.117188 278.550781 43.273438 278.929688 C 43.429688 279.308594 43.550781 279.699219 43.628906 280.101562 C 43.710938 280.503906 43.75 280.910156 43.75 281.320312 C 43.75 281.734375 43.710938 282.140625 43.628906 282.542969 C 43.550781 282.945312 43.429688 283.335938 43.273438 283.714844 C 43.117188 284.09375 42.925781 284.453125 42.695312 284.796875 C 42.46875 285.136719 42.210938 285.453125 41.917969 285.742188 C 41.628906 286.03125 41.3125 286.292969 40.972656 286.519531 C 40.632812 286.75 40.269531 286.941406 39.890625 287.097656 C 39.511719 287.253906 39.121094 287.375 38.71875 287.453125 C 38.316406 287.535156 37.910156 287.574219 37.5 287.574219 Z M 37.5 262.566406 C 37.089844 262.566406 36.683594 262.527344 36.28125 262.445312 C 35.878906 262.367188 35.488281 262.25 35.109375 262.089844 C 34.730469 261.933594 34.367188 261.742188 34.027344 261.511719 C 33.6875 261.285156 33.371094 261.027344 33.082031 260.734375 C 32.789062 260.445312 32.53125 260.128906 32.304688 259.789062 C 32.074219 259.445312 31.882812 259.085938 31.726562 258.707031 C 31.570312 258.328125 31.449219 257.9375 31.371094 257.535156 C 31.289062 257.132812 31.25 256.726562 31.25 256.316406 C 31.25 255.90625 31.289062 255.5 31.371094 255.09375 C 31.449219 254.691406 31.570312 254.300781 31.726562 253.921875 C 31.882812 253.542969 32.074219 253.183594 32.304688 252.84375 C 32.53125 252.5 32.789062 252.183594 33.082031 251.894531 C 33.371094 251.605469 33.6875 251.34375 34.027344 251.117188 C 34.367188 250.890625 34.730469 250.695312 35.109375 250.539062 C 35.488281 250.382812 35.878906 250.265625 36.28125 250.183594 C 36.683594 250.105469 37.089844 250.0625 37.5 250.0625 C 37.910156 250.0625 38.316406 250.105469 38.71875 250.183594 C 39.121094 250.265625 39.511719 250.382812 39.890625 250.539062 C 40.269531 250.695312 40.632812 250.890625 40.972656 251.117188 C 41.3125 251.34375 41.628906 251.605469 41.917969 251.894531 C 42.210938 252.183594 42.46875 252.5 42.695312 252.84375 C 42.925781 253.183594 43.117188 253.542969 43.273438 253.921875 C 43.429688 254.300781 43.550781 254.691406 43.628906 255.09375 C 43.710938 255.5 43.75 255.90625 43.75 256.316406 C 43.75 256.726562 43.710938 257.132812 43.628906 257.535156 C 43.550781 257.9375 43.429688 258.328125 43.273438 258.707031 C 43.117188 259.085938 42.925781 259.445312 42.695312 259.789062 C 42.46875 260.128906 42.210938 260.445312 41.917969 260.734375 C 41.628906 261.027344 41.3125 261.285156 40.972656 261.511719 C 40.632812 261.742188 40.269531 261.933594 39.890625 262.089844 C 39.511719 262.25 39.121094 262.367188 38.71875 262.445312 C 38.316406 262.527344 37.910156 262.566406 37.5 262.566406 Z M 37.5 237.558594 C 37.089844 237.558594 36.683594 237.519531 36.28125 237.441406 C 35.878906 237.359375 35.488281 237.242188 35.109375 237.085938 C 34.730469 236.925781 34.367188 236.734375 34.027344 236.507812 C 33.6875 236.277344 33.371094 236.019531 33.082031 235.730469 C 32.789062 235.4375 32.53125 235.125 32.304688 234.78125 C 32.074219 234.441406 31.882812 234.082031 31.726562 233.699219 C 31.570312 233.320312 31.449219 232.929688 31.371094 232.527344 C 31.289062 232.125 31.25 231.71875 31.25 231.308594 C 31.25 230.898438 31.289062 230.492188 31.371094 230.089844 C 31.449219 229.6875 31.570312 229.296875 31.726562 228.917969 C 31.882812 228.535156 32.074219 228.175781 32.304688 227.835938 C 32.53125 227.492188 32.789062 227.179688 33.082031 226.886719 C 33.371094 226.597656 33.6875 226.339844 34.027344 226.109375 C 34.367188 225.882812 34.730469 225.691406 35.109375 225.53125 C 35.488281 225.375 35.878906 225.257812 36.28125 225.175781 C 36.683594 225.097656 37.089844 225.058594 37.5 225.058594 C 37.910156 225.058594 38.316406 225.097656 38.71875 225.175781 C 39.121094 225.257812 39.511719 225.375 39.890625 225.53125 C 40.269531 225.691406 40.632812 225.882812 40.972656 226.109375 C 41.3125 226.339844 41.628906 226.597656 41.917969 226.886719 C 42.210938 227.179688 42.46875 227.492188 42.695312 227.835938 C 42.925781 228.175781 43.117188 228.535156 43.273438 228.917969 C 43.429688 229.296875 43.550781 229.6875 43.628906 230.089844 C 43.710938 230.492188 43.75 230.898438 43.75 231.308594 C 43.75 231.71875 43.710938 232.125 43.628906 232.527344 C 43.550781 232.929688 43.429688 233.320312 43.273438 233.699219 C 43.117188 234.082031 42.925781 234.441406 42.695312 234.78125 C 42.46875 235.125 42.210938 235.4375 41.917969 235.730469 C 41.628906 236.019531 41.3125 236.277344 40.972656 236.507812 C 40.632812 236.734375 40.269531 236.925781 39.890625 237.085938 C 39.511719 237.242188 39.121094 237.359375 38.71875 237.441406 C 38.316406 237.519531 37.910156 237.558594 37.5 237.558594 Z M 42.851562 184.125 L 89.230469 156.289062 L 143.382812 156.289062 C 143.226562 157.675781 143.023438 159.050781 142.769531 160.421875 C 142.511719 161.792969 142.207031 163.152344 141.851562 164.5 C 141.492188 165.847656 141.085938 167.183594 140.632812 168.5 C 140.175781 169.816406 139.671875 171.117188 139.117188 172.394531 C 138.566406 173.675781 137.964844 174.933594 137.320312 176.167969 C 136.675781 177.40625 135.984375 178.613281 135.246094 179.796875 C 134.511719 180.980469 133.730469 182.136719 132.910156 183.261719 C 132.085938 184.390625 131.222656 185.484375 130.320312 186.542969 C 129.417969 187.605469 128.472656 188.632812 127.496094 189.625 C 126.515625 190.613281 125.5 191.570312 124.449219 192.484375 C 123.398438 193.402344 122.3125 194.277344 121.195312 195.109375 C 120.082031 195.945312 118.933594 196.738281 117.757812 197.488281 C 116.585938 198.238281 115.382812 198.941406 114.15625 199.601562 C 112.925781 200.265625 111.675781 200.878906 110.402344 201.445312 C 109.128906 202.011719 107.835938 202.53125 106.523438 203 C 105.214844 203.472656 103.886719 203.894531 102.542969 204.265625 C 101.199219 204.636719 99.84375 204.960938 98.476562 205.230469 C 97.109375 205.5 95.734375 205.722656 94.347656 205.890625 C 92.964844 206.058594 91.578125 206.175781 90.183594 206.242188 C 88.792969 206.304688 87.398438 206.320312 86.007812 206.28125 C 84.613281 206.242188 83.222656 206.152344 81.835938 206.007812 C 80.449219 205.867188 79.070312 205.671875 77.699219 205.429688 C 76.324219 205.183594 74.964844 204.886719 73.613281 204.542969 C 72.265625 204.195312 70.929688 203.800781 69.609375 203.355469 C 68.285156 202.910156 66.984375 202.414062 65.699219 201.871094 C 64.417969 201.328125 63.15625 200.738281 61.914062 200.101562 C 60.675781 199.464844 59.460938 198.785156 58.269531 198.058594 C 57.082031 197.328125 55.921875 196.558594 54.789062 195.746094 C 53.65625 194.933594 52.554688 194.078125 51.488281 193.183594 C 50.417969 192.285156 49.386719 191.351562 48.386719 190.378906 C 47.386719 189.40625 46.425781 188.398438 45.503906 187.355469 C 44.578125 186.308594 43.695312 185.234375 42.851562 184.125 Z M 137.5 287.574219 L 56.25 287.574219 C 55.839844 287.574219 55.433594 287.535156 55.03125 287.453125 C 54.628906 287.375 54.238281 287.253906 53.859375 287.097656 C 53.480469 286.941406 53.117188 286.75 52.777344 286.519531 C 52.4375 286.292969 52.121094 286.03125 51.832031 285.742188 C 51.539062 285.453125 51.28125 285.136719 51.054688 284.796875 C 50.824219 284.453125 50.632812 284.09375 50.476562 283.714844 C 50.320312 283.335938 50.199219 282.945312 50.121094 282.542969 C 50.039062 282.140625 50 281.734375 50 281.320312 C 50 280.910156 50.039062 280.503906 50.121094 280.101562 C 50.199219 279.699219 50.320312 279.308594 50.476562 278.929688 C 50.632812 278.550781 50.824219 278.191406 51.054688 277.847656 C 51.28125 277.507812 51.539062 277.191406 51.832031 276.902344 C 52.121094 276.609375 52.4375 276.351562 52.777344 276.125 C 53.117188 275.894531 53.480469 275.703125 53.859375 275.546875 C 54.238281 275.390625 54.628906 275.269531 55.03125 275.191406 C 55.433594 275.109375 55.839844 275.070312 56.25 275.070312 L 137.5 275.070312 C 137.910156 275.070312 138.316406 275.109375 138.71875 275.191406 C 139.121094 275.269531 139.511719 275.390625 139.890625 275.546875 C 140.269531 275.703125 140.632812 275.894531 140.972656 276.125 C 141.3125 276.351562 141.628906 276.609375 141.917969 276.902344 C 142.210938 277.191406 142.46875 277.507812 142.695312 277.847656 C 142.925781 278.191406 143.117188 278.550781 143.273438 278.929688 C 143.429688 279.308594 143.550781 279.699219 143.628906 280.101562 C 143.710938 280.503906 143.75 280.910156 143.75 281.320312 C 143.75 281.734375 143.710938 282.140625 143.628906 282.542969 C 143.550781 282.945312 143.429688 283.335938 143.273438 283.714844 C 143.117188 284.09375 142.925781 284.453125 142.695312 284.796875 C 142.46875 285.136719 142.210938 285.453125 141.917969 285.742188 C 141.628906 286.03125 141.3125 286.292969 140.972656 286.519531 C 140.632812 286.75 140.269531 286.941406 139.890625 287.097656 C 139.511719 287.253906 139.121094 287.375 138.71875 287.453125 C 138.316406 287.535156 137.910156 287.574219 137.5 287.574219 Z M 137.5 262.566406 L 56.25 262.566406 C 55.839844 262.566406 55.433594 262.527344 55.03125 262.445312 C 54.628906 262.367188 54.238281 262.25 53.859375 262.089844 C 53.480469 261.933594 53.117188 261.742188 52.777344 261.511719 C 52.4375 261.285156 52.121094 261.027344 51.832031 260.734375 C 51.539062 260.445312 51.28125 260.128906 51.054688 259.789062 C 50.824219 259.445312 50.632812 259.085938 50.476562 258.707031 C 50.320312 258.328125 50.199219 257.9375 50.121094 257.535156 C 50.039062 257.132812 50 256.726562 50 256.316406 C 50 255.90625 50.039062 255.5 50.121094 255.09375 C 50.199219 254.691406 50.320312 254.300781 50.476562 253.921875 C 50.632812 253.542969 50.824219 253.183594 51.054688 252.84375 C 51.28125 252.5 51.539062 252.183594 51.832031 251.894531 C 52.121094 251.605469 52.4375 251.34375 52.777344 251.117188 C 53.117188 250.890625 53.480469 250.695312 53.859375 250.539062 C 54.238281 250.382812 54.628906 250.265625 55.03125 250.183594 C 55.433594 250.105469 55.839844 250.0625 56.25 250.0625 L 137.5 250.0625 C 137.910156 250.0625 138.316406 250.105469 138.71875 250.183594 C 139.121094 250.265625 139.511719 250.382812 139.890625 250.539062 C 140.269531 250.695312 140.632812 250.890625 140.972656 251.117188 C 141.3125 251.34375 141.628906 251.605469 141.917969 251.894531 C 142.210938 252.183594 142.46875 252.5 142.695312 252.84375 C 142.925781 253.183594 143.117188 253.542969 143.273438 253.921875 C 143.429688 254.300781 143.550781 254.691406 143.628906 255.09375 C 143.710938 255.5 143.75 255.90625 143.75 256.316406 C 143.75 256.726562 143.710938 257.132812 143.628906 257.535156 C 143.550781 257.9375 143.429688 258.328125 143.273438 258.707031 C 143.117188 259.085938 142.925781 259.445312 142.695312 259.789062 C 142.46875 260.128906 142.210938 260.445312 141.917969 260.734375 C 141.628906 261.027344 141.3125 261.285156 140.972656 261.511719 C 140.632812 261.742188 140.269531 261.933594 139.890625 262.089844 C 139.511719 262.25 139.121094 262.367188 138.71875 262.445312 C 138.316406 262.527344 137.910156 262.566406 137.5 262.566406 Z M 137.5 237.558594 L 56.25 237.558594 C 55.839844 237.558594 55.433594 237.519531 55.03125 237.441406 C 54.628906 237.359375 54.238281 237.242188 53.859375 237.085938 C 53.480469 236.925781 53.117188 236.734375 52.777344 236.507812 C 52.4375 236.277344 52.121094 236.019531 51.832031 235.730469 C 51.539062 235.4375 51.28125 235.125 51.054688 234.78125 C 50.824219 234.441406 50.632812 234.082031 50.476562 233.699219 C 50.320312 233.320312 50.199219 232.929688 50.121094 232.527344 C 50.039062 232.125 50 231.71875 50 231.308594 C 50 230.898438 50.039062 230.492188 50.121094 230.089844 C 50.199219 229.6875 50.320312 229.296875 50.476562 228.917969 C 50.632812 228.535156 50.824219 228.175781 51.054688 227.835938 C 51.28125 227.492188 51.539062 227.179688 51.832031 226.886719 C 52.121094 226.597656 52.4375 226.339844 52.777344 226.109375 C 53.117188 225.882812 53.480469 225.691406 53.859375 225.53125 C 54.238281 225.375 54.628906 225.257812 55.03125 225.175781 C 55.433594 225.097656 55.839844 225.058594 56.25 225.058594 L 137.5 225.058594 C 137.910156 225.058594 138.316406 225.097656 138.71875 225.175781 C 139.121094 225.257812 139.511719 225.375 139.890625 225.53125 C 140.269531 225.691406 140.632812 225.882812 140.972656 226.109375 C 141.3125 226.339844 141.628906 226.597656 141.917969 226.886719 C 142.210938 227.179688 142.46875 227.492188 142.695312 227.835938 C 142.925781 228.175781 143.117188 228.535156 143.273438 228.917969 C 143.429688 229.296875 143.550781 229.6875 143.628906 230.089844 C 143.710938 230.492188 143.75 230.898438 143.75 231.308594 C 143.75 231.71875 143.710938 232.125 143.628906 232.527344 C 143.550781 232.929688 143.429688 233.320312 143.273438 233.699219 C 143.117188 234.082031 142.925781 234.441406 142.695312 234.78125 C 142.46875 235.125 142.210938 235.4375 141.917969 235.730469 C 141.628906 236.019531 141.3125 236.277344 140.972656 236.507812 C 140.632812 236.734375 140.269531 236.925781 139.890625 237.085938 C 139.511719 237.242188 139.121094 237.359375 138.71875 237.441406 C 138.316406 237.519531 137.910156 237.558594 137.5 237.558594 Z M 356.25 62.511719 L 218.75 62.511719 C 218.136719 62.515625 217.523438 62.542969 216.914062 62.605469 C 216.300781 62.667969 215.695312 62.757812 215.09375 62.878906 C 214.492188 62.996094 213.898438 63.148438 213.308594 63.324219 C 212.722656 63.503906 212.144531 63.710938 211.578125 63.945312 C 211.011719 64.183594 210.457031 64.445312 209.914062 64.734375 C 209.375 65.023438 208.847656 65.339844 208.335938 65.679688 C 207.828125 66.023438 207.335938 66.386719 206.859375 66.777344 C 206.386719 67.167969 205.933594 67.578125 205.496094 68.011719 C 205.0625 68.445312 204.652344 68.902344 204.261719 69.375 C 203.871094 69.851562 203.507812 70.34375 203.167969 70.855469 C 202.824219 71.363281 202.507812 71.890625 202.21875 72.429688 C 201.929688 72.972656 201.667969 73.527344 201.433594 74.09375 C 201.199219 74.660156 200.992188 75.238281 200.8125 75.828125 C 200.632812 76.414062 200.484375 77.007812 200.363281 77.609375 C 200.242188 78.214844 200.152344 78.820312 200.09375 79.429688 C 200.03125 80.042969 200 80.65625 200 81.269531 L 200 293.824219 C 200 294.4375 200.03125 295.050781 200.09375 295.664062 C 200.152344 296.273438 200.242188 296.878906 200.363281 297.484375 C 200.484375 298.085938 200.632812 298.679688 200.8125 299.265625 C 200.992188 299.855469 201.199219 300.433594 201.433594 301 C 201.667969 301.566406 201.929688 302.121094 202.21875 302.664062 C 202.507812 303.203125 202.824219 303.730469 203.167969 304.238281 C 203.507812 304.75 203.871094 305.242188 204.261719 305.71875 C 204.652344 306.191406 205.0625 306.648438 205.496094 307.082031 C 205.933594 307.515625 206.386719 307.925781 206.859375 308.316406 C 207.335938 308.707031 207.828125 309.070312 208.335938 309.414062 C 208.847656 309.753906 209.375 310.070312 209.914062 310.359375 C 210.457031 310.648438 211.011719 310.910156 211.578125 311.148438 C 212.144531 311.382812 212.722656 311.589844 213.308594 311.769531 C 213.898438 311.945312 214.492188 312.097656 215.09375 312.214844 C 215.695312 312.335938 216.300781 312.425781 216.914062 312.488281 C 217.523438 312.550781 218.136719 312.578125 218.75 312.582031 L 356.25 312.582031 C 356.863281 312.578125 357.476562 312.550781 358.085938 312.488281 C 358.699219 312.425781 359.304688 312.335938 359.90625 312.214844 C 360.507812 312.097656 361.101562 311.945312 361.691406 311.769531 C 362.277344 311.589844 362.855469 311.382812 363.421875 311.148438 C 363.988281 310.910156 364.542969 310.648438 365.085938 310.359375 C 365.625 310.070312 366.152344 309.753906 366.660156 309.414062 C 367.171875 309.070312 367.664062 308.707031 368.140625 308.316406 C 368.613281 307.925781 369.066406 307.515625 369.503906 307.082031 C 369.9375 306.648438 370.347656 306.191406 370.738281 305.71875 C 371.128906 305.242188 371.492188 304.75 371.832031 304.238281 C 372.175781 303.730469 372.492188 303.203125 372.78125 302.664062 C 373.070312 302.121094 373.332031 301.566406 373.566406 301 C 373.800781 300.433594 374.007812 299.855469 374.1875 299.265625 C 374.367188 298.679688 374.515625 298.085938 374.636719 297.484375 C 374.757812 296.878906 374.847656 296.273438 374.90625 295.664062 C 374.96875 295.050781 375 294.4375 375 293.824219 L 375 81.269531 C 375 80.65625 374.96875 80.042969 374.90625 79.429688 C 374.847656 78.820312 374.757812 78.214844 374.636719 77.609375 C 374.515625 77.007812 374.367188 76.414062 374.1875 75.828125 C 374.007812 75.238281 373.800781 74.660156 373.566406 74.09375 C 373.332031 73.527344 373.070312 72.972656 372.78125 72.429688 C 372.492188 71.890625 372.175781 71.363281 371.832031 70.855469 C 371.492188 70.34375 371.128906 69.851562 370.738281 69.375 C 370.347656 68.902344 369.9375 68.445312 369.503906 68.011719 C 369.066406 67.578125 368.613281 67.167969 368.140625 66.777344 C 367.664062 66.386719 367.171875 66.023438 366.660156 65.679688 C 366.152344 65.339844 365.625 65.023438 365.085938 64.734375 C 364.542969 64.445312 363.988281 64.183594 363.421875 63.945312 C 362.855469 63.710938 362.277344 63.503906 361.691406 63.324219 C 361.101562 63.148438 360.507812 62.996094 359.90625 62.878906 C 359.304688 62.757812 358.699219 62.667969 358.085938 62.605469 C 357.476562 62.542969 356.863281 62.515625 356.25 62.511719 Z M 237.5 287.574219 C 237.089844 287.574219 236.683594 287.535156 236.28125 287.453125 C 235.878906 287.375 235.488281 287.253906 235.109375 287.097656 C 234.730469 286.941406 234.367188 286.75 234.027344 286.519531 C 233.6875 286.292969 233.371094 286.03125 233.082031 285.742188 C 232.789062 285.453125 232.53125 285.136719 232.304688 284.796875 C 232.074219 284.453125 231.882812 284.09375 231.726562 283.714844 C 231.570312 283.335938 231.449219 282.945312 231.371094 282.542969 C 231.289062 282.140625 231.25 281.734375 231.25 281.320312 C 231.25 280.910156 231.289062 280.503906 231.371094 280.101562 C 231.449219 279.699219 231.570312 279.308594 231.726562 278.929688 C 231.882812 278.550781 232.074219 278.191406 232.304688 277.847656 C 232.53125 277.507812 232.789062 277.191406 233.082031 276.902344 C 233.371094 276.609375 233.6875 276.351562 234.027344 276.125 C 234.367188 275.894531 234.730469 275.703125 235.109375 275.546875 C 235.488281 275.390625 235.878906 275.269531 236.28125 275.191406 C 236.683594 275.109375 237.089844 275.070312 237.5 275.070312 C 237.910156 275.070312 238.316406 275.109375 238.71875 275.191406 C 239.121094 275.269531 239.511719 275.390625 239.890625 275.546875 C 240.269531 275.703125 240.632812 275.894531 240.972656 276.125 C 241.3125 276.351562 241.628906 276.609375 241.917969 276.902344 C 242.210938 277.191406 242.46875 277.507812 242.695312 277.847656 C 242.925781 278.191406 243.117188 278.550781 243.273438 278.929688 C 243.429688 279.308594 243.550781 279.699219 243.628906 280.101562 C 243.710938 280.503906 243.75 280.910156 243.75 281.320312 C 243.75 281.734375 243.710938 282.140625 243.628906 282.542969 C 243.550781 282.945312 243.429688 283.335938 243.273438 283.714844 C 243.117188 284.09375 242.925781 284.453125 242.695312 284.796875 C 242.46875 285.136719 242.210938 285.453125 241.917969 285.742188 C 241.628906 286.03125 241.3125 286.292969 240.972656 286.519531 C 240.632812 286.75 240.269531 286.941406 239.890625 287.097656 C 239.511719 287.253906 239.121094 287.375 238.71875 287.453125 C 238.316406 287.535156 237.910156 287.574219 237.5 287.574219 Z M 237.5 262.566406 C 237.089844 262.566406 236.683594 262.527344 236.28125 262.445312 C 235.878906 262.367188 235.488281 262.25 235.109375 262.089844 C 234.730469 261.933594 234.367188 261.742188 234.027344 261.511719 C 233.6875 261.285156 233.371094 261.027344 233.082031 260.734375 C 232.789062 260.445312 232.53125 260.128906 232.304688 259.789062 C 232.074219 259.445312 231.882812 259.085938 231.726562 258.707031 C 231.570312 258.328125 231.449219 257.9375 231.371094 257.535156 C 231.289062 257.132812 231.25 256.726562 231.25 256.316406 C 231.25 255.90625 231.289062 255.5 231.371094 255.09375 C 231.449219 254.691406 231.570312 254.300781 231.726562 253.921875 C 231.882812 253.542969 232.074219 253.183594 232.304688 252.84375 C 232.53125 252.5 232.789062 252.183594 233.082031 251.894531 C 233.371094 251.605469 233.6875 251.34375 234.027344 251.117188 C 234.367188 250.890625 234.730469 250.695312 235.109375 250.539062 C 235.488281 250.382812 235.878906 250.265625 236.28125 250.183594 C 236.683594 250.105469 237.089844 250.0625 237.5 250.0625 C 237.910156 250.0625 238.316406 250.105469 238.71875 250.183594 C 239.121094 250.265625 239.511719 250.382812 239.890625 250.539062 C 240.269531 250.695312 240.632812 250.890625 240.972656 251.117188 C 241.3125 251.34375 241.628906 251.605469 241.917969 251.894531 C 242.210938 252.183594 242.46875 252.5 242.695312 252.84375 C 242.925781 253.183594 243.117188 253.542969 243.273438 253.921875 C 243.429688 254.300781 243.550781 254.691406 243.628906 255.09375 C 243.710938 255.5 243.75 255.90625 243.75 256.316406 C 243.75 256.726562 243.710938 257.132812 243.628906 257.535156 C 243.550781 257.9375 243.429688 258.328125 243.273438 258.707031 C 243.117188 259.085938 242.925781 259.445312 242.695312 259.789062 C 242.46875 260.128906 242.210938 260.445312 241.917969 260.734375 C 241.628906 261.027344 241.3125 261.285156 240.972656 261.511719 C 240.632812 261.742188 240.269531 261.933594 239.890625 262.089844 C 239.511719 262.25 239.121094 262.367188 238.71875 262.445312 C 238.316406 262.527344 237.910156 262.566406 237.5 262.566406 Z M 237.5 237.558594 C 237.089844 237.558594 236.683594 237.519531 236.28125 237.441406 C 235.878906 237.359375 235.488281 237.242188 235.109375 237.085938 C 234.730469 236.925781 234.367188 236.734375 234.027344 236.507812 C 233.6875 236.277344 233.371094 236.019531 233.082031 235.730469 C 232.789062 235.4375 232.53125 235.125 232.304688 234.78125 C 232.074219 234.441406 231.882812 234.082031 231.726562 233.699219 C 231.570312 233.320312 231.449219 232.929688 231.371094 232.527344 C 231.289062 232.125 231.25 231.71875 231.25 231.308594 C 231.25 230.898438 231.289062 230.492188 231.371094 230.089844 C 231.449219 229.6875 231.570312 229.296875 231.726562 228.917969 C 231.882812 228.535156 232.074219 228.175781 232.304688 227.835938 C 232.53125 227.492188 232.789062 227.179688 233.082031 226.886719 C 233.371094 226.597656 233.6875 226.339844 234.027344 226.109375 C 234.367188 225.882812 234.730469 225.691406 235.109375 225.53125 C 235.488281 225.375 235.878906 225.257812 236.28125 225.175781 C 236.683594 225.097656 237.089844 225.058594 237.5 225.058594 C 237.910156 225.058594 238.316406 225.097656 238.71875 225.175781 C 239.121094 225.257812 239.511719 225.375 239.890625 225.53125 C 240.269531 225.691406 240.632812 225.882812 240.972656 226.109375 C 241.3125 226.339844 241.628906 226.597656 241.917969 226.886719 C 242.210938 227.179688 242.46875 227.492188 242.695312 227.835938 C 242.925781 228.175781 243.117188 228.535156 243.273438 228.917969 C 243.429688 229.296875 243.550781 229.6875 243.628906 230.089844 C 243.710938 230.492188 243.75 230.898438 243.75 231.308594 C 243.75 231.71875 243.710938 232.125 243.628906 232.527344 C 243.550781 232.929688 243.429688 233.320312 243.273438 233.699219 C 243.117188 234.082031 242.925781 234.441406 242.695312 234.78125 C 242.46875 235.125 242.210938 235.4375 241.917969 235.730469 C 241.628906 236.019531 241.3125 236.277344 240.972656 236.507812 C 240.632812 236.734375 240.269531 236.925781 239.890625 237.085938 C 239.511719 237.242188 239.121094 237.359375 238.71875 237.441406 C 238.316406 237.519531 237.910156 237.558594 237.5 237.558594 Z M 337.5 287.574219 L 256.25 287.574219 C 255.839844 287.574219 255.433594 287.535156 255.03125 287.453125 C 254.628906 287.375 254.238281 287.253906 253.859375 287.097656 C 253.480469 286.941406 253.117188 286.75 252.777344 286.519531 C 252.4375 286.292969 252.121094 286.03125 251.832031 285.742188 C 251.539062 285.453125 251.28125 285.136719 251.054688 284.796875 C 250.824219 284.453125 250.632812 284.09375 250.476562 283.714844 C 250.320312 283.335938 250.199219 282.945312 250.121094 282.542969 C 250.039062 282.140625 250 281.734375 250 281.320312 C 250 280.910156 250.039062 280.503906 250.121094 280.101562 C 250.199219 279.699219 250.320312 279.308594 250.476562 278.929688 C 250.632812 278.550781 250.824219 278.191406 251.054688 277.847656 C 251.28125 277.507812 251.539062 277.191406 251.832031 276.902344 C 252.121094 276.609375 252.4375 276.351562 252.777344 276.125 C 253.117188 275.894531 253.480469 275.703125 253.859375 275.546875 C 254.238281 275.390625 254.628906 275.269531 255.03125 275.191406 C 255.433594 275.109375 255.839844 275.070312 256.25 275.070312 L 337.5 275.070312 C 337.910156 275.070312 338.316406 275.109375 338.71875 275.191406 C 339.121094 275.269531 339.511719 275.390625 339.890625 275.546875 C 340.269531 275.703125 340.632812 275.894531 340.972656 276.125 C 341.3125 276.351562 341.628906 276.609375 341.917969 276.902344 C 342.210938 277.191406 342.46875 277.507812 342.695312 277.847656 C 342.925781 278.191406 343.117188 278.550781 343.273438 278.929688 C 343.429688 279.308594 343.550781 279.699219 343.628906 280.101562 C 343.710938 280.503906 343.75 280.910156 343.75 281.320312 C 343.75 281.734375 343.710938 282.140625 343.628906 282.542969 C 343.550781 282.945312 343.429688 283.335938 343.273438 283.714844 C 343.117188 284.09375 342.925781 284.453125 342.695312 284.796875 C 342.46875 285.136719 342.210938 285.453125 341.917969 285.742188 C 341.628906 286.03125 341.3125 286.292969 340.972656 286.519531 C 340.632812 286.75 340.269531 286.941406 339.890625 287.097656 C 339.511719 287.253906 339.121094 287.375 338.71875 287.453125 C 338.316406 287.535156 337.910156 287.574219 337.5 287.574219 Z M 337.5 262.566406 L 256.25 262.566406 C 255.839844 262.566406 255.433594 262.527344 255.03125 262.445312 C 254.628906 262.367188 254.238281 262.25 253.859375 262.089844 C 253.480469 261.933594 253.117188 261.742188 252.777344 261.511719 C 252.4375 261.285156 252.121094 261.027344 251.832031 260.734375 C 251.539062 260.445312 251.28125 260.128906 251.054688 259.789062 C 250.824219 259.445312 250.632812 259.085938 250.476562 258.707031 C 250.320312 258.328125 250.199219 257.9375 250.121094 257.535156 C 250.039062 257.132812 250 256.726562 250 256.316406 C 250 255.90625 250.039062 255.5 250.121094 255.09375 C 250.199219 254.691406 250.320312 254.300781 250.476562 253.921875 C 250.632812 253.542969 250.824219 253.183594 251.054688 252.84375 C 251.28125 252.5 251.539062 252.183594 251.832031 251.894531 C 252.121094 251.605469 252.4375 251.34375 252.777344 251.117188 C 253.117188 250.890625 253.480469 250.695312 253.859375 250.539062 C 254.238281 250.382812 254.628906 250.265625 255.03125 250.183594 C 255.433594 250.105469 255.839844 250.0625 256.25 250.0625 L 337.5 250.0625 C 337.910156 250.0625 338.316406 250.105469 338.71875 250.183594 C 339.121094 250.265625 339.511719 250.382812 339.890625 250.539062 C 340.269531 250.695312 340.632812 250.890625 340.972656 251.117188 C 341.3125 251.34375 341.628906 251.605469 341.917969 251.894531 C 342.210938 252.183594 342.46875 252.5 342.695312 252.84375 C 342.925781 253.183594 343.117188 253.542969 343.273438 253.921875 C 343.429688 254.300781 343.550781 254.691406 343.628906 255.09375 C 343.710938 255.5 343.75 255.90625 343.75 256.316406 C 343.75 256.726562 343.710938 257.132812 343.628906 257.535156 C 343.550781 257.9375 343.429688 258.328125 343.273438 258.707031 C 343.117188 259.085938 342.925781 259.445312 342.695312 259.789062 C 342.46875 260.128906 342.210938 260.445312 341.917969 260.734375 C 341.628906 261.027344 341.3125 261.285156 340.972656 261.511719 C 340.632812 261.742188 340.269531 261.933594 339.890625 262.089844 C 339.511719 262.25 339.121094 262.367188 338.71875 262.445312 C 338.316406 262.527344 337.910156 262.566406 337.5 262.566406 Z M 337.5 237.558594 L 256.25 237.558594 C 255.839844 237.558594 255.433594 237.519531 255.03125 237.441406 C 254.628906 237.359375 254.238281 237.242188 253.859375 237.085938 C 253.480469 236.925781 253.117188 236.734375 252.777344 236.507812 C 252.4375 236.277344 252.121094 236.019531 251.832031 235.730469 C 251.539062 235.4375 251.28125 235.125 251.054688 234.78125 C 250.824219 234.441406 250.632812 234.082031 250.476562 233.699219 C 250.320312 233.320312 250.199219 232.929688 250.121094 232.527344 C 250.039062 232.125 250 231.71875 250 231.308594 C 250 230.898438 250.039062 230.492188 250.121094 230.089844 C 250.199219 229.6875 250.320312 229.296875 250.476562 228.917969 C 250.632812 228.535156 250.824219 228.175781 251.054688 227.835938 C 251.28125 227.492188 251.539062 227.179688 251.832031 226.886719 C 252.121094 226.597656 252.4375 226.339844 252.777344 226.109375 C 253.117188 225.882812 253.480469 225.691406 253.859375 225.53125 C 254.238281 225.375 254.628906 225.257812 255.03125 225.175781 C 255.433594 225.097656 255.839844 225.058594 256.25 225.058594 L 337.5 225.058594 C 337.910156 225.058594 338.316406 225.097656 338.71875 225.175781 C 339.121094 225.257812 339.511719 225.375 339.890625 225.53125 C 340.269531 225.691406 340.632812 225.882812 340.972656 226.109375 C 341.3125 226.339844 341.628906 226.597656 341.917969 226.886719 C 342.210938 227.179688 342.46875 227.492188 342.695312 227.835938 C 342.925781 228.175781 343.117188 228.535156 343.273438 228.917969 C 343.429688 229.296875 343.550781 229.6875 343.628906 230.089844 C 343.710938 230.492188 343.75 230.898438 343.75 231.308594 C 343.75 231.71875 343.710938 232.125 343.628906 232.527344 C 343.550781 232.929688 343.429688 233.320312 343.273438 233.699219 C 343.117188 234.082031 342.925781 234.441406 342.695312 234.78125 C 342.46875 235.125 342.210938 235.4375 341.917969 235.730469 C 341.628906 236.019531 341.3125 236.277344 340.972656 236.507812 C 340.632812 236.734375 340.269531 236.925781 339.890625 237.085938 C 339.511719 237.242188 339.121094 237.359375 338.71875 237.441406 C 338.316406 237.519531 337.910156 237.558594 337.5 237.558594 Z M 351.671875 151.710938 C 351.101562 152.28125 350.488281 152.800781 349.832031 153.277344 C 349.179688 153.75 348.492188 154.171875 347.773438 154.539062 C 347.054688 154.90625 346.3125 155.214844 345.546875 155.464844 C 344.777344 155.71875 343.996094 155.910156 343.199219 156.039062 C 342.402344 156.167969 341.601562 156.238281 340.792969 156.242188 C 339.984375 156.25 339.183594 156.191406 338.382812 156.074219 C 337.585938 155.953125 336.800781 155.773438 336.03125 155.535156 C 335.261719 155.292969 334.511719 154.992188 333.789062 154.636719 L 314.90625 170.617188 C 315.09375 171.25 315.242188 171.890625 315.351562 172.539062 C 315.457031 173.191406 315.523438 173.84375 315.546875 174.503906 C 315.574219 175.160156 315.554688 175.816406 315.496094 176.472656 C 315.4375 177.128906 315.335938 177.78125 315.195312 178.425781 C 315.054688 179.066406 314.875 179.699219 314.652344 180.320312 C 314.429688 180.941406 314.171875 181.542969 313.875 182.132812 C 313.574219 182.71875 313.242188 183.285156 312.871094 183.832031 C 312.5 184.375 312.097656 184.894531 311.664062 185.390625 C 311.226562 185.882812 310.761719 186.347656 310.269531 186.785156 C 309.773438 187.21875 309.253906 187.621094 308.707031 187.988281 C 308.164062 188.359375 307.597656 188.691406 307.007812 188.988281 C 306.421875 189.289062 305.816406 189.546875 305.195312 189.765625 C 304.574219 189.988281 303.941406 190.167969 303.300781 190.308594 C 302.65625 190.449219 302.007812 190.546875 301.351562 190.605469 C 300.695312 190.664062 300.035156 190.679688 299.378906 190.65625 C 298.71875 190.628906 298.066406 190.5625 297.417969 190.457031 C 296.765625 190.347656 296.125 190.199219 295.496094 190.007812 C 294.863281 189.820312 294.25 189.589844 293.648438 189.324219 C 293.046875 189.054688 292.460938 188.75 291.898438 188.410156 C 291.335938 188.066406 290.796875 187.691406 290.28125 187.28125 C 289.765625 186.871094 289.277344 186.429688 288.816406 185.960938 C 288.359375 185.488281 287.929688 184.988281 287.535156 184.460938 C 287.136719 183.9375 286.773438 183.386719 286.449219 182.816406 C 286.121094 182.242188 285.832031 181.652344 285.578125 181.042969 C 285.328125 180.4375 285.117188 179.8125 284.941406 179.179688 C 284.769531 178.542969 284.636719 177.898438 284.546875 177.246094 C 284.453125 176.59375 284.402344 175.9375 284.394531 175.28125 C 284.386719 174.621094 284.421875 173.964844 284.496094 173.308594 C 284.570312 172.65625 284.6875 172.007812 284.84375 171.367188 C 285 170.726562 285.195312 170.101562 285.433594 169.484375 C 285.667969 168.871094 285.941406 168.273438 286.253906 167.691406 C 286.566406 167.113281 286.914062 166.554688 287.296875 166.019531 L 273.84375 143.589844 C 272.316406 143.785156 270.792969 143.753906 269.277344 143.496094 C 267.757812 143.238281 266.3125 142.765625 264.933594 142.078125 L 249.367188 155.054688 C 249.535156 155.625 249.671875 156.203125 249.773438 156.789062 C 249.875 157.375 249.941406 157.964844 249.976562 158.558594 C 250.011719 159.152344 250.015625 159.746094 249.980469 160.339844 C 249.949219 160.933594 249.882812 161.523438 249.78125 162.109375 C 249.683594 162.695312 249.550781 163.273438 249.386719 163.84375 C 249.21875 164.414062 249.023438 164.972656 248.792969 165.523438 C 248.5625 166.070312 248.304688 166.605469 248.011719 167.121094 C 247.722656 167.640625 247.40625 168.140625 247.058594 168.625 C 246.710938 169.105469 246.335938 169.566406 245.9375 170.007812 C 245.539062 170.449219 245.113281 170.863281 244.667969 171.253906 C 244.21875 171.648438 243.753906 172.011719 243.265625 172.351562 C 242.777344 172.6875 242.269531 173 241.746094 173.28125 C 241.222656 173.558594 240.683594 173.808594 240.132812 174.03125 C 239.578125 174.25 239.015625 174.4375 238.441406 174.59375 C 237.871094 174.746094 237.289062 174.871094 236.703125 174.957031 C 236.113281 175.046875 235.523438 175.101562 234.929688 175.125 C 234.335938 175.148438 233.742188 175.136719 233.148438 175.089844 C 232.558594 175.042969 231.96875 174.964844 231.386719 174.851562 C 230.800781 174.738281 230.226562 174.59375 229.660156 174.414062 C 229.09375 174.238281 228.539062 174.027344 227.996094 173.785156 C 227.453125 173.542969 226.925781 173.273438 226.414062 172.972656 C 225.902344 172.667969 225.40625 172.339844 224.933594 171.980469 C 224.457031 171.625 224.003906 171.242188 223.574219 170.832031 C 223.144531 170.421875 222.738281 169.988281 222.355469 169.535156 C 221.972656 169.078125 221.621094 168.601562 221.292969 168.105469 C 220.964844 167.609375 220.667969 167.097656 220.398438 166.566406 C 220.128906 166.039062 219.890625 165.492188 219.683594 164.9375 C 219.476562 164.378906 219.300781 163.8125 219.160156 163.234375 C 219.015625 162.660156 218.90625 162.074219 218.832031 161.484375 C 218.753906 160.894531 218.710938 160.304688 218.703125 159.710938 C 218.695312 159.117188 218.71875 158.523438 218.777344 157.929688 C 218.835938 157.339844 218.929688 156.753906 219.054688 156.171875 C 219.179688 155.589844 219.339844 155.019531 219.53125 154.457031 C 219.71875 153.894531 219.941406 153.34375 220.195312 152.804688 C 220.449219 152.269531 220.734375 151.746094 221.046875 151.242188 C 221.359375 150.734375 221.699219 150.25 222.066406 149.78125 C 222.433594 149.316406 222.828125 148.871094 223.246094 148.449219 C 223.664062 148.027344 224.105469 147.632812 224.570312 147.261719 C 225.035156 146.886719 225.519531 146.542969 226.019531 146.226562 C 226.523438 145.910156 227.042969 145.625 227.578125 145.367188 C 228.113281 145.109375 228.664062 144.882812 229.226562 144.6875 C 229.785156 144.496094 230.355469 144.332031 230.9375 144.203125 C 231.515625 144.074219 232.101562 143.976562 232.691406 143.914062 C 233.285156 143.851562 233.875 143.820312 234.46875 143.824219 C 235.066406 143.828125 235.65625 143.867188 236.246094 143.941406 C 236.835938 144.011719 237.421875 144.117188 238 144.253906 C 238.578125 144.394531 239.144531 144.5625 239.703125 144.765625 C 240.261719 144.96875 240.804688 145.203125 241.339844 145.46875 L 256.933594 132.46875 C 256.75 131.839844 256.609375 131.199219 256.507812 130.546875 C 256.402344 129.898438 256.34375 129.246094 256.324219 128.585938 C 256.304688 127.929688 256.324219 127.273438 256.386719 126.621094 C 256.453125 125.964844 256.554688 125.316406 256.699219 124.675781 C 256.847656 124.035156 257.03125 123.40625 257.257812 122.789062 C 257.480469 122.167969 257.746094 121.566406 258.046875 120.984375 C 258.347656 120.398438 258.683594 119.835938 259.054688 119.292969 C 259.425781 118.75 259.832031 118.234375 260.269531 117.746094 C 260.707031 117.253906 261.175781 116.792969 261.671875 116.359375 C 262.167969 115.929688 262.6875 115.53125 263.234375 115.164062 C 263.78125 114.800781 264.347656 114.46875 264.9375 114.175781 C 265.523438 113.882812 266.128906 113.625 266.75 113.410156 C 267.371094 113.191406 268 113.015625 268.644531 112.875 C 269.285156 112.738281 269.9375 112.644531 270.589844 112.585938 C 271.246094 112.53125 271.902344 112.519531 272.558594 112.546875 C 273.214844 112.574219 273.867188 112.644531 274.515625 112.753906 C 275.164062 112.863281 275.804688 113.015625 276.433594 113.207031 C 277.0625 113.398438 277.675781 113.628906 278.273438 113.898438 C 278.875 114.167969 279.457031 114.472656 280.015625 114.816406 C 280.578125 115.15625 281.113281 115.535156 281.628906 115.945312 C 282.140625 116.355469 282.628906 116.796875 283.085938 117.269531 C 283.542969 117.742188 283.96875 118.242188 284.363281 118.765625 C 284.757812 119.292969 285.117188 119.839844 285.441406 120.414062 C 285.769531 120.984375 286.054688 121.574219 286.304688 122.183594 C 286.558594 122.789062 286.769531 123.410156 286.941406 124.046875 C 287.113281 124.679688 287.242188 125.324219 287.332031 125.976562 C 287.421875 126.625 287.472656 127.28125 287.480469 127.9375 C 287.488281 128.597656 287.453125 129.25 287.378906 129.90625 C 287.304688 130.558594 287.1875 131.203125 287.03125 131.84375 C 286.871094 132.480469 286.675781 133.109375 286.441406 133.722656 C 286.203125 134.335938 285.929688 134.929688 285.617188 135.511719 C 285.304688 136.089844 284.960938 136.644531 284.578125 137.179688 L 298.03125 159.609375 C 301.109375 159.21875 304.046875 159.703125 306.835938 161.066406 L 325.71875 145.085938 C 325.457031 144.207031 325.277344 143.3125 325.175781 142.402344 C 325.074219 141.492188 325.050781 140.582031 325.109375 139.667969 C 325.167969 138.753906 325.304688 137.851562 325.523438 136.960938 C 325.738281 136.070312 326.03125 135.207031 326.402344 134.371094 C 326.769531 133.53125 327.210938 132.730469 327.71875 131.972656 C 328.230469 131.210938 328.800781 130.5 329.4375 129.839844 C 330.074219 129.179688 330.761719 128.582031 331.5 128.042969 C 332.242188 127.503906 333.023438 127.035156 333.847656 126.632812 C 334.671875 126.234375 335.523438 125.90625 336.402344 125.65625 C 337.285156 125.40625 338.179688 125.234375 339.089844 125.140625 C 340 125.050781 340.914062 125.035156 341.824219 125.105469 C 342.738281 125.171875 343.640625 125.320312 344.527344 125.546875 C 345.414062 125.773438 346.273438 126.074219 347.109375 126.453125 C 347.941406 126.832031 348.734375 127.28125 349.492188 127.796875 C 350.246094 128.316406 350.949219 128.894531 351.601562 129.539062 C 352.253906 130.179688 352.847656 130.875 353.378906 131.621094 C 353.910156 132.367188 354.371094 133.152344 354.761719 133.980469 C 355.152344 134.808594 355.46875 135.664062 355.710938 136.546875 C 355.953125 137.429688 356.117188 138.328125 356.199219 139.242188 C 356.28125 140.152344 356.285156 141.066406 356.207031 141.976562 C 356.128906 142.890625 355.972656 143.789062 355.738281 144.675781 C 355.503906 145.558594 355.191406 146.417969 354.804688 147.246094 C 354.417969 148.078125 353.960938 148.867188 353.433594 149.617188 C 352.910156 150.367188 352.320312 151.066406 351.671875 151.710938 Z M 267.367188 325.082031 L 307.632812 325.082031 C 306.761719 326.0625 305.796875 326.941406 304.738281 327.71875 C 303.683594 328.496094 302.554688 329.152344 301.359375 329.691406 C 300.164062 330.230469 298.925781 330.640625 297.640625 330.917969 C 296.359375 331.191406 295.0625 331.332031 293.75 331.335938 L 293.75 343.839844 C 293.75 344.453125 293.71875 345.066406 293.65625 345.675781 C 293.597656 346.289062 293.507812 346.894531 293.386719 347.496094 C 293.265625 348.097656 293.117188 348.691406 292.9375 349.28125 C 292.757812 349.867188 292.550781 350.445312 292.316406 351.011719 C 292.082031 351.578125 291.820312 352.132812 291.53125 352.675781 C 291.242188 353.21875 290.925781 353.742188 290.582031 354.253906 C 290.242188 354.765625 289.878906 355.257812 289.488281 355.730469 C 289.097656 356.207031 288.6875 356.660156 288.253906 357.09375 C 287.816406 357.527344 287.363281 357.941406 286.890625 358.332031 C 286.414062 358.71875 285.921875 359.085938 285.410156 359.425781 C 284.902344 359.769531 284.375 360.082031 283.835938 360.375 C 283.292969 360.664062 282.738281 360.925781 282.171875 361.160156 C 281.605469 361.394531 281.027344 361.601562 280.441406 361.78125 C 279.851562 361.960938 279.257812 362.109375 278.65625 362.230469 C 278.054688 362.351562 277.449219 362.441406 276.835938 362.5 C 276.226562 362.5625 275.613281 362.59375 275 362.59375 L 100 362.59375 C 99.386719 362.59375 98.773438 362.5625 98.164062 362.5 C 97.550781 362.441406 96.945312 362.351562 96.34375 362.230469 C 95.742188 362.109375 95.148438 361.960938 94.558594 361.78125 C 93.972656 361.601562 93.394531 361.394531 92.828125 361.160156 C 92.261719 360.925781 91.707031 360.664062 91.164062 360.375 C 90.625 360.082031 90.097656 359.769531 89.585938 359.425781 C 89.078125 359.085938 88.585938 358.71875 88.109375 358.332031 C 87.636719 357.941406 87.183594 357.527344 86.746094 357.09375 C 86.3125 356.660156 85.902344 356.207031 85.511719 355.730469 C 85.121094 355.257812 84.757812 354.765625 84.417969 354.253906 C 84.074219 353.742188 83.757812 353.21875 83.46875 352.675781 C 83.179688 352.132812 82.917969 351.578125 82.683594 351.011719 C 82.449219 350.445312 82.242188 349.867188 82.0625 349.28125 C 81.882812 348.691406 81.734375 348.097656 81.613281 347.496094 C 81.492188 346.894531 81.402344 346.289062 81.34375 345.675781 C 81.28125 345.066406 81.25 344.453125 81.25 343.839844 L 81.25 331.335938 C 79.9375 331.332031 78.640625 331.191406 77.359375 330.917969 C 76.074219 330.640625 74.835938 330.230469 73.640625 329.691406 C 72.445312 329.152344 71.316406 328.496094 70.261719 327.71875 C 69.203125 326.941406 68.238281 326.0625 67.367188 325.082031 L 107.632812 325.082031 C 106.761719 326.0625 105.796875 326.941406 104.738281 327.71875 C 103.683594 328.496094 102.554688 329.152344 101.359375 329.691406 C 100.164062 330.230469 98.925781 330.640625 97.640625 330.917969 C 96.359375 331.191406 95.0625 331.332031 93.75 331.335938 L 93.75 343.839844 C 93.75 344.25 93.789062 344.65625 93.871094 345.058594 C 93.949219 345.460938 94.070312 345.851562 94.226562 346.230469 C 94.382812 346.609375 94.578125 346.96875 94.804688 347.3125 C 95.03125 347.652344 95.292969 347.96875 95.582031 348.257812 C 95.871094 348.546875 96.1875 348.808594 96.527344 349.035156 C 96.871094 349.261719 97.230469 349.457031 97.609375 349.613281 C 97.988281 349.769531 98.378906 349.890625 98.78125 349.96875 C 99.183594 350.050781 99.589844 350.089844 100 350.089844 L 275 350.089844 C 275.410156 350.089844 275.816406 350.050781 276.21875 349.96875 C 276.621094 349.890625 277.011719 349.769531 277.390625 349.613281 C 277.769531 349.457031 278.128906 349.261719 278.472656 349.035156 C 278.8125 348.808594 279.128906 348.546875 279.417969 348.257812 C 279.707031 347.96875 279.96875 347.652344 280.195312 347.3125 C 280.421875 346.96875 280.617188 346.609375 280.773438 346.230469 C 280.929688 345.851562 281.050781 345.460938 281.128906 345.058594 C 281.210938 344.65625 281.25 344.25 281.25 343.839844 L 281.25 331.335938 C 279.9375 331.332031 278.640625 331.191406 277.359375 330.917969 C 276.074219 330.640625 274.835938 330.230469 273.640625 329.691406 C 272.445312 329.152344 271.316406 328.496094 270.261719 327.71875 C 269.203125 326.941406 268.238281 326.0625 267.367188 325.082031 Z M 107.632812 50.011719 L 67.367188 50.011719 C 68.238281 49.03125 69.203125 48.152344 70.261719 47.375 C 71.316406 46.597656 72.445312 45.941406 73.640625 45.402344 C 74.835938 44.863281 76.074219 44.453125 77.359375 44.175781 C 78.640625 43.902344 79.9375 43.761719 81.25 43.757812 L 81.25 31.253906 C 81.25 30.640625 81.28125 30.027344 81.34375 29.417969 C 81.402344 28.804688 81.492188 28.199219 81.613281 27.597656 C 81.734375 26.996094 81.882812 26.402344 82.0625 25.8125 C 82.242188 25.226562 82.449219 24.648438 82.683594 24.082031 C 82.917969 23.515625 83.179688 22.960938 83.46875 22.417969 C 83.757812 21.875 84.074219 21.351562 84.417969 20.839844 C 84.757812 20.328125 85.121094 19.835938 85.511719 19.363281 C 85.902344 18.886719 86.3125 18.433594 86.746094 18 C 87.183594 17.566406 87.636719 17.152344 88.109375 16.761719 C 88.585938 16.375 89.078125 16.007812 89.589844 15.667969 C 90.097656 15.324219 90.625 15.011719 91.164062 14.71875 C 91.707031 14.429688 92.261719 14.167969 92.828125 13.933594 C 93.394531 13.699219 93.972656 13.492188 94.558594 13.3125 C 95.148438 13.132812 95.742188 12.984375 96.34375 12.863281 C 96.945312 12.742188 97.550781 12.652344 98.164062 12.59375 C 98.773438 12.53125 99.386719 12.5 100 12.5 L 275 12.5 C 275.613281 12.5 276.226562 12.53125 276.835938 12.59375 C 277.449219 12.652344 278.054688 12.742188 278.65625 12.863281 C 279.257812 12.984375 279.851562 13.132812 280.441406 13.3125 C 281.027344 13.492188 281.605469 13.699219 282.171875 13.933594 C 282.738281 14.167969 283.292969 14.429688 283.835938 14.71875 C 284.375 15.011719 284.902344 15.324219 285.410156 15.667969 C 285.921875 16.007812 286.414062 16.375 286.890625 16.761719 C 287.363281 17.152344 287.816406 17.566406 288.253906 18 C 288.6875 18.433594 289.097656 18.886719 289.488281 19.363281 C 289.878906 19.835938 290.242188 20.328125 290.582031 20.839844 C 290.925781 21.351562 291.242188 21.875 291.53125 22.417969 C 291.820312 22.960938 292.082031 23.515625 292.316406 24.082031 C 292.550781 24.648438 292.757812 25.226562 292.9375 25.8125 C 293.117188 26.402344 293.265625 26.996094 293.386719 27.597656 C 293.507812 28.199219 293.597656 28.804688 293.65625 29.417969 C 293.71875 30.027344 293.75 30.640625 293.75 31.253906 L 293.75 43.757812 C 295.0625 43.761719 296.359375 43.902344 297.640625 44.175781 C 298.925781 44.453125 300.164062 44.863281 301.359375 45.402344 C 302.554688 45.941406 303.683594 46.597656 304.738281 47.375 C 305.796875 48.152344 306.761719 49.03125 307.632812 50.011719 L 267.367188 50.011719 C 268.238281 49.03125 269.203125 48.152344 270.261719 47.375 C 271.316406 46.597656 272.445312 45.941406 273.640625 45.402344 C 274.835938 44.863281 276.074219 44.453125 277.359375 44.175781 C 278.640625 43.902344 279.9375 43.761719 281.25 43.757812 L 281.25 31.253906 C 281.25 30.84375 281.210938 30.4375 281.128906 30.035156 C 281.050781 29.632812 280.929688 29.242188 280.773438 28.863281 C 280.617188 28.484375 280.421875 28.125 280.195312 27.78125 C 279.96875 27.441406 279.707031 27.125 279.417969 26.835938 C 279.128906 26.546875 278.8125 26.285156 278.472656 26.058594 C 278.128906 25.832031 277.769531 25.636719 277.390625 25.480469 C 277.011719 25.324219 276.621094 25.203125 276.21875 25.125 C 275.816406 25.042969 275.410156 25.003906 275 25.003906 L 100 25.003906 C 99.589844 25.003906 99.183594 25.042969 98.78125 25.125 C 98.378906 25.203125 97.988281 25.324219 97.609375 25.480469 C 97.230469 25.636719 96.871094 25.832031 96.527344 26.058594 C 96.1875 26.285156 95.871094 26.546875 95.582031 26.835938 C 95.292969 27.125 95.03125 27.441406 94.804688 27.78125 C 94.578125 28.125 94.382812 28.484375 94.226562 28.863281 C 94.070312 29.242188 93.949219 29.632812 93.871094 30.035156 C 93.789062 30.4375 93.75 30.84375 93.75 31.253906 L 93.75 43.757812 C 95.0625 43.761719 96.359375 43.902344 97.640625 44.175781 C 98.925781 44.453125 100.164062 44.863281 101.359375 45.402344 C 102.554688 45.941406 103.683594 46.597656 104.738281 47.375 C 105.796875 48.152344 106.761719 49.03125 107.632812 50.011719 Z M 107.632812 50.011719 " fill-opacity="1" fill-rule="nonzero"/></g></svg>