<svg xmlns="http://www.w3.org/2000/svg" xmlns:xlink="http://www.w3.org/1999/xlink" width="5000" zoomAndPan="magnify" viewBox="0 0 3750 3749.999967" height="5000" preserveAspectRatio="xMidYMid meet" version="1.0"><defs><clipPath id="ef9374aaf2"><path d="M 19.628906 0 L 3730.628906 0 L 3730.628906 3711 L 19.628906 3711 Z M 19.628906 0 " clip-rule="nonzero"/></clipPath><clipPath id="247b9aec69"><path d="M 944.488281 666.214844 L 2805.238281 666.214844 L 2805.238281 3044.464844 L 944.488281 3044.464844 Z M 944.488281 666.214844 " clip-rule="nonzero"/></clipPath><clipPath id="5a6d71100d"><path d="M 944.488281 666.214844 L 1669 666.214844 L 1669 1391 L 944.488281 1391 Z M 944.488281 666.214844 " clip-rule="nonzero"/></clipPath></defs><g clip-path="url(#ef9374aaf2)"><path fill="#e3ae0a" d="M 1874.996094 3710.730469 C 849.960938 3710.730469 19.628906 2874.671875 19.628906 1855.367188 C 19.628906 836.058594 849.960938 0 1874.996094 0 C 2900.027344 0 3730.359375 830.332031 3730.359375 1855.367188 C 3730.359375 2880.398438 2894.300781 3710.730469 1874.996094 3710.730469 Z M 1874.996094 114.527344 C 912.953125 114.527344 134.160156 893.324219 134.160156 1855.367188 C 134.160156 2817.40625 912.953125 3596.203125 1874.996094 3596.203125 C 2837.035156 3596.203125 3615.832031 2817.40625 3615.832031 1855.367188 C 3615.832031 893.324219 2831.308594 114.527344 1874.996094 114.527344 Z M 1874.996094 114.527344 " fill-opacity="1" fill-rule="nonzero"/></g><g clip-path="url(#247b9aec69)"><path fill="#e3ae0a" d="M 2753.8125 3044.347656 L 996.183594 3044.347656 C 967.644531 3044.347656 944.488281 3021.191406 944.488281 2992.65625 L 944.488281 1338.414062 C 944.488281 1324.664062 949.964844 1311.535156 959.582031 1301.816406 L 1579.921875 681.476562 C 1589.640625 671.859375 1602.769531 666.378906 1616.523438 666.378906 L 2753.8125 666.378906 C 2782.347656 666.378906 2805.507812 689.539062 2805.507812 718.074219 L 2805.507812 2992.65625 C 2805.507812 3021.191406 2782.347656 3044.347656 2753.8125 3044.347656 Z M 1047.875 2940.960938 L 2702.117188 2940.960938 L 2702.117188 769.769531 L 1637.921875 769.769531 L 1047.875 1359.816406 Z M 1047.875 2940.960938 " fill-opacity="1" fill-rule="nonzero"/></g><g clip-path="url(#5a6d71100d)"><path fill="#e3ae0a" d="M 1616.523438 1390.109375 L 996.183594 1390.109375 C 967.644531 1390.109375 944.488281 1366.949219 944.488281 1338.414062 C 944.488281 1309.878906 967.644531 1286.71875 996.183594 1286.71875 L 1564.828125 1286.71875 L 1564.828125 718.074219 C 1564.828125 689.539062 1587.984375 666.378906 1616.523438 666.378906 C 1645.058594 666.378906 1668.214844 689.539062 1668.214844 718.074219 L 1668.214844 1338.414062 C 1668.214844 1366.949219 1645.058594 1390.109375 1616.523438 1390.109375 Z M 1616.523438 1390.109375 " fill-opacity="1" fill-rule="nonzero"/></g><path fill="#e3ae0a" d="M 2443.640625 2734.179688 L 1306.351562 2734.179688 C 1277.816406 2734.179688 1254.65625 2711.019531 1254.65625 2682.484375 L 1254.65625 1648.585938 C 1254.65625 1620.050781 1277.816406 1596.890625 1306.351562 1596.890625 L 2443.640625 1596.890625 C 2472.175781 1596.890625 2495.335938 1620.050781 2495.335938 1648.585938 L 2495.335938 2682.484375 C 2495.335938 2711.019531 2472.175781 2734.179688 2443.640625 2734.179688 Z M 1358.046875 2630.789062 L 2391.945312 2630.789062 L 2391.945312 1700.28125 L 1358.046875 1700.28125 Z M 1358.046875 2630.789062 " fill-opacity="1" fill-rule="nonzero"/><path fill="#e3ae0a" d="M 1616.523438 2734.179688 C 1587.984375 2734.179688 1564.828125 2711.019531 1564.828125 2682.484375 L 1564.828125 1648.585938 C 1564.828125 1620.050781 1587.984375 1596.890625 1616.523438 1596.890625 C 1645.058594 1596.890625 1668.214844 1620.050781 1668.214844 1648.585938 L 1668.214844 2682.484375 C 1668.214844 2711.019531 1645.058594 2734.179688 1616.523438 2734.179688 Z M 1616.523438 2734.179688 " fill-opacity="1" fill-rule="nonzero"/><path fill="#e3ae0a" d="M 2030.082031 2734.179688 C 2001.546875 2734.179688 1978.386719 2711.019531 1978.386719 2682.484375 L 1978.386719 1648.585938 C 1978.386719 1620.050781 2001.546875 1596.890625 2030.082031 1596.890625 C 2058.617188 1596.890625 2081.777344 1620.050781 2081.777344 1648.585938 L 2081.777344 2682.484375 C 2081.777344 2711.019531 2058.617188 2734.179688 2030.082031 2734.179688 Z M 2030.082031 2734.179688 " fill-opacity="1" fill-rule="nonzero"/><path fill="#e3ae0a" d="M 2443.640625 1907.058594 L 1306.351562 1907.058594 C 1277.816406 1907.058594 1254.65625 1883.902344 1254.65625 1855.363281 C 1254.65625 1826.828125 1277.816406 1803.667969 1306.351562 1803.667969 L 2443.640625 1803.667969 C 2472.175781 1803.667969 2495.335938 1826.828125 2495.335938 1855.363281 C 2495.335938 1883.902344 2472.175781 1907.058594 2443.640625 1907.058594 Z M 2443.640625 1907.058594 " fill-opacity="1" fill-rule="nonzero"/><path fill="#e3ae0a" d="M 2443.640625 2113.839844 L 1306.351562 2113.839844 C 1277.816406 2113.839844 1254.65625 2090.679688 1254.65625 2062.144531 C 1254.65625 2033.609375 1277.816406 2010.449219 1306.351562 2010.449219 L 2443.640625 2010.449219 C 2472.175781 2010.449219 2495.335938 2033.609375 2495.335938 2062.144531 C 2495.335938 2090.679688 2472.175781 2113.839844 2443.640625 2113.839844 Z M 2443.640625 2113.839844 " fill-opacity="1" fill-rule="nonzero"/><path fill="#e3ae0a" d="M 2443.640625 2320.621094 L 1306.351562 2320.621094 C 1277.816406 2320.621094 1254.65625 2297.460938 1254.65625 2268.925781 C 1254.65625 2240.390625 1277.816406 2217.230469 1306.351562 2217.230469 L 2443.640625 2217.230469 C 2472.175781 2217.230469 2495.335938 2240.390625 2495.335938 2268.925781 C 2495.335938 2297.460938 2472.175781 2320.621094 2443.640625 2320.621094 Z M 2443.640625 2320.621094 " fill-opacity="1" fill-rule="nonzero"/><path fill="#e3ae0a" d="M 2443.640625 2527.398438 L 1306.351562 2527.398438 C 1277.816406 2527.398438 1254.65625 2504.242188 1254.65625 2475.703125 C 1254.65625 2447.167969 1277.816406 2424.007812 1306.351562 2424.007812 L 2443.640625 2424.007812 C 2472.175781 2424.007812 2495.335938 2447.167969 2495.335938 2475.703125 C 2495.335938 2504.238281 2472.175781 2527.398438 2443.640625 2527.398438 Z M 2443.640625 2527.398438 " fill-opacity="1" fill-rule="nonzero"/></svg>