<svg xmlns="http://www.w3.org/2000/svg" xmlns:xlink="http://www.w3.org/1999/xlink" width="5000" zoomAndPan="magnify" viewBox="0 0 3750 3749.999967" height="5000" preserveAspectRatio="xMidYMid meet" version="1.0"><defs><clipPath id="2ab5269978"><path d="M 19.628906 0 L 3730.628906 0 L 3730.628906 3711 L 19.628906 3711 Z M 19.628906 0 " clip-rule="nonzero"/></clipPath><clipPath id="006b145345"><path d="M 888 868 L 3044.152344 868 L 3044.152344 3038 L 888 3038 Z M 888 868 " clip-rule="nonzero"/></clipPath></defs><g clip-path="url(#2ab5269978)"><path fill="#e3ae0a" d="M 1874.996094 3710.730469 C 849.960938 3710.730469 19.628906 2874.671875 19.628906 1855.367188 C 19.628906 836.058594 849.960938 0 1874.996094 0 C 2900.027344 0 3730.359375 830.332031 3730.359375 1855.367188 C 3730.359375 2880.398438 2894.300781 3710.730469 1874.996094 3710.730469 Z M 1874.996094 114.527344 C 912.953125 114.527344 134.160156 893.324219 134.160156 1855.367188 C 134.160156 2817.40625 912.953125 3596.203125 1874.996094 3596.203125 C 2837.035156 3596.203125 3615.832031 2817.40625 3615.832031 1855.367188 C 3615.832031 893.324219 2831.308594 114.527344 1874.996094 114.527344 Z M 1874.996094 114.527344 " fill-opacity="1" fill-rule="nonzero"/></g><path fill="#e3ae0a" d="M 1587.976562 1449.167969 C 1545.328125 1449.167969 1510.769531 1483.757812 1510.769531 1526.378906 C 1510.769531 1569.027344 1545.328125 1603.585938 1587.976562 1603.585938 C 1630.628906 1603.585938 1665.183594 1569.027344 1665.183594 1526.378906 C 1665.183594 1483.757812 1630.628906 1449.167969 1587.976562 1449.167969 Z M 1587.976562 1542.039062 C 1579.328125 1542.039062 1572.3125 1535.023438 1572.3125 1526.378906 C 1572.3125 1517.730469 1579.328125 1510.714844 1587.976562 1510.714844 C 1596.625 1510.714844 1603.640625 1517.730469 1603.640625 1526.378906 C 1603.640625 1535.023438 1596.625 1542.039062 1587.976562 1542.039062 Z M 1587.976562 1542.039062 " fill-opacity="1" fill-rule="nonzero"/><path fill="#e3ae0a" d="M 1758.699219 1449.167969 C 1716.046875 1449.167969 1681.492188 1483.757812 1681.492188 1526.378906 C 1681.492188 1569.027344 1716.046875 1603.585938 1758.699219 1603.585938 C 1801.347656 1603.585938 1835.90625 1569.027344 1835.90625 1526.378906 C 1835.90625 1483.757812 1801.347656 1449.167969 1758.699219 1449.167969 Z M 1758.699219 1542.039062 C 1750.050781 1542.039062 1743.035156 1535.023438 1743.035156 1526.378906 C 1743.035156 1517.730469 1750.050781 1510.714844 1758.699219 1510.714844 C 1767.34375 1510.714844 1774.359375 1517.730469 1774.359375 1526.378906 C 1774.359375 1535.023438 1767.34375 1542.039062 1758.699219 1542.039062 Z M 1758.699219 1542.039062 " fill-opacity="1" fill-rule="nonzero"/><path fill="#e3ae0a" d="M 1929.421875 1449.167969 C 1886.773438 1449.167969 1852.214844 1483.757812 1852.214844 1526.378906 C 1852.214844 1569.027344 1886.773438 1603.585938 1929.421875 1603.585938 C 1972.074219 1603.585938 2006.628906 1569.027344 2006.628906 1526.378906 C 2006.628906 1483.757812 1972.074219 1449.167969 1929.421875 1449.167969 Z M 1929.421875 1542.039062 C 1920.773438 1542.039062 1913.757812 1535.023438 1913.757812 1526.378906 C 1913.757812 1517.730469 1920.773438 1510.714844 1929.421875 1510.714844 C 1938.070312 1510.714844 1945.085938 1517.730469 1945.085938 1526.378906 C 1945.085938 1535.023438 1938.070312 1542.039062 1929.421875 1542.039062 Z M 1929.421875 1542.039062 " fill-opacity="1" fill-rule="nonzero"/><path fill="#e3ae0a" d="M 2041.339844 2119.878906 C 1955.546875 2119.878906 1886.003906 2189.425781 1886.003906 2275.21875 C 1886.003906 2361.011719 1955.542969 2430.558594 2041.339844 2430.558594 C 2127.136719 2430.558594 2196.679688 2361.011719 2196.679688 2275.21875 C 2196.679688 2189.425781 2127.136719 2119.878906 2041.339844 2119.878906 Z M 2041.339844 2369.011719 C 1989.550781 2369.011719 1947.546875 2327.039062 1947.546875 2275.21875 C 1947.546875 2223.429688 1989.550781 2181.425781 2041.339844 2181.425781 C 2093.128906 2181.425781 2135.132812 2223.429688 2135.132812 2275.21875 C 2135.132812 2327.039062 2093.128906 2369.011719 2041.339844 2369.011719 Z M 2041.339844 2369.011719 " fill-opacity="1" fill-rule="nonzero"/><path fill="#e3ae0a" d="M 1047.890625 2683.933594 C 1059.832031 2696.058594 1079.308594 2696.183594 1091.402344 2684.242188 L 1175.59375 2601.1875 C 1187.6875 2589.25 1187.8125 2569.769531 1175.871094 2557.675781 L 1092.816406 2473.484375 C 1080.878906 2461.390625 1061.398438 2461.265625 1049.304688 2473.207031 C 1037.214844 2485.117188 1037.089844 2504.625 1049.03125 2516.71875 L 1110.449219 2578.972656 L 1048.199219 2640.421875 C 1036.074219 2652.363281 1035.953125 2671.839844 1047.890625 2683.933594 Z M 1047.890625 2683.933594 " fill-opacity="1" fill-rule="nonzero"/><path fill="#e3ae0a" d="M 1236.523438 2608.914062 L 1416.296875 2608.914062 C 1433.3125 2608.914062 1447.066406 2595.15625 1447.066406 2578.140625 C 1447.066406 2561.15625 1433.3125 2547.367188 1416.296875 2547.367188 L 1236.523438 2547.367188 C 1219.507812 2547.367188 1205.753906 2561.15625 1205.753906 2578.140625 C 1205.753906 2595.15625 1219.507812 2608.914062 1236.523438 2608.914062 Z M 1236.523438 2608.914062 " fill-opacity="1" fill-rule="nonzero"/><path fill="#e3ae0a" d="M 2453.132812 1621.710938 C 2464.980469 1633.894531 2484.460938 1634.171875 2496.675781 1622.324219 C 2508.863281 1610.476562 2509.140625 1591 2497.292969 1578.8125 L 2446.949219 1527.023438 L 2498.769531 1476.679688 C 2510.957031 1464.832031 2511.230469 1445.355469 2499.386719 1433.167969 C 2487.539062 1420.984375 2468.058594 1420.675781 2455.871094 1432.523438 L 2381.988281 1504.3125 C 2369.804688 1516.15625 2369.527344 1535.636719 2381.375 1547.824219 L 2453.132812 1621.707031 Z M 2453.132812 1621.710938 " fill-opacity="1" fill-rule="nonzero"/><path fill="#e3ae0a" d="M 2782.152344 1528.070312 L 2731.808594 1579.859375 C 2719.992188 1592.046875 2720.269531 1611.523438 2732.453125 1623.371094 C 2744.640625 1635.21875 2764.117188 1634.941406 2775.964844 1622.753906 L 2847.757812 1548.871094 C 2859.574219 1536.6875 2859.296875 1517.207031 2847.109375 1505.359375 L 2773.226562 1433.570312 C 2761.039062 1421.753906 2741.5625 1422.03125 2729.714844 1434.21875 C 2717.867188 1446.402344 2718.175781 1465.882812 2730.359375 1477.730469 L 2782.152344 1528.074219 Z M 2782.152344 1528.070312 " fill-opacity="1" fill-rule="nonzero"/><path fill="#e3ae0a" d="M 2569.023438 1647.25 C 2584.929688 1653.25 2602.6875 1645.21875 2608.65625 1629.308594 L 2678.046875 1445.136719 C 2684.019531 1429.230469 2675.988281 1411.503906 2660.078125 1405.503906 C 2644.167969 1399.507812 2626.441406 1407.535156 2620.441406 1423.445312 L 2551.082031 1607.617188 C 2545.082031 1623.523438 2553.113281 1641.28125 2569.023438 1647.25 Z M 2569.023438 1647.25 " fill-opacity="1" fill-rule="nonzero"/><g clip-path="url(#006b145345)"><path fill="#e3ae0a" d="M 2921.640625 920.71875 C 2852.34375 920.71875 2796.183594 976.910156 2796.183594 1046.207031 C 2796.183594 1057.851562 2798.28125 1068.910156 2801.246094 1079.605469 L 2752.300781 1105.445312 C 2742.207031 1110.769531 2735.867188 1121.261719 2735.867188 1132.648438 L 2735.867188 1253.339844 L 2651 1253.339844 L 2651 1114.972656 C 2705.335938 1101.179688 2745.683594 1052.351562 2745.683594 993.742188 C 2745.683594 924.441406 2689.527344 868.253906 2620.195312 868.253906 C 2550.867188 868.253906 2494.738281 924.441406 2494.738281 993.742188 C 2494.738281 1052.371094 2535.109375 1101.210938 2589.453125 1114.988281 L 2589.453125 1253.339844 L 2493.230469 1253.339844 L 2493.230469 1132.648438 C 2493.230469 1121.230469 2486.921875 1110.769531 2476.828125 1105.445312 L 2427.878906 1079.609375 C 2430.847656 1068.910156 2432.949219 1057.855469 2432.949219 1046.207031 C 2432.949219 976.910156 2376.757812 920.71875 2307.457031 920.71875 C 2238.160156 920.71875 2181.96875 976.910156 2181.96875 1046.207031 C 2181.96875 1115.507812 2238.160156 1171.667969 2307.457031 1171.667969 C 2342.90625 1171.667969 2374.777344 1156.847656 2397.597656 1133.214844 L 2431.6875 1151.203125 L 2431.6875 1253.335938 L 2338.691406 1253.335938 C 2304.71875 1253.335938 2277.148438 1280.875 2277.148438 1314.878906 L 2277.148438 1362.207031 L 1477.839844 1362.207031 C 1426.851562 1362.207031 1385.523438 1403.535156 1385.523438 1454.523438 L 1385.523438 2119.878906 L 1037.152344 2119.878906 C 1020.566406 2119.878906 1004.65625 2126.589844 993.085938 2138.46875 L 905.96875 2227.828125 C 894.769531 2239.308594 888.492188 2254.722656 888.492188 2270.789062 L 888.492188 2975.992188 C 888.492188 3009.996094 916.0625 3037.539062 950.035156 3037.539062 L 1510.765625 3037.539062 C 1544.769531 3037.539062 1572.308594 3009.996094 1572.308594 2975.992188 L 1572.308594 2323.191406 L 1705.589844 2323.191406 C 1703.113281 2374.503906 1739.289062 2427.105469 1802.515625 2428.554688 C 1826.089844 2429.109375 1843.414062 2450.835938 1838.707031 2473.945312 C 1818.058594 2575.0625 1946.132812 2636.730469 2012.320312 2557.554688 C 2027.429688 2539.460938 2055.25 2539.460938 2070.359375 2557.554688 C 2136.550781 2636.730469 2264.625 2575.0625 2243.976562 2473.945312 C 2239.265625 2450.835938 2256.59375 2429.109375 2280.164062 2428.554688 C 2343.390625 2427.105469 2379.566406 2374.503906 2377.09375 2323.191406 L 2604.839844 2323.191406 C 2655.832031 2323.191406 2697.15625 2281.867188 2697.15625 2230.875 L 2697.15625 1799.449219 L 2890.40625 1799.449219 C 2924.410156 1799.449219 2951.949219 1771.878906 2951.949219 1737.90625 L 2951.949219 1314.882812 C 2951.949219 1280.878906 2924.410156 1253.339844 2890.40625 1253.339844 L 2797.414062 1253.339844 L 2797.414062 1151.207031 L 2831.519531 1133.222656 C 2854.332031 1156.847656 2886.195312 1171.664062 2921.636719 1171.664062 C 2990.96875 1171.664062 3047.125 1115.507812 3047.125 1046.207031 C 3047.125 976.910156 2990.96875 920.71875 2921.636719 920.71875 Z M 2307.457031 1110.121094 C 2272.164062 1110.121094 2243.515625 1081.503906 2243.515625 1046.207031 C 2243.515625 1010.882812 2272.164062 982.261719 2307.457031 982.261719 C 2342.785156 982.261719 2371.402344 1010.882812 2371.402344 1046.207031 C 2371.402344 1081.503906 2342.785156 1110.121094 2307.457031 1110.121094 Z M 2556.28125 993.742188 C 2556.28125 958.445312 2584.902344 929.796875 2620.195312 929.796875 C 2655.523438 929.796875 2684.140625 958.445312 2684.140625 993.742188 C 2684.140625 1029.066406 2655.523438 1057.6875 2620.195312 1057.6875 C 2584.902344 1057.6875 2556.28125 1029.066406 2556.28125 993.742188 Z M 1447.066406 1454.523438 C 1447.066406 1437.539062 1460.855469 1423.753906 1477.839844 1423.753906 L 2277.148438 1423.753906 L 2277.148438 1631.925781 L 1447.066406 1631.925781 Z M 1510.765625 2975.996094 L 950.035156 2975.996094 L 950.035156 2270.789062 L 1037.152344 2181.425781 L 1510.765625 2181.425781 Z M 2278.75 2367.042969 C 2216.835938 2368.457031 2171.292969 2425.570312 2183.691406 2486.253906 C 2191.535156 2524.75 2142.761719 2548.230469 2117.59375 2518.074219 C 2077.867188 2470.5625 2004.8125 2470.5625 1965.082031 2518.074219 C 1939.882812 2548.230469 1891.136719 2524.75 1898.988281 2486.253906 C 1911.390625 2425.570312 1865.847656 2368.457031 1803.929688 2367.042969 C 1764.632812 2366.121094 1752.601562 2313.375 1787.59375 2295.527344 C 1842.765625 2267.371094 1859.015625 2196.164062 1821.535156 2146.835938 C 1797.746094 2115.574219 1831.503906 2073.261719 1867.261719 2089.507812 C 1923.667969 2115.082031 1989.488281 2083.386719 2004.660156 2023.316406 C 2014.292969 1985.253906 2068.390625 1985.253906 2078.019531 2023.316406 C 2093.191406 2083.386719 2159.011719 2115.082031 2215.417969 2089.507812 C 2251.175781 2073.261719 2284.933594 2115.574219 2261.144531 2146.835938 C 2223.664062 2196.164062 2239.914062 2267.371094 2295.089844 2295.527344 C 2330.078125 2313.375 2318.015625 2366.121094 2278.75 2367.042969 Z M 2635.613281 2230.875 C 2635.613281 2247.863281 2621.828125 2261.648438 2604.839844 2261.648438 L 2351.289062 2261.648438 C 2343.644531 2253.582031 2334.308594 2246.433594 2323.058594 2240.691406 C 2302.042969 2229.984375 2295.855469 2202.875 2310.136719 2184.097656 C 2372.601562 2101.96875 2283.980469 1990.820312 2190 2033.4375 C 2168.523438 2043.164062 2143.472656 2031.101562 2137.6875 2008.234375 C 2112.425781 1908.195312 1970.257812 1908.195312 1944.992188 2008.234375 C 1939.207031 2031.101562 1914.160156 2043.164062 1892.679688 2033.4375 C 1798.703125 1990.820312 1710.078125 2101.96875 1772.546875 2184.097656 C 1786.824219 2202.871094 1780.636719 2229.980469 1759.621094 2240.691406 C 1748.375 2246.433594 1739.035156 2253.578125 1731.390625 2261.648438 L 1572.308594 2261.648438 L 1572.308594 2181.425781 C 1572.308594 2147.453125 1544.769531 2119.878906 1510.765625 2119.878906 L 1447.066406 2119.878906 L 1447.066406 1693.46875 L 2277.148438 1693.46875 L 2277.148438 1737.90625 C 2277.148438 1771.878906 2304.71875 1799.449219 2338.691406 1799.449219 L 2635.613281 1799.449219 Z M 2890.40625 1314.878906 L 2890.40625 1737.902344 L 2338.691406 1737.902344 L 2338.691406 1314.878906 Z M 2921.640625 1110.117188 C 2886.34375 1110.117188 2857.726562 1081.5 2857.726562 1046.203125 C 2857.726562 1010.878906 2886.34375 982.261719 2921.640625 982.261719 C 2956.96875 982.261719 2985.585938 1010.878906 2985.585938 1046.203125 C 2985.585938 1081.5 2956.96875 1110.117188 2921.640625 1110.117188 Z M 2921.640625 1110.117188 " fill-opacity="1" fill-rule="nonzero"/></g><path fill="#e3ae0a" d="M 1371.890625 814.679688 L 1321.332031 881.453125 C 1311.054688 894.992188 1313.730469 914.289062 1327.273438 924.535156 C 1340.84375 934.8125 1360.136719 932.136719 1370.382812 918.59375 L 1420.941406 851.851562 C 1431.191406 838.3125 1428.542969 818.984375 1415.003906 808.738281 C 1401.433594 798.460938 1382.136719 801.140625 1371.890625 814.679688 Z M 1371.890625 814.679688 " fill-opacity="1" fill-rule="nonzero"/><path fill="#e3ae0a" d="M 960.375 1403.410156 C 984.347656 1422.429688 998.5625 1445.96875 998.5625 1468.957031 L 998.5625 1518.070312 C 998.5625 1556.183594 1021.671875 1588.871094 1054.628906 1602.960938 L 1054.628906 1613.125 C 1054.628906 1655.21875 1088.757812 1689.378906 1130.882812 1689.378906 C 1174.765625 1689.378906 1209.566406 1652.421875 1206.984375 1608.632812 L 1206.710938 1604.023438 C 1241.320312 1590.703125 1265.972656 1557.367188 1265.972656 1518.070312 L 1265.972656 1468.957031 C 1265.972656 1445.96875 1280.191406 1422.429688 1304.160156 1403.410156 C 1373.03125 1348.730469 1417.15625 1262.167969 1417.15625 1165.265625 C 1417.15625 1001.894531 1291.113281 866.652344 1132.269531 866.652344 C 973.421875 866.652344 847.378906 1001.894531 847.378906 1165.265625 C 847.378906 1262.167969 891.476562 1348.730469 960.375 1403.410156 Z M 1130.882812 1627.832031 C 1122.757812 1627.832031 1116.175781 1621.246094 1116.175781 1613.125 L 1116.175781 1610.386719 L 1145.449219 1610.386719 L 1145.5625 1612.261719 C 1146.054688 1620.695312 1139.347656 1627.832031 1130.882812 1627.832031 Z M 1204.429688 1518.070312 C 1204.429688 1535.054688 1190.644531 1548.839844 1173.65625 1548.839844 L 1090.878906 1548.839844 C 1073.863281 1548.839844 1060.109375 1535.054688 1060.109375 1518.070312 L 1060.109375 1476.15625 L 1204.429688 1476.15625 Z M 1132.269531 928.195312 C 1254.09375 928.195312 1355.613281 1032.792969 1355.613281 1165.265625 C 1355.613281 1243.335938 1320.101562 1312.171875 1265.882812 1355.222656 C 1246.757812 1370.394531 1228.824219 1390.585938 1217.292969 1414.613281 L 1047.238281 1414.613281 C 1035.695312 1390.585938 1017.761719 1370.394531 998.660156 1355.222656 C 944.40625 1312.171875 908.925781 1243.335938 908.925781 1165.265625 C 908.925781 1032.789062 1010.414062 928.195312 1132.269531 928.195312 Z M 1132.269531 928.195312 " fill-opacity="1" fill-rule="nonzero"/><path fill="#e3ae0a" d="M 1101.496094 740.148438 L 1101.496094 823.875 C 1101.496094 840.863281 1115.25 854.648438 1132.269531 854.648438 C 1149.253906 854.648438 1163.039062 840.863281 1163.039062 823.875 L 1163.039062 740.148438 C 1163.039062 723.128906 1149.253906 709.375 1132.269531 709.375 C 1115.25 709.375 1101.496094 723.128906 1101.496094 740.148438 Z M 1101.496094 740.148438 " fill-opacity="1" fill-rule="nonzero"/><path fill="#e3ae0a" d="M 851.503906 806.152344 C 837.964844 816.402344 835.316406 835.726562 845.5625 849.265625 L 896.121094 916.011719 C 906.371094 929.550781 925.664062 932.226562 939.234375 921.949219 C 952.773438 911.703125 955.453125 892.410156 945.171875 878.867188 L 894.613281 812.09375 C 884.367188 798.554688 865.074219 795.90625 851.503906 806.152344 Z M 851.503906 806.152344 " fill-opacity="1" fill-rule="nonzero"/><path fill="#e3ae0a" d="M 1467.253906 1067.378906 C 1450.390625 1069.472656 1438.390625 1084.828125 1440.453125 1101.691406 C 1442.511719 1118.554688 1457.867188 1130.554688 1474.730469 1128.492188 L 1557.847656 1118.277344 C 1574.710938 1116.214844 1586.710938 1100.859375 1584.652344 1083.996094 C 1582.589844 1067.132812 1567.234375 1055.132812 1550.371094 1057.195312 Z M 1467.253906 1067.378906 " fill-opacity="1" fill-rule="nonzero"/><path fill="#e3ae0a" d="M 826.667969 1062.300781 L 743.554688 1052.117188 C 726.691406 1050.019531 711.335938 1062.023438 709.242188 1078.886719 C 707.179688 1095.78125 719.183594 1111.136719 736.046875 1113.199219 L 819.160156 1123.382812 C 836.023438 1125.445312 851.378906 1113.445312 853.441406 1096.582031 C 855.535156 1079.71875 843.53125 1064.363281 826.667969 1062.300781 Z M 826.667969 1062.300781 " fill-opacity="1" fill-rule="nonzero"/><path fill="#e3ae0a" d="M 2858.496094 2796.808594 L 2782.828125 2796.808594 C 2780.078125 2796.808594 2777.457031 2797.269531 2774.804688 2797.617188 C 2779.761719 2788.75 2782.828125 2778.675781 2782.828125 2767.789062 L 2782.828125 2692.121094 C 2782.828125 2658.117188 2755.253906 2630.574219 2721.285156 2630.574219 L 2645.582031 2630.574219 C 2642.367188 2630.574219 2639.277344 2631.046875 2636.191406 2631.523438 C 2641.195312 2622.625 2644.292969 2612.5 2644.292969 2601.558594 L 2644.292969 2525.859375 C 2644.292969 2491.886719 2616.71875 2464.3125 2582.746094 2464.3125 L 2507.046875 2464.3125 C 2473.042969 2464.3125 2445.503906 2491.886719 2445.503906 2525.859375 L 2445.503906 2601.558594 C 2445.503906 2619.554688 2453.351562 2635.589844 2465.652344 2646.839844 C 2453.351562 2658.089844 2445.503906 2674.125 2445.503906 2692.121094 L 2445.503906 2767.789062 C 2445.503906 2785.789062 2453.351562 2801.828125 2465.660156 2813.078125 C 2453.351562 2824.332031 2445.503906 2840.367188 2445.503906 2858.351562 L 2445.503906 2934.050781 C 2445.503906 2968.054688 2473.042969 2995.59375 2507.046875 2995.59375 L 2582.746094 2995.59375 C 2594.273438 2995.59375 2604.941406 2992.226562 2614.164062 2986.707031 C 2623.390625 2992.226562 2634.054688 2995.59375 2645.582031 2995.59375 L 2721.285156 2995.59375 C 2732.546875 2995.59375 2742.964844 2992.347656 2752.050781 2987.0625 C 2761.132812 2992.347656 2771.554688 2995.59375 2782.828125 2995.59375 L 2858.496094 2995.59375 C 2892.5 2995.59375 2920.039062 2968.054688 2920.039062 2934.050781 L 2920.039062 2858.351562 C 2920.039062 2824.378906 2892.5 2796.808594 2858.496094 2796.808594 Z M 2582.746094 2934.050781 L 2507.046875 2934.050781 L 2507.046875 2858.351562 L 2582.746094 2858.351562 Z M 2582.746094 2767.789062 L 2507.046875 2767.789062 L 2507.046875 2692.121094 L 2582.746094 2692.121094 Z M 2582.746094 2601.558594 L 2507.046875 2601.558594 L 2507.046875 2525.859375 L 2582.746094 2525.859375 Z M 2721.285156 2934.050781 L 2645.582031 2934.050781 L 2645.582031 2858.351562 L 2721.285156 2858.351562 Z M 2721.285156 2767.789062 L 2645.582031 2767.789062 L 2645.582031 2692.121094 L 2721.285156 2692.121094 Z M 2858.496094 2934.050781 L 2782.828125 2934.050781 L 2782.828125 2858.351562 L 2858.496094 2858.351562 Z M 2858.496094 2934.050781 " fill-opacity="1" fill-rule="nonzero"/></svg>