<svg xmlns="http://www.w3.org/2000/svg" xmlns:xlink="http://www.w3.org/1999/xlink" width="500" zoomAndPan="magnify" viewBox="0 0 375 374.999991" height="500" preserveAspectRatio="xMidYMid meet" version="1.0"><defs><g/><clipPath id="f77121319b"><path d="M 124.042969 121 L 154 121 L 154 151 L 124.042969 151 Z M 124.042969 121 " clip-rule="nonzero"/></clipPath><clipPath id="dc1e9a171d"><path d="M 196 78.628906 L 227 78.628906 L 227 109 L 196 109 Z M 196 78.628906 " clip-rule="nonzero"/></clipPath><clipPath id="4bf8ff0e58"><path d="M 196 121 L 250.792969 121 L 250.792969 193.378906 L 196 193.378906 Z M 196 121 " clip-rule="nonzero"/></clipPath><clipPath id="d755c7b27e"><path d="M 148 78.628906 L 203 78.628906 L 203 193.378906 L 148 193.378906 Z M 148 78.628906 " clip-rule="nonzero"/></clipPath></defs><g clip-path="url(#f77121319b)"><path fill="#f5f5f5" d="M 124.042969 136.003906 C 124.042969 127.75 130.722656 121.074219 138.9375 121.074219 C 147.175781 121.074219 153.835938 127.769531 153.835938 136.003906 C 153.835938 144.261719 147.15625 150.933594 138.9375 150.933594 C 130.703125 150.933594 124.042969 144.238281 124.042969 136.003906 Z M 124.042969 136.003906 " fill-opacity="1" fill-rule="evenodd"/></g><g clip-path="url(#dc1e9a171d)"><path fill="#f5f5f5" d="M 204.199219 106.863281 C 197.070312 102.734375 194.628906 93.613281 198.75 86.46875 C 202.867188 79.320312 211.964844 76.875 219.09375 81.003906 C 226.226562 85.132812 228.664062 94.25 224.546875 101.398438 C 220.425781 108.546875 211.328125 110.988281 204.199219 106.863281 Z M 204.199219 106.863281 " fill-opacity="1" fill-rule="evenodd"/></g><g clip-path="url(#4bf8ff0e58)"><path fill="#f5f5f5" d="M 233.601562 150.769531 L 223.253906 168.71875 C 223.726562 169.316406 224.15625 169.953125 224.546875 170.628906 C 228.664062 177.777344 226.226562 186.894531 219.09375 191.023438 C 211.964844 195.152344 202.867188 192.707031 198.75 185.5625 C 194.628906 178.414062 197.070312 169.296875 204.199219 165.167969 C 207.273438 163.402344 210.695312 162.847656 213.953125 163.339844 L 224.300781 145.390625 C 222.230469 142.824219 221 139.578125 221 136.023438 C 221 127.769531 227.679688 121.09375 235.898438 121.09375 C 244.132812 121.09375 250.792969 127.789062 250.792969 136.023438 C 250.792969 144.28125 244.113281 150.957031 235.898438 150.957031 C 235.117188 150.957031 234.339844 150.894531 233.601562 150.769531 Z M 233.601562 150.769531 " fill-opacity="1" fill-rule="evenodd"/></g><g clip-path="url(#d755c7b27e)"><path fill="#246fb5" d="M 165.472656 108.6875 C 159.574219 109.613281 153.445312 106.902344 150.269531 101.398438 C 146.152344 94.25 148.589844 85.132812 155.71875 81.003906 C 162.851562 76.875 171.949219 79.320312 176.066406 86.46875 C 179.242188 91.972656 178.527344 98.644531 174.777344 103.308594 L 185.125 121.257812 C 185.859375 121.136719 186.640625 121.074219 187.417969 121.074219 C 195.65625 121.074219 202.3125 127.769531 202.3125 136.003906 C 202.3125 144.261719 195.632812 150.933594 187.417969 150.933594 C 186.640625 150.933594 185.882812 150.875 185.144531 150.75 L 174.796875 168.71875 C 178.546875 173.382812 179.261719 180.058594 176.085938 185.539062 C 171.96875 192.6875 162.871094 195.132812 155.742188 191.003906 C 148.609375 186.875 146.171875 177.757812 150.289062 170.609375 C 153.445312 165.105469 159.574219 162.394531 165.472656 163.320312 L 175.820312 145.347656 C 173.773438 142.78125 172.523438 139.535156 172.523438 135.984375 C 172.523438 132.429688 173.75 129.1875 175.820312 126.617188 L 165.472656 108.667969 Z M 165.472656 108.6875 " fill-opacity="1" fill-rule="evenodd"/></g><g fill="#246fb5" fill-opacity="1"><g transform="translate(50.978941, 250.460756)"><g><path d="M 28.296875 -21.234375 C 28.148438 -21.148438 28.078125 -21.050781 28.078125 -20.9375 C 28.078125 -20.820312 28.148438 -20.722656 28.296875 -20.640625 C 31.742188 -18.828125 33.46875 -15.773438 33.46875 -11.484375 C 33.46875 -7.617188 32.132812 -4.738281 29.46875 -2.84375 C 26.800781 -0.945312 23.300781 0 18.96875 0 L 3.890625 0 C 3.578125 0 3.320312 -0.09375 3.125 -0.28125 C 2.9375 -0.476562 2.84375 -0.734375 2.84375 -1.046875 L 2.84375 -39.5625 C 2.84375 -39.863281 2.9375 -40.109375 3.125 -40.296875 C 3.320312 -40.492188 3.578125 -40.59375 3.890625 -40.59375 L 18.5 -40.59375 C 23.21875 -40.59375 26.785156 -39.703125 29.203125 -37.921875 C 31.617188 -36.148438 32.828125 -33.273438 32.828125 -29.296875 C 32.828125 -25.503906 31.316406 -22.816406 28.296875 -21.234375 Z M 12.875 -32.359375 C 12.601562 -32.359375 12.46875 -32.222656 12.46875 -31.953125 L 12.46875 -24.875 C 12.46875 -24.601562 12.601562 -24.46875 12.875 -24.46875 L 18.5 -24.46875 C 20.082031 -24.46875 21.300781 -24.804688 22.15625 -25.484375 C 23.007812 -26.160156 23.4375 -27.117188 23.4375 -28.359375 C 23.4375 -29.640625 23.007812 -30.625 22.15625 -31.3125 C 21.300781 -32.007812 20.082031 -32.359375 18.5 -32.359375 Z M 18.96875 -8.296875 C 20.507812 -8.296875 21.707031 -8.648438 22.5625 -9.359375 C 23.414062 -10.078125 23.84375 -11.113281 23.84375 -12.46875 C 23.84375 -13.78125 23.425781 -14.796875 22.59375 -15.515625 C 21.757812 -16.234375 20.550781 -16.59375 18.96875 -16.59375 L 12.875 -16.59375 C 12.601562 -16.59375 12.46875 -16.457031 12.46875 -16.1875 L 12.46875 -8.703125 C 12.46875 -8.429688 12.601562 -8.296875 12.875 -8.296875 Z M 18.96875 -8.296875 "/></g></g></g><g fill="#246fb5" fill-opacity="1"><g transform="translate(86.762566, 250.460756)"><g><path d="M 17.515625 -7.71875 C 18.710938 -7.71875 19.820312 -7.898438 20.84375 -8.265625 C 21.875 -8.628906 22.738281 -9.125 23.4375 -9.75 C 23.664062 -10.019531 23.914062 -10.15625 24.1875 -10.15625 C 24.414062 -10.15625 24.644531 -10.019531 24.875 -9.75 L 28.484375 -5.453125 C 28.710938 -5.179688 28.828125 -4.929688 28.828125 -4.703125 C 28.828125 -4.429688 28.710938 -4.175781 28.484375 -3.9375 C 27.160156 -2.550781 25.492188 -1.46875 23.484375 -0.6875 C 21.472656 0.0820312 19.328125 0.46875 17.046875 0.46875 C 14.421875 0.46875 12.09375 -0.00390625 10.0625 -0.953125 C 8.03125 -1.898438 6.359375 -3.226562 5.046875 -4.9375 C 2.921875 -7.632812 1.859375 -11.070312 1.859375 -15.25 C 1.859375 -17.101562 2.070312 -18.84375 2.5 -20.46875 C 3.34375 -23.488281 5 -25.914062 7.46875 -27.75 C 9.945312 -29.59375 12.851562 -30.515625 16.1875 -30.515625 C 20.050781 -30.515625 23.171875 -29.3125 25.546875 -26.90625 C 27.921875 -24.507812 29.476562 -21.164062 30.21875 -16.875 C 30.375 -15.789062 30.488281 -14.613281 30.5625 -13.34375 C 30.5625 -12.644531 30.210938 -12.296875 29.515625 -12.296875 L 12 -12.296875 C 11.882812 -12.296875 11.78125 -12.253906 11.6875 -12.171875 C 11.59375 -12.097656 11.5625 -11.984375 11.59375 -11.828125 L 11.953125 -10.671875 C 12.335938 -9.742188 13.007812 -9.019531 13.96875 -8.5 C 14.9375 -7.976562 16.117188 -7.71875 17.515625 -7.71875 Z M 16.015625 -22.21875 C 14.035156 -22.21875 12.695312 -21.269531 12 -19.375 C 11.851562 -18.988281 11.757812 -18.695312 11.71875 -18.5 L 11.71875 -18.390625 C 11.71875 -18.148438 11.851562 -18.03125 12.125 -18.03125 L 20.0625 -18.03125 C 20.21875 -18.03125 20.320312 -18.078125 20.375 -18.171875 C 20.4375 -18.273438 20.453125 -18.382812 20.421875 -18.5 L 20.1875 -19.25 C 19.875 -20.175781 19.367188 -20.898438 18.671875 -21.421875 C 17.972656 -21.953125 17.085938 -22.21875 16.015625 -22.21875 Z M 16.015625 -22.21875 "/></g></g></g><g fill="#246fb5" fill-opacity="1"><g transform="translate(118.776437, 250.460756)"><g><path d="M 19.375 -30.453125 C 22.382812 -30.453125 24.847656 -29.492188 26.765625 -27.578125 C 28.679688 -25.660156 29.640625 -23.0625 29.640625 -19.78125 L 29.640625 -1.046875 C 29.640625 -0.734375 29.539062 -0.476562 29.34375 -0.28125 C 29.15625 -0.09375 28.90625 0 28.59375 0 L 21.046875 0 C 20.742188 0 20.492188 -0.09375 20.296875 -0.28125 C 20.109375 -0.476562 20.015625 -0.734375 20.015625 -1.046875 L 20.015625 -17.6875 C 20.015625 -19.039062 19.65625 -20.132812 18.9375 -20.96875 C 18.21875 -21.800781 17.257812 -22.21875 16.0625 -22.21875 C 14.863281 -22.21875 13.894531 -21.800781 13.15625 -20.96875 C 12.425781 -20.132812 12.0625 -19.039062 12.0625 -17.6875 L 12.0625 -1.046875 C 12.0625 -0.734375 11.960938 -0.476562 11.765625 -0.28125 C 11.578125 -0.09375 11.328125 0 11.015625 0 L 3.484375 0 C 3.171875 0 2.914062 -0.09375 2.71875 -0.28125 C 2.53125 -0.476562 2.4375 -0.734375 2.4375 -1.046875 L 2.4375 -28.9375 C 2.4375 -29.25 2.53125 -29.5 2.71875 -29.6875 C 2.914062 -29.882812 3.171875 -29.984375 3.484375 -29.984375 L 11.015625 -29.984375 C 11.328125 -29.984375 11.578125 -29.882812 11.765625 -29.6875 C 11.960938 -29.5 12.0625 -29.25 12.0625 -28.9375 L 12.0625 -27.3125 C 12.0625 -27.125 12.109375 -27.007812 12.203125 -26.96875 C 12.304688 -26.925781 12.394531 -26.984375 12.46875 -27.140625 C 14.050781 -29.347656 16.351562 -30.453125 19.375 -30.453125 Z M 19.375 -30.453125 "/></g></g></g><g fill="#246fb5" fill-opacity="1"><g transform="translate(150.674324, 250.460756)"><g><path d="M 16.234375 0.46875 C 13.066406 0.46875 10.289062 -0.320312 7.90625 -1.90625 C 5.53125 -3.5 3.84375 -5.6875 2.84375 -8.46875 C 2.101562 -10.320312 1.734375 -12.546875 1.734375 -15.140625 C 1.734375 -17.734375 2.101562 -19.957031 2.84375 -21.8125 C 3.8125 -24.519531 5.492188 -26.632812 7.890625 -28.15625 C 10.285156 -29.6875 13.066406 -30.453125 16.234375 -30.453125 C 19.441406 -30.453125 22.265625 -29.65625 24.703125 -28.0625 C 27.140625 -26.476562 28.785156 -24.472656 29.640625 -22.046875 C 29.867188 -21.421875 30.023438 -20.78125 30.109375 -20.125 L 30.109375 -19.890625 C 30.109375 -19.390625 29.796875 -19.082031 29.171875 -18.96875 L 21.8125 -17.859375 L 21.515625 -17.8125 C 21.015625 -17.8125 20.722656 -18.039062 20.640625 -18.5 L 20.421875 -19.3125 C 20.179688 -20.164062 19.675781 -20.863281 18.90625 -21.40625 C 18.132812 -21.945312 17.226562 -22.21875 16.1875 -22.21875 C 14.132812 -22.21875 12.78125 -21.304688 12.125 -19.484375 C 11.695312 -18.398438 11.484375 -16.929688 11.484375 -15.078125 C 11.484375 -13.421875 11.675781 -11.972656 12.0625 -10.734375 C 12.800781 -8.753906 14.175781 -7.765625 16.1875 -7.765625 C 17.1875 -7.765625 18.046875 -8.015625 18.765625 -8.515625 C 19.484375 -9.023438 20.015625 -9.765625 20.359375 -10.734375 L 20.421875 -11.015625 C 20.453125 -11.210938 20.59375 -11.414062 20.84375 -11.625 C 21.101562 -11.84375 21.367188 -11.929688 21.640625 -11.890625 L 29.0625 -10.734375 C 29.757812 -10.617188 30.046875 -10.226562 29.921875 -9.5625 C 29.847656 -8.945312 29.753906 -8.46875 29.640625 -8.125 C 28.710938 -5.414062 27.039062 -3.304688 24.625 -1.796875 C 22.207031 -0.285156 19.410156 0.46875 16.234375 0.46875 Z M 16.234375 0.46875 "/></g></g></g><g fill="#246fb5" fill-opacity="1"><g transform="translate(182.22423, 250.460756)"><g><path d="M 19.375 -30.453125 C 22.382812 -30.453125 24.847656 -29.492188 26.765625 -27.578125 C 28.679688 -25.660156 29.640625 -23.0625 29.640625 -19.78125 L 29.640625 -1.046875 C 29.640625 -0.734375 29.539062 -0.476562 29.34375 -0.28125 C 29.15625 -0.09375 28.90625 0 28.59375 0 L 21.046875 0 C 20.742188 0 20.492188 -0.09375 20.296875 -0.28125 C 20.109375 -0.476562 20.015625 -0.734375 20.015625 -1.046875 L 20.015625 -17.6875 C 20.015625 -19.039062 19.65625 -20.132812 18.9375 -20.96875 C 18.21875 -21.800781 17.257812 -22.21875 16.0625 -22.21875 C 14.863281 -22.21875 13.894531 -21.800781 13.15625 -20.96875 C 12.425781 -20.132812 12.0625 -19.039062 12.0625 -17.6875 L 12.0625 -1.046875 C 12.0625 -0.734375 11.960938 -0.476562 11.765625 -0.28125 C 11.578125 -0.09375 11.328125 0 11.015625 0 L 3.484375 0 C 3.171875 0 2.914062 -0.09375 2.71875 -0.28125 C 2.53125 -0.476562 2.4375 -0.734375 2.4375 -1.046875 L 2.4375 -39.5625 C 2.4375 -39.863281 2.53125 -40.109375 2.71875 -40.296875 C 2.914062 -40.492188 3.171875 -40.59375 3.484375 -40.59375 L 11.015625 -40.59375 C 11.328125 -40.59375 11.578125 -40.492188 11.765625 -40.296875 C 11.960938 -40.109375 12.0625 -39.863281 12.0625 -39.5625 L 12.0625 -27.3125 C 12.0625 -27.125 12.109375 -27.007812 12.203125 -26.96875 C 12.304688 -26.925781 12.394531 -26.984375 12.46875 -27.140625 C 14.050781 -29.347656 16.351562 -30.453125 19.375 -30.453125 Z M 19.375 -30.453125 "/></g></g></g><g fill="#246fb5" fill-opacity="1"><g transform="translate(214.122116, 250.460756)"><g><path d="M 3.9375 0 C 3.632812 0 3.382812 -0.09375 3.1875 -0.28125 C 3 -0.476562 2.90625 -0.734375 2.90625 -1.046875 L 2.90625 -39.5625 C 2.90625 -39.863281 3 -40.109375 3.1875 -40.296875 C 3.382812 -40.492188 3.632812 -40.59375 3.9375 -40.59375 L 11.421875 -40.59375 C 11.960938 -40.59375 12.367188 -40.363281 12.640625 -39.90625 L 20.359375 -27.4375 C 20.546875 -27.164062 20.738281 -27.164062 20.9375 -27.4375 L 28.703125 -39.90625 C 28.972656 -40.363281 29.378906 -40.59375 29.921875 -40.59375 L 37.40625 -40.59375 C 37.71875 -40.59375 37.96875 -40.492188 38.15625 -40.296875 C 38.351562 -40.109375 38.453125 -39.863281 38.453125 -39.5625 L 38.453125 -1.046875 C 38.453125 -0.734375 38.351562 -0.476562 38.15625 -0.28125 C 37.96875 -0.09375 37.71875 0 37.40625 0 L 29.875 0 C 29.5625 0 29.304688 -0.09375 29.109375 -0.28125 C 28.921875 -0.476562 28.828125 -0.734375 28.828125 -1.046875 L 28.828125 -23.71875 C 28.828125 -23.914062 28.769531 -24.03125 28.65625 -24.0625 C 28.539062 -24.101562 28.441406 -24.03125 28.359375 -23.84375 L 23.65625 -16.1875 C 23.394531 -15.71875 22.992188 -15.484375 22.453125 -15.484375 L 18.90625 -15.484375 C 18.363281 -15.484375 17.957031 -15.71875 17.6875 -16.1875 L 12.984375 -23.84375 C 12.910156 -24.03125 12.816406 -24.101562 12.703125 -24.0625 C 12.585938 -24.03125 12.53125 -23.914062 12.53125 -23.71875 L 12.53125 -1.046875 C 12.53125 -0.734375 12.429688 -0.476562 12.234375 -0.28125 C 12.046875 -0.09375 11.796875 0 11.484375 0 Z M 3.9375 0 "/></g></g></g><g fill="#246fb5" fill-opacity="1"><g transform="translate(255.47336, 250.460756)"><g><path d="M 3.890625 0 C 3.578125 0 3.320312 -0.09375 3.125 -0.28125 C 2.9375 -0.476562 2.84375 -0.734375 2.84375 -1.046875 L 2.84375 -39.5625 C 2.84375 -39.863281 2.9375 -40.109375 3.125 -40.296875 C 3.320312 -40.492188 3.578125 -40.59375 3.890625 -40.59375 L 11.421875 -40.59375 C 11.734375 -40.59375 11.984375 -40.492188 12.171875 -40.296875 C 12.367188 -40.109375 12.46875 -39.863281 12.46875 -39.5625 L 12.46875 -8.640625 C 12.46875 -8.367188 12.601562 -8.234375 12.875 -8.234375 L 30.90625 -8.234375 C 31.21875 -8.234375 31.46875 -8.132812 31.65625 -7.9375 C 31.851562 -7.75 31.953125 -7.5 31.953125 -7.1875 L 31.953125 -1.046875 C 31.953125 -0.734375 31.851562 -0.476562 31.65625 -0.28125 C 31.46875 -0.09375 31.21875 0 30.90625 0 Z M 3.890625 0 "/></g></g></g><g fill="#246fb5" fill-opacity="1"><g transform="translate(288.705169, 250.460756)"><g><path d="M 17.75 0.46875 C 14.65625 0.46875 11.9375 -0.128906 9.59375 -1.328125 C 7.257812 -2.523438 5.441406 -4.226562 4.140625 -6.4375 C 2.847656 -8.644531 2.203125 -11.195312 2.203125 -14.09375 L 2.203125 -26.625 C 2.203125 -29.476562 2.847656 -32 4.140625 -34.1875 C 5.441406 -36.375 7.257812 -38.066406 9.59375 -39.265625 C 11.9375 -40.460938 14.65625 -41.0625 17.75 -41.0625 C 20.84375 -41.0625 23.554688 -40.488281 25.890625 -39.34375 C 28.234375 -38.207031 30.050781 -36.601562 31.34375 -34.53125 C 32.644531 -32.46875 33.296875 -30.082031 33.296875 -27.375 C 33.296875 -27.03125 32.96875 -26.816406 32.3125 -26.734375 L 24.765625 -26.21875 L 24.46875 -26.21875 C 23.925781 -26.21875 23.65625 -26.3125 23.65625 -26.5 L 23.65625 -26.859375 C 23.65625 -28.671875 23.113281 -30.117188 22.03125 -31.203125 C 20.957031 -32.285156 19.53125 -32.828125 17.75 -32.828125 C 15.96875 -32.828125 14.535156 -32.273438 13.453125 -31.171875 C 12.367188 -30.066406 11.828125 -28.628906 11.828125 -26.859375 L 11.828125 -13.6875 C 11.828125 -11.90625 12.367188 -10.472656 13.453125 -9.390625 C 14.535156 -8.304688 15.96875 -7.765625 17.75 -7.765625 C 19.53125 -7.765625 20.957031 -8.304688 22.03125 -9.390625 C 23.113281 -10.472656 23.65625 -11.90625 23.65625 -13.6875 C 23.65625 -13.914062 23.742188 -14.085938 23.921875 -14.203125 C 24.097656 -14.328125 24.359375 -14.367188 24.703125 -14.328125 L 32.3125 -13.921875 C 32.96875 -13.835938 33.296875 -13.738281 33.296875 -13.625 L 33.296875 -13.34375 C 33.296875 -10.59375 32.644531 -8.171875 31.34375 -6.078125 C 30.050781 -3.992188 28.234375 -2.378906 25.890625 -1.234375 C 23.554688 -0.0976562 20.84375 0.46875 17.75 0.46875 Z M 17.75 0.46875 "/></g></g></g><g fill="#f5f5f5" fill-opacity="1"><g transform="translate(82.627462, 284.220099)"><g><path d="M 1.765625 0 C 1.554688 0 1.453125 -0.101562 1.453125 -0.3125 L 1.453125 -13.578125 C 1.453125 -13.796875 1.554688 -13.90625 1.765625 -13.90625 L 3.453125 -13.90625 C 3.640625 -13.90625 3.773438 -13.832031 3.859375 -13.6875 L 6.953125 -8.671875 C 6.972656 -8.640625 7 -8.625 7.03125 -8.625 C 7.070312 -8.625 7.097656 -8.640625 7.109375 -8.671875 L 10.25 -13.6875 C 10.320312 -13.832031 10.453125 -13.90625 10.640625 -13.90625 L 12.3125 -13.90625 C 12.519531 -13.90625 12.625 -13.796875 12.625 -13.578125 L 12.625 -0.3125 C 12.625 -0.101562 12.519531 0 12.3125 0 L 10.640625 0 C 10.429688 0 10.328125 -0.101562 10.328125 -0.3125 L 10.328125 -9.71875 C 10.328125 -9.769531 10.3125 -9.800781 10.28125 -9.8125 C 10.25 -9.820312 10.21875 -9.800781 10.1875 -9.75 L 7.828125 -5.875 C 7.742188 -5.726562 7.609375 -5.65625 7.421875 -5.65625 L 6.65625 -5.65625 C 6.46875 -5.65625 6.332031 -5.726562 6.25 -5.875 L 3.890625 -9.75 C 3.867188 -9.800781 3.835938 -9.820312 3.796875 -9.8125 C 3.765625 -9.800781 3.75 -9.769531 3.75 -9.71875 L 3.75 -0.3125 C 3.75 -0.101562 3.644531 0 3.4375 0 Z M 1.765625 0 "/></g></g></g><g fill="#f5f5f5" fill-opacity="1"><g transform="translate(96.702218, 284.220099)"><g><path d="M 1.765625 0 C 1.554688 0 1.453125 -0.101562 1.453125 -0.3125 L 1.453125 -13.578125 C 1.453125 -13.796875 1.554688 -13.90625 1.765625 -13.90625 L 3.4375 -13.90625 C 3.644531 -13.90625 3.75 -13.796875 3.75 -13.578125 L 3.75 -2.109375 C 3.75 -2.023438 3.789062 -1.984375 3.875 -1.984375 L 10.421875 -1.984375 C 10.640625 -1.984375 10.75 -1.878906 10.75 -1.671875 L 10.75 -0.3125 C 10.75 -0.101562 10.640625 0 10.421875 0 Z M 1.765625 0 "/></g></g></g><g fill="#f5f5f5" fill-opacity="1"><g transform="translate(108.037464, 284.220099)"><g><path d="M 6.09375 0.15625 C 5.101562 0.15625 4.226562 -0.0351562 3.46875 -0.421875 C 2.71875 -0.816406 2.132812 -1.363281 1.71875 -2.0625 C 1.3125 -2.769531 1.109375 -3.585938 1.109375 -4.515625 L 1.109375 -9.40625 C 1.109375 -10.332031 1.3125 -11.144531 1.71875 -11.84375 C 2.132812 -12.550781 2.71875 -13.097656 3.46875 -13.484375 C 4.226562 -13.867188 5.101562 -14.0625 6.09375 -14.0625 C 7.070312 -14.0625 7.9375 -13.875 8.6875 -13.5 C 9.445312 -13.132812 10.03125 -12.613281 10.4375 -11.9375 C 10.851562 -11.257812 11.0625 -10.476562 11.0625 -9.59375 C 11.0625 -9.457031 10.960938 -9.378906 10.765625 -9.359375 L 9.078125 -9.25 L 9 -9.25 C 8.84375 -9.25 8.765625 -9.285156 8.765625 -9.359375 L 8.765625 -9.46875 C 8.765625 -10.25 8.519531 -10.878906 8.03125 -11.359375 C 7.550781 -11.835938 6.90625 -12.078125 6.09375 -12.078125 C 5.289062 -12.078125 4.644531 -11.835938 4.15625 -11.359375 C 3.664062 -10.878906 3.421875 -10.25 3.421875 -9.46875 L 3.421875 -4.40625 C 3.421875 -3.632812 3.664062 -3.007812 4.15625 -2.53125 C 4.644531 -2.0625 5.289062 -1.828125 6.09375 -1.828125 C 6.90625 -1.828125 7.550781 -2.0625 8.03125 -2.53125 C 8.519531 -3 8.765625 -3.625 8.765625 -4.40625 C 8.765625 -4.476562 8.789062 -4.535156 8.84375 -4.578125 C 8.90625 -4.617188 8.984375 -4.632812 9.078125 -4.625 L 10.75 -4.546875 C 10.957031 -4.523438 11.0625 -4.492188 11.0625 -4.453125 L 11.0625 -4.34375 C 11.0625 -3.445312 10.851562 -2.65625 10.4375 -1.96875 C 10.03125 -1.289062 9.445312 -0.765625 8.6875 -0.390625 C 7.9375 -0.0234375 7.070312 0.15625 6.09375 0.15625 Z M 6.09375 0.15625 "/></g></g></g><g fill="#f5f5f5" fill-opacity="1"><g transform="translate(120.107215, 284.220099)"><g/></g></g><g fill="#f5f5f5" fill-opacity="1"><g transform="translate(124.077525, 284.220099)"><g><path d="M 9.796875 -7.53125 C 10.015625 -6.851562 10.125 -6.046875 10.125 -5.109375 C 10.125 -4.191406 10.003906 -3.363281 9.765625 -2.625 C 9.472656 -1.757812 8.992188 -1.078125 8.328125 -0.578125 C 7.671875 -0.0859375 6.878906 0.15625 5.953125 0.15625 C 5.015625 0.15625 4.257812 -0.1875 3.6875 -0.875 C 3.664062 -0.925781 3.640625 -0.941406 3.609375 -0.921875 C 3.578125 -0.910156 3.5625 -0.878906 3.5625 -0.828125 L 3.5625 -0.3125 C 3.5625 -0.101562 3.453125 0 3.234375 0 L 1.5625 0 C 1.351562 0 1.25 -0.101562 1.25 -0.3125 L 1.25 -13.578125 C 1.25 -13.796875 1.351562 -13.90625 1.5625 -13.90625 L 3.234375 -13.90625 C 3.453125 -13.90625 3.5625 -13.796875 3.5625 -13.578125 L 3.5625 -9.375 C 3.5625 -9.320312 3.578125 -9.289062 3.609375 -9.28125 C 3.640625 -9.28125 3.664062 -9.296875 3.6875 -9.328125 C 4.269531 -9.984375 5.023438 -10.3125 5.953125 -10.3125 C 6.921875 -10.3125 7.726562 -10.066406 8.375 -9.578125 C 9.03125 -9.085938 9.503906 -8.40625 9.796875 -7.53125 Z M 7.265625 -2.796875 C 7.585938 -3.359375 7.75 -4.113281 7.75 -5.0625 C 7.75 -6.09375 7.554688 -6.898438 7.171875 -7.484375 C 6.796875 -8.046875 6.265625 -8.328125 5.578125 -8.328125 C 4.941406 -8.328125 4.445312 -8.035156 4.09375 -7.453125 C 3.757812 -6.910156 3.59375 -6.117188 3.59375 -5.078125 C 3.59375 -4.066406 3.742188 -3.300781 4.046875 -2.78125 C 4.421875 -2.15625 4.9375 -1.84375 5.59375 -1.84375 C 6.363281 -1.84375 6.921875 -2.160156 7.265625 -2.796875 Z M 7.265625 -2.796875 "/></g></g></g><g fill="#f5f5f5" fill-opacity="1"><g transform="translate(135.015742, 284.220099)"><g><path d="M 5.78125 -1.78125 C 6.269531 -1.800781 6.695312 -1.90625 7.0625 -2.09375 C 7.425781 -2.289062 7.71875 -2.550781 7.9375 -2.875 C 8.007812 -2.976562 8.097656 -3.03125 8.203125 -3.03125 C 8.265625 -3.03125 8.320312 -3.015625 8.375 -2.984375 L 9.328125 -2.21875 C 9.421875 -2.125 9.46875 -2.039062 9.46875 -1.96875 C 9.46875 -1.914062 9.445312 -1.851562 9.40625 -1.78125 C 9.03125 -1.175781 8.507812 -0.703125 7.84375 -0.359375 C 7.175781 -0.015625 6.414062 0.15625 5.5625 0.15625 C 4.507812 0.15625 3.628906 -0.0859375 2.921875 -0.578125 C 2.210938 -1.078125 1.703125 -1.769531 1.390625 -2.65625 C 1.128906 -3.382812 1 -4.207031 1 -5.125 C 1 -6.039062 1.070312 -6.742188 1.21875 -7.234375 C 1.46875 -8.171875 1.960938 -8.914062 2.703125 -9.46875 C 3.441406 -10.03125 4.34375 -10.3125 5.40625 -10.3125 C 7.875 -10.3125 9.320312 -8.953125 9.75 -6.234375 C 9.8125 -5.796875 9.859375 -5.253906 9.890625 -4.609375 C 9.890625 -4.398438 9.785156 -4.296875 9.578125 -4.296875 L 3.421875 -4.296875 C 3.335938 -4.296875 3.296875 -4.253906 3.296875 -4.171875 C 3.296875 -3.816406 3.335938 -3.523438 3.421875 -3.296875 C 3.566406 -2.816406 3.84375 -2.441406 4.25 -2.171875 C 4.65625 -1.910156 5.164062 -1.78125 5.78125 -1.78125 Z M 5.375 -8.328125 C 4.875 -8.328125 4.460938 -8.203125 4.140625 -7.953125 C 3.816406 -7.710938 3.59375 -7.375 3.46875 -6.9375 C 3.382812 -6.664062 3.332031 -6.382812 3.3125 -6.09375 C 3.300781 -6.019531 3.335938 -5.984375 3.421875 -5.984375 L 7.40625 -5.984375 C 7.488281 -5.984375 7.53125 -6.019531 7.53125 -6.09375 C 7.476562 -6.488281 7.4375 -6.726562 7.40625 -6.8125 C 7.289062 -7.269531 7.054688 -7.632812 6.703125 -7.90625 C 6.347656 -8.1875 5.90625 -8.328125 5.375 -8.328125 Z M 5.375 -8.328125 "/></g></g></g><g fill="#f5f5f5" fill-opacity="1"><g transform="translate(145.775293, 284.220099)"><g><path d="M 6.09375 -10.3125 C 7.175781 -10.3125 8.039062 -9.992188 8.6875 -9.359375 C 9.332031 -8.722656 9.65625 -7.851562 9.65625 -6.75 L 9.65625 -0.3125 C 9.65625 -0.101562 9.546875 0 9.328125 0 L 7.671875 0 C 7.453125 0 7.34375 -0.101562 7.34375 -0.3125 L 7.34375 -6.28125 C 7.34375 -6.882812 7.164062 -7.375 6.8125 -7.75 C 6.46875 -8.132812 6.007812 -8.328125 5.4375 -8.328125 C 4.875 -8.328125 4.414062 -8.140625 4.0625 -7.765625 C 3.707031 -7.390625 3.53125 -6.898438 3.53125 -6.296875 L 3.53125 -0.3125 C 3.53125 -0.101562 3.425781 0 3.21875 0 L 1.546875 0 C 1.335938 0 1.234375 -0.101562 1.234375 -0.3125 L 1.234375 -9.828125 C 1.234375 -10.035156 1.335938 -10.140625 1.546875 -10.140625 L 3.21875 -10.140625 C 3.425781 -10.140625 3.53125 -10.035156 3.53125 -9.828125 L 3.53125 -9.296875 C 3.53125 -9.242188 3.539062 -9.207031 3.5625 -9.1875 C 3.59375 -9.175781 3.625 -9.191406 3.65625 -9.234375 C 4.207031 -9.953125 5.019531 -10.3125 6.09375 -10.3125 Z M 6.09375 -10.3125 "/></g></g></g><g fill="#f5f5f5" fill-opacity="1"><g transform="translate(156.574544, 284.220099)"><g><path d="M 5.46875 0.15625 C 4.445312 0.15625 3.5625 -0.101562 2.8125 -0.625 C 2.070312 -1.144531 1.554688 -1.847656 1.265625 -2.734375 C 1.054688 -3.335938 0.953125 -4.132812 0.953125 -5.125 C 0.953125 -6.070312 1.054688 -6.851562 1.265625 -7.46875 C 1.546875 -8.34375 2.0625 -9.035156 2.8125 -9.546875 C 3.5625 -10.054688 4.445312 -10.3125 5.46875 -10.3125 C 6.5 -10.3125 7.394531 -10.050781 8.15625 -9.53125 C 8.925781 -9.019531 9.4375 -8.375 9.6875 -7.59375 C 9.726562 -7.46875 9.769531 -7.28125 9.8125 -7.03125 L 9.8125 -6.953125 C 9.8125 -6.804688 9.722656 -6.710938 9.546875 -6.671875 L 7.90625 -6.421875 L 7.828125 -6.421875 C 7.679688 -6.421875 7.585938 -6.5 7.546875 -6.65625 L 7.484375 -6.90625 C 7.390625 -7.300781 7.15625 -7.632812 6.78125 -7.90625 C 6.414062 -8.1875 5.976562 -8.328125 5.46875 -8.328125 C 4.957031 -8.328125 4.523438 -8.195312 4.171875 -7.9375 C 3.828125 -7.675781 3.59375 -7.320312 3.46875 -6.875 C 3.34375 -6.445312 3.28125 -5.859375 3.28125 -5.109375 C 3.28125 -4.378906 3.335938 -3.789062 3.453125 -3.34375 C 3.585938 -2.875 3.828125 -2.503906 4.171875 -2.234375 C 4.515625 -1.960938 4.945312 -1.828125 5.46875 -1.828125 C 5.96875 -1.828125 6.398438 -1.957031 6.765625 -2.21875 C 7.128906 -2.476562 7.363281 -2.816406 7.46875 -3.234375 L 7.484375 -3.34375 C 7.492188 -3.40625 7.535156 -3.46875 7.609375 -3.53125 C 7.679688 -3.601562 7.765625 -3.628906 7.859375 -3.609375 L 9.515625 -3.359375 C 9.679688 -3.316406 9.765625 -3.222656 9.765625 -3.078125 C 9.765625 -2.992188 9.738281 -2.835938 9.6875 -2.609375 C 9.4375 -1.753906 8.925781 -1.078125 8.15625 -0.578125 C 7.394531 -0.0859375 6.5 0.15625 5.46875 0.15625 Z M 5.46875 0.15625 "/></g></g></g><g fill="#f5f5f5" fill-opacity="1"><g transform="translate(167.115719, 284.220099)"><g><path d="M 6.09375 -10.3125 C 7.175781 -10.3125 8.039062 -9.992188 8.6875 -9.359375 C 9.332031 -8.722656 9.65625 -7.851562 9.65625 -6.75 L 9.65625 -0.3125 C 9.65625 -0.101562 9.546875 0 9.328125 0 L 7.671875 0 C 7.453125 0 7.34375 -0.101562 7.34375 -0.3125 L 7.34375 -6.28125 C 7.34375 -6.882812 7.164062 -7.375 6.8125 -7.75 C 6.46875 -8.132812 6.007812 -8.328125 5.4375 -8.328125 C 4.875 -8.328125 4.414062 -8.140625 4.0625 -7.765625 C 3.707031 -7.390625 3.53125 -6.898438 3.53125 -6.296875 L 3.53125 -0.3125 C 3.53125 -0.101562 3.425781 0 3.21875 0 L 1.546875 0 C 1.335938 0 1.234375 -0.101562 1.234375 -0.3125 L 1.234375 -13.578125 C 1.234375 -13.796875 1.335938 -13.90625 1.546875 -13.90625 L 3.21875 -13.90625 C 3.425781 -13.90625 3.53125 -13.796875 3.53125 -13.578125 L 3.53125 -9.296875 C 3.53125 -9.242188 3.539062 -9.207031 3.5625 -9.1875 C 3.59375 -9.175781 3.625 -9.191406 3.65625 -9.234375 C 4.207031 -9.953125 5.019531 -10.3125 6.09375 -10.3125 Z M 6.09375 -10.3125 "/></g></g></g><g fill="#f5f5f5" fill-opacity="1"><g transform="translate(177.91497, 284.220099)"><g><path d="M 12.09375 -10.3125 C 13.113281 -10.3125 13.910156 -10 14.484375 -9.375 C 15.054688 -8.757812 15.34375 -7.90625 15.34375 -6.8125 L 15.34375 -0.3125 C 15.34375 -0.101562 15.238281 0 15.03125 0 L 13.390625 0 C 13.171875 0 13.0625 -0.101562 13.0625 -0.3125 L 13.0625 -6.328125 C 13.0625 -6.941406 12.898438 -7.425781 12.578125 -7.78125 C 12.253906 -8.144531 11.820312 -8.328125 11.28125 -8.328125 C 10.738281 -8.328125 10.296875 -8.144531 9.953125 -7.78125 C 9.609375 -7.425781 9.4375 -6.953125 9.4375 -6.359375 L 9.4375 -0.3125 C 9.4375 -0.101562 9.328125 0 9.109375 0 L 7.46875 0 C 7.257812 0 7.15625 -0.101562 7.15625 -0.3125 L 7.15625 -6.328125 C 7.15625 -6.941406 6.988281 -7.425781 6.65625 -7.78125 C 6.320312 -8.144531 5.882812 -8.328125 5.34375 -8.328125 C 4.84375 -8.328125 4.425781 -8.179688 4.09375 -7.890625 C 3.769531 -7.597656 3.582031 -7.195312 3.53125 -6.6875 L 3.53125 -0.3125 C 3.53125 -0.101562 3.425781 0 3.21875 0 L 1.546875 0 C 1.335938 0 1.234375 -0.101562 1.234375 -0.3125 L 1.234375 -9.828125 C 1.234375 -10.035156 1.335938 -10.140625 1.546875 -10.140625 L 3.21875 -10.140625 C 3.425781 -10.140625 3.53125 -10.035156 3.53125 -9.828125 L 3.53125 -9.296875 C 3.53125 -9.242188 3.546875 -9.207031 3.578125 -9.1875 C 3.617188 -9.175781 3.648438 -9.195312 3.671875 -9.25 C 4.242188 -9.957031 5.078125 -10.3125 6.171875 -10.3125 C 6.828125 -10.3125 7.394531 -10.179688 7.875 -9.921875 C 8.351562 -9.660156 8.726562 -9.28125 9 -8.78125 C 9.019531 -8.738281 9.046875 -8.71875 9.078125 -8.71875 C 9.117188 -8.71875 9.144531 -8.742188 9.15625 -8.796875 C 9.457031 -9.296875 9.863281 -9.671875 10.375 -9.921875 C 10.894531 -10.179688 11.46875 -10.3125 12.09375 -10.3125 Z M 12.09375 -10.3125 "/></g></g></g><g fill="#f5f5f5" fill-opacity="1"><g transform="translate(194.371916, 284.220099)"><g><path d="M 5.109375 -10.3125 C 5.941406 -10.3125 6.675781 -10.164062 7.3125 -9.875 C 7.957031 -9.582031 8.453125 -9.179688 8.796875 -8.671875 C 9.140625 -8.160156 9.3125 -7.582031 9.3125 -6.9375 L 9.3125 -0.3125 C 9.3125 -0.101562 9.207031 0 9 0 L 7.328125 0 C 7.117188 0 7.015625 -0.101562 7.015625 -0.3125 L 7.015625 -0.8125 C 7.015625 -0.863281 7 -0.890625 6.96875 -0.890625 C 6.945312 -0.898438 6.914062 -0.894531 6.875 -0.875 C 6.15625 -0.1875 5.203125 0.15625 4.015625 0.15625 C 3.035156 0.15625 2.226562 -0.09375 1.59375 -0.59375 C 0.96875 -1.09375 0.65625 -1.84375 0.65625 -2.84375 C 0.65625 -3.875 1.015625 -4.675781 1.734375 -5.25 C 2.453125 -5.820312 3.46875 -6.109375 4.78125 -6.109375 L 6.890625 -6.109375 C 6.972656 -6.109375 7.015625 -6.148438 7.015625 -6.234375 L 7.015625 -6.6875 C 7.015625 -7.207031 6.859375 -7.609375 6.546875 -7.890625 C 6.234375 -8.179688 5.769531 -8.328125 5.15625 -8.328125 C 4.695312 -8.328125 4.316406 -8.242188 4.015625 -8.078125 C 3.710938 -7.910156 3.503906 -7.679688 3.390625 -7.390625 C 3.335938 -7.203125 3.21875 -7.113281 3.03125 -7.125 L 1.25 -7.34375 C 1.144531 -7.363281 1.066406 -7.394531 1.015625 -7.4375 C 0.960938 -7.476562 0.941406 -7.535156 0.953125 -7.609375 C 1.066406 -8.398438 1.503906 -9.046875 2.265625 -9.546875 C 3.035156 -10.054688 3.984375 -10.3125 5.109375 -10.3125 Z M 4.640625 -1.671875 C 5.296875 -1.671875 5.851562 -1.84375 6.3125 -2.1875 C 6.78125 -2.53125 7.015625 -2.96875 7.015625 -3.5 L 7.015625 -4.40625 C 7.015625 -4.488281 6.972656 -4.53125 6.890625 -4.53125 L 5.25 -4.53125 C 4.539062 -4.53125 3.976562 -4.394531 3.5625 -4.125 C 3.15625 -3.863281 2.953125 -3.488281 2.953125 -3 C 2.953125 -2.570312 3.109375 -2.242188 3.421875 -2.015625 C 3.742188 -1.785156 4.148438 -1.671875 4.640625 -1.671875 Z M 4.640625 -1.671875 "/></g></g></g><g fill="#f5f5f5" fill-opacity="1"><g transform="translate(204.734437, 284.220099)"><g><path d="M 5.953125 -10.265625 C 6.335938 -10.265625 6.691406 -10.191406 7.015625 -10.046875 C 7.171875 -9.960938 7.226562 -9.832031 7.1875 -9.65625 L 6.875 -8 C 6.851562 -7.894531 6.8125 -7.828125 6.75 -7.796875 C 6.695312 -7.773438 6.613281 -7.78125 6.5 -7.8125 C 6.332031 -7.863281 6.117188 -7.890625 5.859375 -7.890625 C 5.703125 -7.890625 5.578125 -7.878906 5.484375 -7.859375 C 4.921875 -7.835938 4.453125 -7.644531 4.078125 -7.28125 C 3.710938 -6.914062 3.53125 -6.441406 3.53125 -5.859375 L 3.53125 -0.3125 C 3.53125 -0.101562 3.425781 0 3.21875 0 L 1.546875 0 C 1.335938 0 1.234375 -0.101562 1.234375 -0.3125 L 1.234375 -9.828125 C 1.234375 -10.035156 1.335938 -10.140625 1.546875 -10.140625 L 3.21875 -10.140625 C 3.425781 -10.140625 3.53125 -10.035156 3.53125 -9.828125 L 3.53125 -9.0625 C 3.53125 -9 3.539062 -8.960938 3.5625 -8.953125 C 3.59375 -8.941406 3.625 -8.960938 3.65625 -9.015625 C 4.207031 -9.847656 4.972656 -10.265625 5.953125 -10.265625 Z M 5.953125 -10.265625 "/></g></g></g><g fill="#f5f5f5" fill-opacity="1"><g transform="translate(212.198628, 284.220099)"><g><path d="M 1.546875 0 C 1.335938 0 1.234375 -0.101562 1.234375 -0.3125 L 1.234375 -13.578125 C 1.234375 -13.796875 1.335938 -13.90625 1.546875 -13.90625 L 3.21875 -13.90625 C 3.425781 -13.90625 3.53125 -13.796875 3.53125 -13.578125 L 3.53125 -6.53125 C 3.53125 -6.476562 3.546875 -6.445312 3.578125 -6.4375 C 3.617188 -6.425781 3.648438 -6.4375 3.671875 -6.46875 L 6.828125 -9.96875 C 6.929688 -10.082031 7.066406 -10.140625 7.234375 -10.140625 L 9.140625 -10.140625 C 9.210938 -10.140625 9.273438 -10.117188 9.328125 -10.078125 C 9.378906 -10.046875 9.40625 -10.003906 9.40625 -9.953125 C 9.40625 -9.867188 9.378906 -9.800781 9.328125 -9.75 L 6.890625 -6.84375 C 6.847656 -6.8125 6.84375 -6.757812 6.875 -6.6875 L 9.8125 -0.375 L 9.84375 -0.21875 C 9.84375 -0.0703125 9.753906 0 9.578125 0 L 7.8125 0 C 7.632812 0 7.515625 -0.078125 7.453125 -0.234375 L 5.296875 -5.203125 C 5.265625 -5.285156 5.210938 -5.289062 5.140625 -5.21875 L 3.59375 -3.421875 C 3.550781 -3.367188 3.53125 -3.320312 3.53125 -3.28125 L 3.53125 -0.3125 C 3.53125 -0.101562 3.425781 0 3.21875 0 Z M 1.546875 0 "/></g></g></g><g fill="#f5f5f5" fill-opacity="1"><g transform="translate(222.56115, 284.220099)"><g><path d="M 2.546875 -11.421875 C 2.109375 -11.421875 1.75 -11.554688 1.46875 -11.828125 C 1.1875 -12.097656 1.046875 -12.445312 1.046875 -12.875 C 1.046875 -13.289062 1.1875 -13.628906 1.46875 -13.890625 C 1.75 -14.160156 2.109375 -14.296875 2.546875 -14.296875 C 2.984375 -14.296875 3.335938 -14.160156 3.609375 -13.890625 C 3.878906 -13.628906 4.015625 -13.289062 4.015625 -12.875 C 4.015625 -12.445312 3.878906 -12.097656 3.609375 -11.828125 C 3.335938 -11.554688 2.984375 -11.421875 2.546875 -11.421875 Z M 1.703125 0 C 1.492188 0 1.390625 -0.101562 1.390625 -0.3125 L 1.390625 -9.828125 C 1.390625 -10.035156 1.492188 -10.140625 1.703125 -10.140625 L 3.375 -10.140625 C 3.582031 -10.140625 3.6875 -10.035156 3.6875 -9.828125 L 3.6875 -0.3125 C 3.6875 -0.101562 3.582031 0 3.375 0 Z M 1.703125 0 "/></g></g></g><g fill="#f5f5f5" fill-opacity="1"><g transform="translate(227.623294, 284.220099)"><g><path d="M 6.09375 -10.3125 C 7.175781 -10.3125 8.039062 -9.992188 8.6875 -9.359375 C 9.332031 -8.722656 9.65625 -7.851562 9.65625 -6.75 L 9.65625 -0.3125 C 9.65625 -0.101562 9.546875 0 9.328125 0 L 7.671875 0 C 7.453125 0 7.34375 -0.101562 7.34375 -0.3125 L 7.34375 -6.28125 C 7.34375 -6.882812 7.164062 -7.375 6.8125 -7.75 C 6.46875 -8.132812 6.007812 -8.328125 5.4375 -8.328125 C 4.875 -8.328125 4.414062 -8.140625 4.0625 -7.765625 C 3.707031 -7.390625 3.53125 -6.898438 3.53125 -6.296875 L 3.53125 -0.3125 C 3.53125 -0.101562 3.425781 0 3.21875 0 L 1.546875 0 C 1.335938 0 1.234375 -0.101562 1.234375 -0.3125 L 1.234375 -9.828125 C 1.234375 -10.035156 1.335938 -10.140625 1.546875 -10.140625 L 3.21875 -10.140625 C 3.425781 -10.140625 3.53125 -10.035156 3.53125 -9.828125 L 3.53125 -9.296875 C 3.53125 -9.242188 3.539062 -9.207031 3.5625 -9.1875 C 3.59375 -9.175781 3.625 -9.191406 3.65625 -9.234375 C 4.207031 -9.953125 5.019531 -10.3125 6.09375 -10.3125 Z M 6.09375 -10.3125 "/></g></g></g><g fill="#f5f5f5" fill-opacity="1"><g transform="translate(238.422545, 284.220099)"><g><path d="M 7.453125 -9.828125 C 7.453125 -10.035156 7.554688 -10.140625 7.765625 -10.140625 L 9.4375 -10.140625 C 9.644531 -10.140625 9.75 -10.035156 9.75 -9.828125 L 9.75 -0.671875 C 9.75 0.984375 9.269531 2.164062 8.3125 2.875 C 7.363281 3.59375 6.125 3.953125 4.59375 3.953125 C 4.21875 3.953125 3.835938 3.929688 3.453125 3.890625 C 3.265625 3.878906 3.171875 3.757812 3.171875 3.53125 L 3.234375 2.0625 C 3.234375 1.96875 3.265625 1.894531 3.328125 1.84375 C 3.398438 1.789062 3.488281 1.769531 3.59375 1.78125 C 4.039062 1.8125 4.351562 1.828125 4.53125 1.828125 C 5.53125 1.828125 6.265625 1.628906 6.734375 1.234375 C 7.210938 0.847656 7.453125 0.191406 7.453125 -0.734375 L 7.453125 -0.859375 C 7.453125 -0.910156 7.4375 -0.941406 7.40625 -0.953125 C 7.382812 -0.960938 7.351562 -0.945312 7.3125 -0.90625 C 6.769531 -0.34375 6.007812 -0.0625 5.03125 -0.0625 C 4.164062 -0.0625 3.375 -0.28125 2.65625 -0.71875 C 1.945312 -1.15625 1.453125 -1.820312 1.171875 -2.71875 C 0.992188 -3.34375 0.90625 -4.144531 0.90625 -5.125 C 0.90625 -6.21875 1.015625 -7.054688 1.234375 -7.640625 C 1.492188 -8.453125 1.945312 -9.097656 2.59375 -9.578125 C 3.25 -10.066406 4.015625 -10.3125 4.890625 -10.3125 C 5.910156 -10.3125 6.71875 -10.007812 7.3125 -9.40625 C 7.351562 -9.375 7.382812 -9.363281 7.40625 -9.375 C 7.4375 -9.382812 7.453125 -9.414062 7.453125 -9.46875 Z M 7.3125 -3.375 C 7.363281 -3.570312 7.398438 -3.785156 7.421875 -4.015625 C 7.441406 -4.253906 7.453125 -4.628906 7.453125 -5.140625 C 7.453125 -5.640625 7.441406 -6 7.421875 -6.21875 C 7.398438 -6.4375 7.351562 -6.65625 7.28125 -6.875 C 7.175781 -7.3125 6.960938 -7.660156 6.640625 -7.921875 C 6.316406 -8.191406 5.90625 -8.328125 5.40625 -8.328125 C 4.925781 -8.328125 4.519531 -8.191406 4.1875 -7.921875 C 3.851562 -7.660156 3.613281 -7.3125 3.46875 -6.875 C 3.3125 -6.5 3.234375 -5.914062 3.234375 -5.125 C 3.234375 -4.300781 3.300781 -3.722656 3.4375 -3.390625 C 3.570312 -2.972656 3.8125 -2.628906 4.15625 -2.359375 C 4.507812 -2.085938 4.929688 -1.953125 5.421875 -1.953125 C 5.941406 -1.953125 6.359375 -2.082031 6.671875 -2.34375 C 6.992188 -2.601562 7.207031 -2.945312 7.3125 -3.375 Z M 7.3125 -3.375 "/></g></g></g><g fill="#f5f5f5" fill-opacity="1"><g transform="translate(249.321051, 284.220099)"><g/></g></g><g fill="#f5f5f5" fill-opacity="1"><g transform="translate(253.291361, 284.220099)"><g><path d="M 7.390625 -13.578125 C 7.390625 -13.796875 7.492188 -13.90625 7.703125 -13.90625 L 9.375 -13.90625 C 9.582031 -13.90625 9.6875 -13.796875 9.6875 -13.578125 L 9.6875 -0.3125 C 9.6875 -0.101562 9.582031 0 9.375 0 L 7.703125 0 C 7.492188 0 7.390625 -0.101562 7.390625 -0.3125 L 7.390625 -0.828125 C 7.390625 -0.878906 7.367188 -0.910156 7.328125 -0.921875 C 7.296875 -0.941406 7.269531 -0.925781 7.25 -0.875 C 6.675781 -0.1875 5.921875 0.15625 4.984375 0.15625 C 4.054688 0.15625 3.257812 -0.0859375 2.59375 -0.578125 C 1.9375 -1.078125 1.460938 -1.757812 1.171875 -2.625 C 0.929688 -3.363281 0.8125 -4.191406 0.8125 -5.109375 C 0.8125 -6.046875 0.925781 -6.851562 1.15625 -7.53125 C 1.445312 -8.40625 1.914062 -9.085938 2.5625 -9.578125 C 3.207031 -10.066406 4.015625 -10.3125 4.984375 -10.3125 C 5.910156 -10.3125 6.664062 -9.984375 7.25 -9.328125 C 7.269531 -9.296875 7.296875 -9.28125 7.328125 -9.28125 C 7.367188 -9.289062 7.390625 -9.320312 7.390625 -9.375 Z M 6.890625 -2.78125 C 7.191406 -3.300781 7.34375 -4.066406 7.34375 -5.078125 C 7.34375 -6.117188 7.175781 -6.910156 6.84375 -7.453125 C 6.488281 -8.035156 5.992188 -8.328125 5.359375 -8.328125 C 4.671875 -8.328125 4.140625 -8.046875 3.765625 -7.484375 C 3.390625 -6.898438 3.203125 -6.09375 3.203125 -5.0625 C 3.203125 -4.113281 3.359375 -3.359375 3.671875 -2.796875 C 4.015625 -2.160156 4.570312 -1.84375 5.34375 -1.84375 C 6 -1.84375 6.515625 -2.15625 6.890625 -2.78125 Z M 6.890625 -2.78125 "/></g></g></g><g fill="#f5f5f5" fill-opacity="1"><g transform="translate(264.229577, 284.220099)"><g><path d="M 5.109375 -10.3125 C 5.941406 -10.3125 6.675781 -10.164062 7.3125 -9.875 C 7.957031 -9.582031 8.453125 -9.179688 8.796875 -8.671875 C 9.140625 -8.160156 9.3125 -7.582031 9.3125 -6.9375 L 9.3125 -0.3125 C 9.3125 -0.101562 9.207031 0 9 0 L 7.328125 0 C 7.117188 0 7.015625 -0.101562 7.015625 -0.3125 L 7.015625 -0.8125 C 7.015625 -0.863281 7 -0.890625 6.96875 -0.890625 C 6.945312 -0.898438 6.914062 -0.894531 6.875 -0.875 C 6.15625 -0.1875 5.203125 0.15625 4.015625 0.15625 C 3.035156 0.15625 2.226562 -0.09375 1.59375 -0.59375 C 0.96875 -1.09375 0.65625 -1.84375 0.65625 -2.84375 C 0.65625 -3.875 1.015625 -4.675781 1.734375 -5.25 C 2.453125 -5.820312 3.46875 -6.109375 4.78125 -6.109375 L 6.890625 -6.109375 C 6.972656 -6.109375 7.015625 -6.148438 7.015625 -6.234375 L 7.015625 -6.6875 C 7.015625 -7.207031 6.859375 -7.609375 6.546875 -7.890625 C 6.234375 -8.179688 5.769531 -8.328125 5.15625 -8.328125 C 4.695312 -8.328125 4.316406 -8.242188 4.015625 -8.078125 C 3.710938 -7.910156 3.503906 -7.679688 3.390625 -7.390625 C 3.335938 -7.203125 3.21875 -7.113281 3.03125 -7.125 L 1.25 -7.34375 C 1.144531 -7.363281 1.066406 -7.394531 1.015625 -7.4375 C 0.960938 -7.476562 0.941406 -7.535156 0.953125 -7.609375 C 1.066406 -8.398438 1.503906 -9.046875 2.265625 -9.546875 C 3.035156 -10.054688 3.984375 -10.3125 5.109375 -10.3125 Z M 4.640625 -1.671875 C 5.296875 -1.671875 5.851562 -1.84375 6.3125 -2.1875 C 6.78125 -2.53125 7.015625 -2.96875 7.015625 -3.5 L 7.015625 -4.40625 C 7.015625 -4.488281 6.972656 -4.53125 6.890625 -4.53125 L 5.25 -4.53125 C 4.539062 -4.53125 3.976562 -4.394531 3.5625 -4.125 C 3.15625 -3.863281 2.953125 -3.488281 2.953125 -3 C 2.953125 -2.570312 3.109375 -2.242188 3.421875 -2.015625 C 3.742188 -1.785156 4.148438 -1.671875 4.640625 -1.671875 Z M 4.640625 -1.671875 "/></g></g></g><g fill="#f5f5f5" fill-opacity="1"><g transform="translate(274.592099, 284.220099)"><g><path d="M 6.609375 -8.59375 C 6.609375 -8.382812 6.503906 -8.28125 6.296875 -8.28125 L 4.375 -8.28125 C 4.289062 -8.28125 4.25 -8.238281 4.25 -8.15625 L 4.25 -3.46875 C 4.25 -2.957031 4.359375 -2.585938 4.578125 -2.359375 C 4.796875 -2.140625 5.144531 -2.03125 5.625 -2.03125 L 6.140625 -2.03125 C 6.347656 -2.03125 6.453125 -1.921875 6.453125 -1.703125 L 6.453125 -0.375 C 6.453125 -0.164062 6.347656 -0.0546875 6.140625 -0.046875 L 5.1875 -0.015625 C 4.132812 -0.015625 3.347656 -0.195312 2.828125 -0.5625 C 2.316406 -0.925781 2.054688 -1.609375 2.046875 -2.609375 L 2.046875 -8.15625 C 2.046875 -8.238281 2.003906 -8.28125 1.921875 -8.28125 L 0.890625 -8.28125 C 0.679688 -8.28125 0.578125 -8.382812 0.578125 -8.59375 L 0.578125 -9.828125 C 0.578125 -10.035156 0.679688 -10.140625 0.890625 -10.140625 L 1.921875 -10.140625 C 2.003906 -10.140625 2.046875 -10.179688 2.046875 -10.265625 L 2.046875 -12.484375 C 2.046875 -12.703125 2.148438 -12.8125 2.359375 -12.8125 L 3.9375 -12.8125 C 4.144531 -12.8125 4.25 -12.703125 4.25 -12.484375 L 4.25 -10.265625 C 4.25 -10.179688 4.289062 -10.140625 4.375 -10.140625 L 6.296875 -10.140625 C 6.503906 -10.140625 6.609375 -10.035156 6.609375 -9.828125 Z M 6.609375 -8.59375 "/></g></g></g><g fill="#f5f5f5" fill-opacity="1"><g transform="translate(282.016579, 284.220099)"><g><path d="M 5.109375 -10.3125 C 5.941406 -10.3125 6.675781 -10.164062 7.3125 -9.875 C 7.957031 -9.582031 8.453125 -9.179688 8.796875 -8.671875 C 9.140625 -8.160156 9.3125 -7.582031 9.3125 -6.9375 L 9.3125 -0.3125 C 9.3125 -0.101562 9.207031 0 9 0 L 7.328125 0 C 7.117188 0 7.015625 -0.101562 7.015625 -0.3125 L 7.015625 -0.8125 C 7.015625 -0.863281 7 -0.890625 6.96875 -0.890625 C 6.945312 -0.898438 6.914062 -0.894531 6.875 -0.875 C 6.15625 -0.1875 5.203125 0.15625 4.015625 0.15625 C 3.035156 0.15625 2.226562 -0.09375 1.59375 -0.59375 C 0.96875 -1.09375 0.65625 -1.84375 0.65625 -2.84375 C 0.65625 -3.875 1.015625 -4.675781 1.734375 -5.25 C 2.453125 -5.820312 3.46875 -6.109375 4.78125 -6.109375 L 6.890625 -6.109375 C 6.972656 -6.109375 7.015625 -6.148438 7.015625 -6.234375 L 7.015625 -6.6875 C 7.015625 -7.207031 6.859375 -7.609375 6.546875 -7.890625 C 6.234375 -8.179688 5.769531 -8.328125 5.15625 -8.328125 C 4.695312 -8.328125 4.316406 -8.242188 4.015625 -8.078125 C 3.710938 -7.910156 3.503906 -7.679688 3.390625 -7.390625 C 3.335938 -7.203125 3.21875 -7.113281 3.03125 -7.125 L 1.25 -7.34375 C 1.144531 -7.363281 1.066406 -7.394531 1.015625 -7.4375 C 0.960938 -7.476562 0.941406 -7.535156 0.953125 -7.609375 C 1.066406 -8.398438 1.503906 -9.046875 2.265625 -9.546875 C 3.035156 -10.054688 3.984375 -10.3125 5.109375 -10.3125 Z M 4.640625 -1.671875 C 5.296875 -1.671875 5.851562 -1.84375 6.3125 -2.1875 C 6.78125 -2.53125 7.015625 -2.96875 7.015625 -3.5 L 7.015625 -4.40625 C 7.015625 -4.488281 6.972656 -4.53125 6.890625 -4.53125 L 5.25 -4.53125 C 4.539062 -4.53125 3.976562 -4.394531 3.5625 -4.125 C 3.15625 -3.863281 2.953125 -3.488281 2.953125 -3 C 2.953125 -2.570312 3.109375 -2.242188 3.421875 -2.015625 C 3.742188 -1.785156 4.148438 -1.671875 4.640625 -1.671875 Z M 4.640625 -1.671875 "/></g></g></g></svg>