<svg xmlns="http://www.w3.org/2000/svg" xmlns:xlink="http://www.w3.org/1999/xlink" width="5000" zoomAndPan="magnify" viewBox="0 0 3750 3749.999967" height="5000" preserveAspectRatio="xMidYMid meet" version="1.0"><defs><g/><clipPath id="3712ecf2b3"><path d="M 1103.863281 1032 L 1467 1032 L 1467 1395 L 1103.863281 1395 Z M 1103.863281 1032 " clip-rule="nonzero"/></clipPath><clipPath id="4f1749f685"><path d="M 1988 1032 L 2645.863281 1032 L 2645.863281 1906 L 1988 1906 Z M 1988 1032 " clip-rule="nonzero"/></clipPath></defs><rect x="-375" width="4500" fill="#ffffff" y="-374.999997" height="4499.99996" fill-opacity="1"/><rect x="-375" width="4500" fill="#202020" y="-374.999997" height="4499.99996" fill-opacity="1"/><g clip-path="url(#3712ecf2b3)"><path fill="#f5f5f5" d="M 1103.863281 1213.597656 C 1103.863281 1113.371094 1185.140625 1032.34375 1285.117188 1032.34375 C 1385.339844 1032.34375 1466.367188 1113.621094 1466.367188 1213.597656 C 1466.367188 1313.820312 1385.089844 1394.847656 1285.117188 1394.847656 C 1184.890625 1394.847656 1103.863281 1313.570312 1103.863281 1213.597656 Z M 1103.863281 1213.597656 " fill-opacity="1" fill-rule="evenodd"/></g><path fill="#f5f5f5" d="M 2079.1875 859.816406 C 1992.425781 809.703125 1962.757812 699.007812 2012.871094 612.246094 C 2062.980469 525.484375 2173.679688 495.816406 2260.441406 545.925781 C 2347.203125 596.039062 2376.871094 706.738281 2326.757812 793.5 C 2276.644531 880.261719 2165.949219 909.929688 2079.1875 859.816406 Z M 2079.1875 859.816406 " fill-opacity="1" fill-rule="evenodd"/><g clip-path="url(#4f1749f685)"><path fill="#f5f5f5" d="M 2436.957031 1392.855469 L 2311.050781 1610.757812 C 2316.785156 1617.988281 2322.023438 1625.714844 2326.757812 1633.941406 C 2376.871094 1720.707031 2347.203125 1831.402344 2260.441406 1881.515625 C 2173.679688 1931.625 2062.980469 1901.957031 2012.871094 1815.195312 C 1962.757812 1728.433594 1992.425781 1617.738281 2079.1875 1567.625 C 2116.585938 1546.183594 2158.222656 1539.453125 2197.863281 1545.4375 L 2323.765625 1327.535156 C 2298.585938 1296.371094 2283.628906 1256.976562 2283.628906 1213.84375 C 2283.628906 1113.621094 2364.902344 1032.59375 2464.878906 1032.59375 C 2565.105469 1032.59375 2646.132812 1113.871094 2646.132812 1213.84375 C 2646.132812 1314.070312 2564.855469 1395.097656 2464.878906 1395.097656 C 2455.40625 1395.097656 2445.933594 1394.351562 2436.957031 1392.855469 Z M 2436.957031 1392.855469 " fill-opacity="1" fill-rule="evenodd"/></g><path fill="#e3ae0a" d="M 1607.980469 882.003906 C 1536.175781 893.226562 1461.632812 860.316406 1422.988281 793.5 C 1372.875 706.738281 1402.542969 596.039062 1489.304688 545.925781 C 1576.066406 495.816406 1686.765625 525.484375 1736.875 612.246094 C 1775.519531 679.0625 1766.792969 760.089844 1721.167969 816.683594 L 1847.074219 1034.585938 C 1856.050781 1033.089844 1865.523438 1032.34375 1874.996094 1032.34375 C 1975.222656 1032.34375 2056.25 1113.621094 2056.25 1213.597656 C 2056.25 1313.820312 1974.972656 1394.847656 1874.996094 1394.847656 C 1865.523438 1394.847656 1856.300781 1394.101562 1847.324219 1392.605469 L 1721.417969 1610.757812 C 1767.042969 1667.351562 1775.769531 1748.378906 1737.125 1814.945312 C 1687.011719 1901.707031 1576.316406 1931.378906 1489.554688 1881.265625 C 1402.792969 1831.152344 1373.125 1720.457031 1423.238281 1633.695312 C 1461.632812 1566.878906 1536.175781 1533.96875 1607.980469 1545.1875 L 1733.886719 1327.035156 C 1708.953125 1295.871094 1693.746094 1256.480469 1693.746094 1213.347656 C 1693.746094 1170.214844 1708.703125 1130.824219 1733.886719 1099.660156 L 1607.980469 881.757812 Z M 1607.980469 882.003906 " fill-opacity="1" fill-rule="evenodd"/><g fill="#e3ae0a" fill-opacity="1"><g transform="translate(509.672206, 2504.607741)"><g><path d="M 39.4375 0 C 36.34375 0 33.828125 -0.960938 31.890625 -2.890625 C 29.960938 -4.828125 29 -7.34375 29 -10.4375 L 29 -395.53125 C 29 -398.625 29.960938 -401.140625 31.890625 -403.078125 C 33.828125 -405.015625 36.34375 -405.984375 39.4375 -405.984375 L 114.25 -405.984375 C 119.664062 -405.984375 123.726562 -403.660156 126.4375 -399.015625 L 203.5625 -274.328125 C 205.5 -271.617188 207.4375 -271.617188 209.375 -274.328125 L 287.078125 -399.015625 C 289.785156 -403.660156 293.847656 -405.984375 299.265625 -405.984375 L 374.078125 -405.984375 C 377.171875 -405.984375 379.679688 -405.015625 381.609375 -403.078125 C 383.546875 -401.140625 384.515625 -398.625 384.515625 -395.53125 L 384.515625 -10.4375 C 384.515625 -7.34375 383.546875 -4.828125 381.609375 -2.890625 C 379.679688 -0.960938 377.171875 0 374.078125 0 L 298.6875 0 C 295.59375 0 293.078125 -0.960938 291.140625 -2.890625 C 289.210938 -4.828125 288.25 -7.34375 288.25 -10.4375 L 288.25 -237.203125 C 288.25 -239.140625 287.664062 -240.300781 286.5 -240.6875 C 285.34375 -241.070312 284.378906 -240.296875 283.609375 -238.359375 L 236.625 -161.8125 C 233.914062 -157.175781 229.859375 -154.859375 224.453125 -154.859375 L 189.0625 -154.859375 C 183.65625 -154.859375 179.597656 -157.175781 176.890625 -161.8125 L 129.90625 -238.359375 C 129.132812 -240.296875 128.164062 -241.070312 127 -240.6875 C 125.84375 -240.300781 125.265625 -239.140625 125.265625 -237.203125 L 125.265625 -10.4375 C 125.265625 -7.34375 124.296875 -4.828125 122.359375 -2.890625 C 120.429688 -0.960938 117.921875 0 114.828125 0 Z M 39.4375 0 "/></g></g></g><g fill="#e3ae0a" fill-opacity="1"><g transform="translate(923.184761, 2504.607741)"><g><path d="M 38.859375 0 C 35.765625 0 33.25 -0.960938 31.3125 -2.890625 C 29.382812 -4.828125 28.421875 -7.34375 28.421875 -10.4375 L 28.421875 -395.53125 C 28.421875 -398.625 29.382812 -401.140625 31.3125 -403.078125 C 33.25 -405.015625 35.765625 -405.984375 38.859375 -405.984375 L 114.25 -405.984375 C 117.34375 -405.984375 119.851562 -405.015625 121.78125 -403.078125 C 123.71875 -401.140625 124.6875 -398.625 124.6875 -395.53125 L 124.6875 -86.421875 C 124.6875 -83.710938 126.039062 -82.359375 128.75 -82.359375 L 309.125 -82.359375 C 312.21875 -82.359375 314.726562 -81.390625 316.65625 -79.453125 C 318.59375 -77.523438 319.5625 -75.015625 319.5625 -71.921875 L 319.5625 -10.4375 C 319.5625 -7.34375 318.59375 -4.828125 316.65625 -2.890625 C 314.726562 -0.960938 312.21875 0 309.125 0 Z M 38.859375 0 "/></g></g></g><g fill="#e3ae0a" fill-opacity="1"><g transform="translate(1255.502746, 2504.607741)"><g><path d="M 177.46875 4.640625 C 146.539062 4.640625 119.378906 -1.347656 95.984375 -13.328125 C 72.585938 -25.316406 54.410156 -42.332031 41.453125 -64.375 C 28.503906 -86.414062 22.03125 -111.9375 22.03125 -140.9375 L 22.03125 -266.203125 C 22.03125 -294.816406 28.503906 -320.046875 41.453125 -341.890625 C 54.410156 -363.734375 72.585938 -380.648438 95.984375 -392.640625 C 119.378906 -404.628906 146.539062 -410.625 177.46875 -410.625 C 208.40625 -410.625 235.566406 -404.921875 258.953125 -393.515625 C 282.347656 -382.109375 300.519531 -366.0625 313.46875 -345.375 C 326.425781 -324.6875 332.90625 -300.8125 332.90625 -273.75 C 332.90625 -270.269531 329.617188 -268.140625 323.046875 -267.359375 L 247.640625 -262.140625 L 244.75 -262.140625 C 239.332031 -262.140625 236.625 -263.109375 236.625 -265.046875 L 236.625 -268.53125 C 236.625 -286.695312 231.210938 -301.191406 220.390625 -312.015625 C 209.566406 -322.847656 195.257812 -328.265625 177.46875 -328.265625 C 159.6875 -328.265625 145.378906 -322.753906 134.546875 -311.734375 C 123.722656 -300.710938 118.3125 -286.3125 118.3125 -268.53125 L 118.3125 -136.875 C 118.3125 -119.082031 123.722656 -104.773438 134.546875 -93.953125 C 145.378906 -83.128906 159.6875 -77.71875 177.46875 -77.71875 C 195.257812 -77.71875 209.566406 -83.128906 220.390625 -93.953125 C 231.210938 -104.773438 236.625 -119.082031 236.625 -136.875 C 236.625 -139.195312 237.492188 -140.9375 239.234375 -142.09375 C 240.972656 -143.25 243.582031 -143.632812 247.0625 -143.25 L 323.046875 -139.1875 C 329.617188 -138.414062 332.90625 -137.453125 332.90625 -136.296875 L 332.90625 -133.390625 C 332.90625 -105.941406 326.425781 -81.773438 313.46875 -60.890625 C 300.519531 -40.015625 282.347656 -23.875 258.953125 -12.46875 C 235.566406 -1.0625 208.40625 4.640625 177.46875 4.640625 Z M 177.46875 4.640625 "/></g></g></g><g fill="#e3ae0a" fill-opacity="1"><g transform="translate(1608.699328, 2504.607741)"><g><path d="M 283.03125 -212.265625 C 281.476562 -211.492188 280.703125 -210.523438 280.703125 -209.359375 C 280.703125 -208.203125 281.476562 -207.238281 283.03125 -206.46875 C 317.4375 -188.289062 334.640625 -157.742188 334.640625 -114.828125 C 334.640625 -76.171875 321.300781 -47.367188 294.625 -28.421875 C 267.945312 -9.472656 232.957031 0 189.65625 0 L 38.859375 0 C 35.765625 0 33.25 -0.960938 31.3125 -2.890625 C 29.382812 -4.828125 28.421875 -7.34375 28.421875 -10.4375 L 28.421875 -395.53125 C 28.421875 -398.625 29.382812 -401.140625 31.3125 -403.078125 C 33.25 -405.015625 35.765625 -405.984375 38.859375 -405.984375 L 185.015625 -405.984375 C 232.179688 -405.984375 267.847656 -397.085938 292.015625 -379.296875 C 316.179688 -361.515625 328.265625 -332.710938 328.265625 -292.890625 C 328.265625 -254.992188 313.1875 -228.117188 283.03125 -212.265625 Z M 128.75 -323.625 C 126.039062 -323.625 124.6875 -322.269531 124.6875 -319.5625 L 124.6875 -248.8125 C 124.6875 -246.101562 126.039062 -244.75 128.75 -244.75 L 185.015625 -244.75 C 200.859375 -244.75 213.035156 -248.128906 221.546875 -254.890625 C 230.054688 -261.660156 234.3125 -271.234375 234.3125 -283.609375 C 234.3125 -296.367188 230.054688 -306.226562 221.546875 -313.1875 C 213.035156 -320.144531 200.859375 -323.625 185.015625 -323.625 Z M 189.65625 -82.9375 C 205.113281 -82.9375 217.09375 -86.507812 225.59375 -93.65625 C 234.101562 -100.8125 238.359375 -111.15625 238.359375 -124.6875 C 238.359375 -137.832031 234.203125 -147.984375 225.890625 -155.140625 C 217.578125 -162.296875 205.5 -165.875 189.65625 -165.875 L 128.75 -165.875 C 126.039062 -165.875 124.6875 -164.519531 124.6875 -161.8125 L 124.6875 -87 C 124.6875 -84.289062 126.039062 -82.9375 128.75 -82.9375 Z M 189.65625 -82.9375 "/></g></g></g><g fill="#e3ae0a" fill-opacity="1"><g transform="translate(1966.535575, 2504.607741)"><g><path d="M 175.15625 -77.140625 C 187.132812 -77.140625 198.25 -78.972656 208.5 -82.640625 C 218.75 -86.316406 227.351562 -91.25 234.3125 -97.4375 C 236.625 -100.144531 239.132812 -101.5 241.84375 -101.5 C 244.164062 -101.5 246.488281 -100.144531 248.8125 -97.4375 L 284.765625 -54.515625 C 287.085938 -51.804688 288.25 -49.296875 288.25 -46.984375 C 288.25 -44.273438 287.085938 -41.757812 284.765625 -39.4375 C 271.617188 -25.519531 254.992188 -14.691406 234.890625 -6.953125 C 214.785156 0.773438 193.328125 4.640625 170.515625 4.640625 C 144.222656 4.640625 120.925781 -0.09375 100.625 -9.5625 C 80.320312 -19.039062 63.597656 -32.285156 50.453125 -49.296875 C 29.191406 -76.359375 18.5625 -110.769531 18.5625 -152.53125 C 18.5625 -171.09375 20.6875 -188.492188 24.9375 -204.734375 C 33.445312 -234.890625 50.070312 -259.148438 74.8125 -277.515625 C 99.5625 -295.878906 128.5625 -305.0625 161.8125 -305.0625 C 200.476562 -305.0625 231.695312 -293.070312 255.46875 -269.09375 C 279.25 -245.125 294.8125 -211.679688 302.15625 -168.765625 C 303.707031 -157.941406 304.867188 -146.148438 305.640625 -133.390625 C 305.640625 -126.429688 302.160156 -122.953125 295.203125 -122.953125 L 120.046875 -122.953125 C 118.890625 -122.953125 117.828125 -122.566406 116.859375 -121.796875 C 115.890625 -121.023438 115.601562 -119.863281 116 -118.3125 L 119.46875 -106.71875 C 123.332031 -97.4375 130.097656 -90.1875 139.765625 -84.96875 C 149.429688 -79.75 161.226562 -77.140625 175.15625 -77.140625 Z M 160.078125 -222.125 C 140.359375 -222.125 127.015625 -212.648438 120.046875 -193.703125 C 118.503906 -189.835938 117.539062 -186.941406 117.15625 -185.015625 L 117.15625 -183.84375 C 117.15625 -181.53125 118.507812 -180.375 121.21875 -180.375 L 200.671875 -180.375 C 202.210938 -180.375 203.273438 -180.851562 203.859375 -181.8125 C 204.441406 -182.78125 204.539062 -183.847656 204.15625 -185.015625 L 201.828125 -192.546875 C 198.734375 -201.828125 193.707031 -209.078125 186.75 -214.296875 C 179.789062 -219.515625 170.898438 -222.125 160.078125 -222.125 Z M 160.078125 -222.125 "/></g></g></g><g fill="#e3ae0a" fill-opacity="1"><g transform="translate(2286.674297, 2504.607741)"><g><path d="M 193.703125 -304.484375 C 223.867188 -304.484375 248.519531 -294.910156 267.65625 -275.765625 C 286.789062 -256.628906 296.359375 -230.628906 296.359375 -197.765625 L 296.359375 -10.4375 C 296.359375 -7.34375 295.390625 -4.828125 293.453125 -2.890625 C 291.523438 -0.960938 289.015625 0 285.921875 0 L 210.53125 0 C 207.4375 0 204.921875 -0.960938 202.984375 -2.890625 C 201.054688 -4.828125 200.09375 -7.34375 200.09375 -10.4375 L 200.09375 -176.890625 C 200.09375 -190.421875 196.515625 -201.34375 189.359375 -209.65625 C 182.203125 -217.96875 172.632812 -222.125 160.65625 -222.125 C 148.664062 -222.125 139 -217.96875 131.65625 -209.65625 C 124.3125 -201.34375 120.640625 -190.421875 120.640625 -176.890625 L 120.640625 -10.4375 C 120.640625 -7.34375 119.671875 -4.828125 117.734375 -2.890625 C 115.796875 -0.960938 113.28125 0 110.1875 0 L 34.796875 0 C 31.703125 0 29.1875 -0.960938 27.25 -2.890625 C 25.320312 -4.828125 24.359375 -7.34375 24.359375 -10.4375 L 24.359375 -289.40625 C 24.359375 -292.5 25.320312 -295.007812 27.25 -296.9375 C 29.1875 -298.875 31.703125 -299.84375 34.796875 -299.84375 L 110.1875 -299.84375 C 113.28125 -299.84375 115.796875 -298.875 117.734375 -296.9375 C 119.671875 -295.007812 120.640625 -292.5 120.640625 -289.40625 L 120.640625 -273.171875 C 120.640625 -271.234375 121.117188 -270.070312 122.078125 -269.6875 C 123.046875 -269.300781 123.914062 -269.878906 124.6875 -271.421875 C 140.539062 -293.460938 163.546875 -304.484375 193.703125 -304.484375 Z M 193.703125 -304.484375 "/></g></g></g><g fill="#e3ae0a" fill-opacity="1"><g transform="translate(2605.653165, 2504.607741)"><g><path d="M 162.390625 4.640625 C 130.679688 4.640625 102.9375 -3.285156 79.15625 -19.140625 C 55.382812 -34.992188 38.472656 -56.835938 28.421875 -84.671875 C 21.078125 -103.234375 17.40625 -125.46875 17.40625 -151.375 C 17.40625 -177.28125 21.078125 -199.507812 28.421875 -218.0625 C 38.085938 -245.132812 54.90625 -266.304688 78.875 -281.578125 C 102.84375 -296.847656 130.679688 -304.484375 162.390625 -304.484375 C 194.484375 -304.484375 222.707031 -296.554688 247.0625 -280.703125 C 271.425781 -264.847656 287.859375 -244.742188 296.359375 -220.390625 C 298.679688 -214.203125 300.226562 -207.820312 301 -201.25 L 301 -198.921875 C 301 -193.898438 297.90625 -190.8125 291.71875 -189.65625 L 218.0625 -178.625 L 215.171875 -178.046875 C 210.140625 -178.046875 207.238281 -180.367188 206.46875 -185.015625 L 204.15625 -193.125 C 201.832031 -201.632812 196.800781 -208.59375 189.0625 -214 C 181.332031 -219.414062 172.25 -222.125 161.8125 -222.125 C 141.320312 -222.125 127.789062 -213.039062 121.21875 -194.875 C 116.957031 -184.039062 114.828125 -169.347656 114.828125 -150.796875 C 114.828125 -134.171875 116.765625 -119.671875 120.640625 -107.296875 C 127.984375 -87.578125 141.707031 -77.71875 161.8125 -77.71875 C 171.863281 -77.71875 180.460938 -80.226562 187.609375 -85.25 C 194.765625 -90.28125 200.082031 -97.628906 203.5625 -107.296875 L 204.15625 -110.1875 C 204.539062 -112.125 205.988281 -114.15625 208.5 -116.28125 C 211.007812 -118.40625 213.617188 -119.273438 216.328125 -118.890625 L 290.5625 -107.296875 C 297.519531 -106.128906 300.421875 -102.257812 299.265625 -95.6875 C 298.492188 -89.507812 297.523438 -84.679688 296.359375 -81.203125 C 287.078125 -54.128906 270.351562 -33.050781 246.1875 -17.96875 C 222.03125 -2.894531 194.097656 4.640625 162.390625 4.640625 Z M 162.390625 4.640625 "/></g></g></g><g fill="#e3ae0a" fill-opacity="1"><g transform="translate(2921.152342, 2504.607741)"><g><path d="M 193.703125 -304.484375 C 223.867188 -304.484375 248.519531 -294.910156 267.65625 -275.765625 C 286.789062 -256.628906 296.359375 -230.628906 296.359375 -197.765625 L 296.359375 -10.4375 C 296.359375 -7.34375 295.390625 -4.828125 293.453125 -2.890625 C 291.523438 -0.960938 289.015625 0 285.921875 0 L 210.53125 0 C 207.4375 0 204.921875 -0.960938 202.984375 -2.890625 C 201.054688 -4.828125 200.09375 -7.34375 200.09375 -10.4375 L 200.09375 -176.890625 C 200.09375 -190.421875 196.515625 -201.34375 189.359375 -209.65625 C 182.203125 -217.96875 172.632812 -222.125 160.65625 -222.125 C 148.664062 -222.125 139 -217.96875 131.65625 -209.65625 C 124.3125 -201.34375 120.640625 -190.421875 120.640625 -176.890625 L 120.640625 -10.4375 C 120.640625 -7.34375 119.671875 -4.828125 117.734375 -2.890625 C 115.796875 -0.960938 113.28125 0 110.1875 0 L 34.796875 0 C 31.703125 0 29.1875 -0.960938 27.25 -2.890625 C 25.320312 -4.828125 24.359375 -7.34375 24.359375 -10.4375 L 24.359375 -395.53125 C 24.359375 -398.625 25.320312 -401.140625 27.25 -403.078125 C 29.1875 -405.015625 31.703125 -405.984375 34.796875 -405.984375 L 110.1875 -405.984375 C 113.28125 -405.984375 115.796875 -405.015625 117.734375 -403.078125 C 119.671875 -401.140625 120.640625 -398.625 120.640625 -395.53125 L 120.640625 -273.171875 C 120.640625 -271.234375 121.117188 -270.070312 122.078125 -269.6875 C 123.046875 -269.300781 123.914062 -269.878906 124.6875 -271.421875 C 140.539062 -293.460938 163.546875 -304.484375 193.703125 -304.484375 Z M 193.703125 -304.484375 "/></g></g></g><g fill="#f5f5f5" fill-opacity="1"><g transform="translate(826.157445, 2842.200892)"><g><path d="M 17.671875 0 C 15.554688 0 14.5 -1.054688 14.5 -3.171875 L 14.5 -135.84375 C 14.5 -137.957031 15.554688 -139.015625 17.671875 -139.015625 L 34.5625 -139.015625 C 36.40625 -139.015625 37.726562 -138.285156 38.53125 -136.828125 L 69.515625 -86.78125 C 69.773438 -86.382812 70.066406 -86.1875 70.390625 -86.1875 C 70.722656 -86.1875 70.957031 -86.382812 71.09375 -86.78125 L 102.46875 -136.828125 C 103.269531 -138.285156 104.597656 -139.015625 106.453125 -139.015625 L 123.125 -139.015625 C 125.25 -139.015625 126.3125 -137.957031 126.3125 -135.84375 L 126.3125 -3.171875 C 126.3125 -1.054688 125.25 0 123.125 0 L 106.453125 0 C 104.328125 0 103.265625 -1.054688 103.265625 -3.171875 L 103.265625 -97.109375 C 103.265625 -97.640625 103.097656 -97.96875 102.765625 -98.09375 C 102.441406 -98.226562 102.144531 -98.035156 101.875 -97.515625 L 78.25 -58.78125 C 77.445312 -57.320312 76.125 -56.59375 74.28125 -56.59375 L 66.53125 -56.59375 C 64.675781 -56.59375 63.351562 -57.320312 62.5625 -58.78125 L 38.921875 -97.515625 C 38.660156 -98.035156 38.363281 -98.226562 38.03125 -98.09375 C 37.695312 -97.96875 37.53125 -97.640625 37.53125 -97.109375 L 37.53125 -3.171875 C 37.53125 -1.054688 36.472656 0 34.359375 0 Z M 17.671875 0 "/></g></g></g><g fill="#f5f5f5" fill-opacity="1"><g transform="translate(966.905003, 2842.200892)"><g><path d="M 17.671875 0 C 15.554688 0 14.5 -1.054688 14.5 -3.171875 L 14.5 -135.84375 C 14.5 -137.957031 15.554688 -139.015625 17.671875 -139.015625 L 34.359375 -139.015625 C 36.472656 -139.015625 37.53125 -137.957031 37.53125 -135.84375 L 37.53125 -21.046875 C 37.53125 -20.253906 37.925781 -19.859375 38.71875 -19.859375 L 104.265625 -19.859375 C 106.378906 -19.859375 107.4375 -18.800781 107.4375 -16.6875 L 107.4375 -3.171875 C 107.4375 -1.054688 106.378906 0 104.265625 0 Z M 17.671875 0 "/></g></g></g><g fill="#f5f5f5" fill-opacity="1"><g transform="translate(1080.257468, 2842.200892)"><g><path d="M 60.96875 1.59375 C 51.039062 1.59375 42.300781 -0.359375 34.75 -4.265625 C 27.207031 -8.171875 21.382812 -13.628906 17.28125 -20.640625 C 13.175781 -27.660156 11.125 -35.804688 11.125 -45.078125 L 11.125 -94.140625 C 11.125 -103.398438 13.175781 -111.539062 17.28125 -118.5625 C 21.382812 -125.582031 27.207031 -131.007812 34.75 -134.84375 C 42.300781 -138.6875 51.039062 -140.609375 60.96875 -140.609375 C 70.769531 -140.609375 79.441406 -138.753906 86.984375 -135.046875 C 94.523438 -131.335938 100.347656 -126.109375 104.453125 -119.359375 C 108.554688 -112.609375 110.609375 -104.796875 110.609375 -95.921875 C 110.609375 -94.597656 109.617188 -93.800781 107.640625 -93.53125 L 90.75 -92.546875 L 89.96875 -92.546875 C 88.375 -92.546875 87.578125 -92.875 87.578125 -93.53125 L 87.578125 -94.734375 C 87.578125 -102.546875 85.160156 -108.832031 80.328125 -113.59375 C 75.492188 -118.363281 69.039062 -120.75 60.96875 -120.75 C 52.894531 -120.75 46.40625 -118.363281 41.5 -113.59375 C 36.601562 -108.832031 34.15625 -102.546875 34.15625 -94.734375 L 34.15625 -44.09375 C 34.15625 -36.40625 36.601562 -30.175781 41.5 -25.40625 C 46.40625 -20.644531 52.894531 -18.265625 60.96875 -18.265625 C 69.039062 -18.265625 75.492188 -20.613281 80.328125 -25.3125 C 85.160156 -30.019531 87.578125 -36.28125 87.578125 -44.09375 C 87.578125 -44.75 87.875 -45.304688 88.46875 -45.765625 C 89.070312 -46.234375 89.832031 -46.398438 90.75 -46.265625 L 107.4375 -45.484375 C 109.550781 -45.210938 110.609375 -44.878906 110.609375 -44.484375 L 110.609375 -43.484375 C 110.609375 -34.484375 108.554688 -26.570312 104.453125 -19.75 C 100.347656 -12.9375 94.523438 -7.675781 86.984375 -3.96875 C 79.441406 -0.257812 70.769531 1.59375 60.96875 1.59375 Z M 60.96875 1.59375 "/></g></g></g><g fill="#f5f5f5" fill-opacity="1"><g transform="translate(1200.954979, 2842.200892)"><g/></g></g><g fill="#f5f5f5" fill-opacity="1"><g transform="translate(1240.658079, 2842.200892)"><g><path d="M 97.90625 -75.265625 C 100.15625 -68.515625 101.28125 -60.4375 101.28125 -51.03125 C 101.28125 -41.894531 100.085938 -33.625 97.703125 -26.21875 C 94.796875 -17.613281 90.03125 -10.828125 83.40625 -5.859375 C 76.789062 -0.890625 68.847656 1.59375 59.578125 1.59375 C 50.179688 1.59375 42.632812 -1.847656 36.9375 -8.734375 C 36.675781 -9.265625 36.378906 -9.460938 36.046875 -9.328125 C 35.710938 -9.203125 35.546875 -8.875 35.546875 -8.34375 L 35.546875 -3.171875 C 35.546875 -1.054688 34.488281 0 32.375 0 L 15.6875 0 C 13.570312 0 12.515625 -1.054688 12.515625 -3.171875 L 12.515625 -135.84375 C 12.515625 -137.957031 13.570312 -139.015625 15.6875 -139.015625 L 32.375 -139.015625 C 34.488281 -139.015625 35.546875 -137.957031 35.546875 -135.84375 L 35.546875 -93.734375 C 35.546875 -93.203125 35.710938 -92.90625 36.046875 -92.84375 C 36.378906 -92.78125 36.675781 -92.945312 36.9375 -93.34375 C 42.757812 -99.820312 50.304688 -103.0625 59.578125 -103.0625 C 69.242188 -103.0625 77.316406 -100.613281 83.796875 -95.71875 C 90.285156 -90.820312 94.988281 -84.003906 97.90625 -75.265625 Z M 72.6875 -28 C 75.863281 -33.5625 77.453125 -41.109375 77.453125 -50.640625 C 77.453125 -60.960938 75.53125 -69.039062 71.6875 -74.875 C 67.976562 -80.425781 62.6875 -83.203125 55.8125 -83.203125 C 49.445312 -83.203125 44.476562 -80.289062 40.90625 -74.46875 C 37.601562 -69.039062 35.953125 -61.164062 35.953125 -50.84375 C 35.953125 -40.644531 37.472656 -32.960938 40.515625 -27.796875 C 44.222656 -21.578125 49.382812 -18.46875 56 -18.46875 C 63.675781 -18.46875 69.238281 -21.644531 72.6875 -28 Z M 72.6875 -28 "/></g></g></g><g fill="#f5f5f5" fill-opacity="1"><g transform="translate(1350.040245, 2842.200892)"><g><path d="M 57.796875 -17.875 C 62.691406 -18.007812 66.957031 -19.035156 70.59375 -20.953125 C 74.238281 -22.867188 77.1875 -25.484375 79.4375 -28.796875 C 80.101562 -29.859375 80.960938 -30.390625 82.015625 -30.390625 C 82.679688 -30.390625 83.28125 -30.191406 83.8125 -29.796875 L 93.34375 -22.25 C 94.269531 -21.320312 94.734375 -20.457031 94.734375 -19.65625 C 94.734375 -19.125 94.535156 -18.53125 94.140625 -17.875 C 90.296875 -11.78125 85.0625 -7.007812 78.4375 -3.5625 C 71.820312 -0.125 64.210938 1.59375 55.609375 1.59375 C 45.148438 1.59375 36.378906 -0.890625 29.296875 -5.859375 C 22.210938 -10.828125 17.082031 -17.742188 13.90625 -26.609375 C 11.257812 -33.890625 9.9375 -42.097656 9.9375 -51.234375 C 9.9375 -60.367188 10.660156 -67.382812 12.109375 -72.28125 C 14.628906 -81.6875 19.59375 -89.164062 27 -94.71875 C 34.414062 -100.28125 43.421875 -103.0625 54.015625 -103.0625 C 78.773438 -103.0625 93.273438 -89.492188 97.515625 -62.359375 C 98.171875 -57.992188 98.632812 -52.566406 98.90625 -46.078125 C 98.90625 -43.953125 97.84375 -42.890625 95.71875 -42.890625 L 34.15625 -42.890625 C 33.363281 -42.890625 32.96875 -42.492188 32.96875 -41.703125 C 32.96875 -38.128906 33.363281 -35.21875 34.15625 -32.96875 C 35.613281 -28.195312 38.394531 -24.488281 42.5 -21.84375 C 46.601562 -19.195312 51.703125 -17.875 57.796875 -17.875 Z M 53.8125 -83.203125 C 48.78125 -83.203125 44.644531 -81.976562 41.40625 -79.53125 C 38.164062 -77.082031 35.945312 -73.675781 34.75 -69.3125 C 33.820312 -66.664062 33.296875 -63.882812 33.171875 -60.96875 C 33.035156 -60.175781 33.363281 -59.78125 34.15625 -59.78125 L 74.078125 -59.78125 C 74.867188 -59.78125 75.265625 -60.175781 75.265625 -60.96875 C 74.734375 -64.9375 74.335938 -67.320312 74.078125 -68.125 C 72.878906 -72.75 70.523438 -76.414062 67.015625 -79.125 C 63.515625 -81.84375 59.113281 -83.203125 53.8125 -83.203125 Z M 53.8125 -83.203125 "/></g></g></g><g fill="#f5f5f5" fill-opacity="1"><g transform="translate(1457.635759, 2842.200892)"><g><path d="M 60.96875 -103.0625 C 71.820312 -103.0625 80.457031 -99.882812 86.875 -93.53125 C 93.300781 -87.175781 96.515625 -78.503906 96.515625 -67.515625 L 96.515625 -3.171875 C 96.515625 -1.054688 95.457031 0 93.34375 0 L 76.65625 0 C 74.539062 0 73.484375 -1.054688 73.484375 -3.171875 L 73.484375 -62.75 C 73.484375 -68.84375 71.726562 -73.773438 68.21875 -77.546875 C 64.707031 -81.316406 60.109375 -83.203125 54.421875 -83.203125 C 48.722656 -83.203125 44.117188 -81.347656 40.609375 -77.640625 C 37.097656 -73.941406 35.34375 -69.046875 35.34375 -62.953125 L 35.34375 -3.171875 C 35.34375 -1.054688 34.285156 0 32.171875 0 L 15.484375 0 C 13.367188 0 12.3125 -1.054688 12.3125 -3.171875 L 12.3125 -98.296875 C 12.3125 -100.421875 13.367188 -101.484375 15.484375 -101.484375 L 32.171875 -101.484375 C 34.285156 -101.484375 35.34375 -100.421875 35.34375 -98.296875 L 35.34375 -92.9375 C 35.34375 -92.40625 35.472656 -92.070312 35.734375 -91.9375 C 36.003906 -91.8125 36.273438 -91.945312 36.546875 -92.34375 C 42.097656 -99.488281 50.238281 -103.0625 60.96875 -103.0625 Z M 60.96875 -103.0625 "/></g></g></g><g fill="#f5f5f5" fill-opacity="1"><g transform="translate(1565.62827, 2842.200892)"><g><path d="M 54.609375 1.59375 C 44.421875 1.59375 35.617188 -1.019531 28.203125 -6.25 C 20.785156 -11.476562 15.617188 -18.53125 12.703125 -27.40625 C 10.585938 -33.363281 9.53125 -41.304688 9.53125 -51.234375 C 9.53125 -60.765625 10.585938 -68.578125 12.703125 -74.671875 C 15.484375 -83.410156 20.613281 -90.328125 28.09375 -95.421875 C 35.582031 -100.515625 44.421875 -103.0625 54.609375 -103.0625 C 64.941406 -103.0625 73.945312 -100.476562 81.625 -95.3125 C 89.300781 -90.15625 94.394531 -83.671875 96.90625 -75.859375 C 97.3125 -74.671875 97.710938 -72.816406 98.109375 -70.296875 L 98.109375 -69.515625 C 98.109375 -68.054688 97.25 -67.128906 95.53125 -66.734375 L 79.046875 -64.140625 L 78.25 -64.140625 C 76.789062 -64.140625 75.863281 -64.9375 75.46875 -66.53125 L 74.875 -69.109375 C 73.945312 -73.078125 71.628906 -76.414062 67.921875 -79.125 C 64.210938 -81.84375 59.773438 -83.203125 54.609375 -83.203125 C 49.578125 -83.203125 45.304688 -81.910156 41.796875 -79.328125 C 38.296875 -76.753906 35.945312 -73.21875 34.75 -68.71875 C 33.425781 -64.476562 32.765625 -58.582031 32.765625 -51.03125 C 32.765625 -43.75 33.363281 -37.859375 34.5625 -33.359375 C 35.882812 -28.722656 38.265625 -25.046875 41.703125 -22.328125 C 45.148438 -19.617188 49.453125 -18.265625 54.609375 -18.265625 C 59.640625 -18.265625 63.972656 -19.554688 67.609375 -22.140625 C 71.253906 -24.722656 73.609375 -28.132812 74.671875 -32.375 L 74.875 -33.359375 C 75 -34.023438 75.425781 -34.6875 76.15625 -35.34375 C 76.882812 -36.007812 77.710938 -36.273438 78.640625 -36.140625 L 95.125 -33.5625 C 96.84375 -33.164062 97.703125 -32.238281 97.703125 -30.78125 C 97.703125 -29.988281 97.4375 -28.398438 96.90625 -26.015625 C 94.394531 -17.546875 89.300781 -10.828125 81.625 -5.859375 C 73.945312 -0.890625 64.941406 1.59375 54.609375 1.59375 Z M 54.609375 1.59375 "/></g></g></g><g fill="#f5f5f5" fill-opacity="1"><g transform="translate(1671.040023, 2842.200892)"><g><path d="M 60.96875 -103.0625 C 71.820312 -103.0625 80.457031 -99.882812 86.875 -93.53125 C 93.300781 -87.175781 96.515625 -78.503906 96.515625 -67.515625 L 96.515625 -3.171875 C 96.515625 -1.054688 95.457031 0 93.34375 0 L 76.65625 0 C 74.539062 0 73.484375 -1.054688 73.484375 -3.171875 L 73.484375 -62.75 C 73.484375 -68.84375 71.726562 -73.773438 68.21875 -77.546875 C 64.707031 -81.316406 60.109375 -83.203125 54.421875 -83.203125 C 48.722656 -83.203125 44.117188 -81.347656 40.609375 -77.640625 C 37.097656 -73.941406 35.34375 -69.046875 35.34375 -62.953125 L 35.34375 -3.171875 C 35.34375 -1.054688 34.285156 0 32.171875 0 L 15.484375 0 C 13.367188 0 12.3125 -1.054688 12.3125 -3.171875 L 12.3125 -135.84375 C 12.3125 -137.957031 13.367188 -139.015625 15.484375 -139.015625 L 32.171875 -139.015625 C 34.285156 -139.015625 35.34375 -137.957031 35.34375 -135.84375 L 35.34375 -92.9375 C 35.34375 -92.40625 35.472656 -92.070312 35.734375 -91.9375 C 36.003906 -91.8125 36.273438 -91.945312 36.546875 -92.34375 C 42.097656 -99.488281 50.238281 -103.0625 60.96875 -103.0625 Z M 60.96875 -103.0625 "/></g></g></g><g fill="#f5f5f5" fill-opacity="1"><g transform="translate(1779.032533, 2842.200892)"><g><path d="M 120.9375 -103.0625 C 131.132812 -103.0625 139.113281 -99.984375 144.875 -93.828125 C 150.632812 -87.671875 153.515625 -79.101562 153.515625 -68.125 L 153.515625 -3.171875 C 153.515625 -1.054688 152.453125 0 150.328125 0 L 133.859375 0 C 131.734375 0 130.671875 -1.054688 130.671875 -3.171875 L 130.671875 -63.34375 C 130.671875 -69.4375 129.046875 -74.269531 125.796875 -77.84375 C 122.554688 -81.414062 118.222656 -83.203125 112.796875 -83.203125 C 107.367188 -83.203125 102.929688 -81.414062 99.484375 -77.84375 C 96.046875 -74.269531 94.328125 -69.503906 94.328125 -63.546875 L 94.328125 -3.171875 C 94.328125 -1.054688 93.269531 0 91.15625 0 L 74.671875 0 C 72.554688 0 71.5 -1.054688 71.5 -3.171875 L 71.5 -63.34375 C 71.5 -69.4375 69.84375 -74.269531 66.53125 -77.84375 C 63.21875 -81.414062 58.847656 -83.203125 53.421875 -83.203125 C 48.390625 -83.203125 44.25 -81.742188 41 -78.828125 C 37.757812 -75.921875 35.875 -71.953125 35.34375 -66.921875 L 35.34375 -3.171875 C 35.34375 -1.054688 34.285156 0 32.171875 0 L 15.484375 0 C 13.367188 0 12.3125 -1.054688 12.3125 -3.171875 L 12.3125 -98.296875 C 12.3125 -100.421875 13.367188 -101.484375 15.484375 -101.484375 L 32.171875 -101.484375 C 34.285156 -101.484375 35.34375 -100.421875 35.34375 -98.296875 L 35.34375 -92.9375 C 35.34375 -92.40625 35.507812 -92.070312 35.84375 -91.9375 C 36.175781 -91.8125 36.472656 -92.015625 36.734375 -92.546875 C 42.429688 -99.554688 50.773438 -103.0625 61.765625 -103.0625 C 68.253906 -103.0625 73.910156 -101.769531 78.734375 -99.1875 C 83.566406 -96.613281 87.3125 -92.8125 89.96875 -87.78125 C 90.226562 -87.382812 90.523438 -87.1875 90.859375 -87.1875 C 91.191406 -87.1875 91.421875 -87.453125 91.546875 -87.984375 C 94.597656 -93.015625 98.703125 -96.785156 103.859375 -99.296875 C 109.023438 -101.804688 114.71875 -103.0625 120.9375 -103.0625 Z M 120.9375 -103.0625 "/></g></g></g><g fill="#f5f5f5" fill-opacity="1"><g transform="translate(1943.601995, 2842.200892)"><g><path d="M 51.03125 -103.0625 C 59.375 -103.0625 66.753906 -101.601562 73.171875 -98.6875 C 79.597656 -95.78125 84.53125 -91.78125 87.96875 -86.6875 C 91.414062 -81.59375 93.140625 -75.800781 93.140625 -69.3125 L 93.140625 -3.171875 C 93.140625 -1.054688 92.082031 0 89.96875 0 L 73.28125 0 C 71.164062 0 70.109375 -1.054688 70.109375 -3.171875 L 70.109375 -8.140625 C 70.109375 -8.671875 69.972656 -8.96875 69.703125 -9.03125 C 69.441406 -9.101562 69.113281 -9.003906 68.71875 -8.734375 C 61.5625 -1.847656 52.023438 1.59375 40.109375 1.59375 C 30.316406 1.59375 22.273438 -0.921875 15.984375 -5.953125 C 9.691406 -10.984375 6.546875 -18.46875 6.546875 -28.40625 C 6.546875 -38.726562 10.15625 -46.769531 17.375 -52.53125 C 24.59375 -58.289062 34.753906 -61.171875 47.859375 -61.171875 L 68.90625 -61.171875 C 69.707031 -61.171875 70.109375 -61.566406 70.109375 -62.359375 L 70.109375 -66.921875 C 70.109375 -72.085938 68.550781 -76.09375 65.4375 -78.9375 C 62.320312 -81.78125 57.722656 -83.203125 51.640625 -83.203125 C 47.003906 -83.203125 43.160156 -82.375 40.109375 -80.71875 C 37.066406 -79.070312 35.015625 -76.789062 33.953125 -73.875 C 33.429688 -72.019531 32.242188 -71.160156 30.390625 -71.296875 L 12.515625 -73.484375 C 11.453125 -73.609375 10.65625 -73.898438 10.125 -74.359375 C 9.59375 -74.828125 9.394531 -75.394531 9.53125 -76.0625 C 10.71875 -84.007812 15.117188 -90.492188 22.734375 -95.515625 C 30.347656 -100.546875 39.78125 -103.0625 51.03125 -103.0625 Z M 46.46875 -16.6875 C 52.957031 -16.6875 58.519531 -18.40625 63.15625 -21.84375 C 67.789062 -25.289062 70.109375 -29.660156 70.109375 -34.953125 L 70.109375 -44.09375 C 70.109375 -44.882812 69.707031 -45.28125 68.90625 -45.28125 L 52.421875 -45.28125 C 45.410156 -45.28125 39.851562 -43.953125 35.75 -41.296875 C 31.644531 -38.648438 29.59375 -34.878906 29.59375 -29.984375 C 29.59375 -25.742188 31.179688 -22.46875 34.359375 -20.15625 C 37.535156 -17.84375 41.570312 -16.6875 46.46875 -16.6875 Z M 46.46875 -16.6875 "/></g></g></g><g fill="#f5f5f5" fill-opacity="1"><g transform="translate(2047.227211, 2842.200892)"><g><path d="M 59.578125 -102.671875 C 63.421875 -102.671875 66.929688 -101.941406 70.109375 -100.484375 C 71.691406 -99.691406 72.285156 -98.367188 71.890625 -96.515625 L 68.71875 -80.03125 C 68.582031 -78.96875 68.21875 -78.304688 67.625 -78.046875 C 67.03125 -77.785156 66.132812 -77.785156 64.9375 -78.046875 C 63.351562 -78.578125 61.234375 -78.84375 58.578125 -78.84375 C 56.992188 -78.84375 55.738281 -78.773438 54.8125 -78.640625 C 49.25 -78.378906 44.613281 -76.425781 40.90625 -72.78125 C 37.195312 -69.144531 35.34375 -64.410156 35.34375 -58.578125 L 35.34375 -3.171875 C 35.34375 -1.054688 34.285156 0 32.171875 0 L 15.484375 0 C 13.367188 0 12.3125 -1.054688 12.3125 -3.171875 L 12.3125 -98.296875 C 12.3125 -100.421875 13.367188 -101.484375 15.484375 -101.484375 L 32.171875 -101.484375 C 34.285156 -101.484375 35.34375 -100.421875 35.34375 -98.296875 L 35.34375 -90.5625 C 35.34375 -90.03125 35.472656 -89.695312 35.734375 -89.5625 C 36.003906 -89.4375 36.273438 -89.632812 36.546875 -90.15625 C 42.097656 -98.5 49.773438 -102.671875 59.578125 -102.671875 Z M 59.578125 -102.671875 "/></g></g></g><g fill="#f5f5f5" fill-opacity="1"><g transform="translate(2121.869121, 2842.200892)"><g><path d="M 15.484375 0 C 13.367188 0 12.3125 -1.054688 12.3125 -3.171875 L 12.3125 -135.84375 C 12.3125 -137.957031 13.367188 -139.015625 15.484375 -139.015625 L 32.171875 -139.015625 C 34.285156 -139.015625 35.34375 -137.957031 35.34375 -135.84375 L 35.34375 -65.34375 C 35.34375 -64.8125 35.507812 -64.476562 35.84375 -64.34375 C 36.175781 -64.207031 36.472656 -64.335938 36.734375 -64.734375 L 68.3125 -99.6875 C 69.375 -100.882812 70.695312 -101.484375 72.28125 -101.484375 L 91.359375 -101.484375 C 92.148438 -101.484375 92.8125 -101.285156 93.34375 -100.890625 C 93.875 -100.492188 94.140625 -100.03125 94.140625 -99.5 C 94.140625 -98.695312 93.875 -98.035156 93.34375 -97.515625 L 68.90625 -68.515625 C 68.507812 -68.117188 68.445312 -67.585938 68.71875 -66.921875 L 98.109375 -3.765625 L 98.5 -2.1875 C 98.5 -0.726562 97.570312 0 95.71875 0 L 78.046875 0 C 76.328125 0 75.132812 -0.796875 74.46875 -2.390625 L 53.03125 -52.03125 C 52.625 -52.820312 52.09375 -52.890625 51.4375 -52.234375 L 35.953125 -34.15625 C 35.546875 -33.625 35.34375 -33.160156 35.34375 -32.765625 L 35.34375 -3.171875 C 35.34375 -1.054688 34.285156 0 32.171875 0 Z M 15.484375 0 "/></g></g></g><g fill="#f5f5f5" fill-opacity="1"><g transform="translate(2225.494337, 2842.200892)"><g><path d="M 25.421875 -114.1875 C 21.046875 -114.1875 17.46875 -115.539062 14.6875 -118.25 C 11.914062 -120.96875 10.53125 -124.445312 10.53125 -128.6875 C 10.53125 -132.925781 11.914062 -136.367188 14.6875 -139.015625 C 17.46875 -141.660156 21.046875 -142.984375 25.421875 -142.984375 C 29.785156 -142.984375 33.320312 -141.660156 36.03125 -139.015625 C 38.75 -136.367188 40.109375 -132.925781 40.109375 -128.6875 C 40.109375 -124.445312 38.75 -120.96875 36.03125 -118.25 C 33.320312 -115.539062 29.785156 -114.1875 25.421875 -114.1875 Z M 17.078125 0 C 14.960938 0 13.90625 -1.054688 13.90625 -3.171875 L 13.90625 -98.296875 C 13.90625 -100.421875 14.960938 -101.484375 17.078125 -101.484375 L 33.765625 -101.484375 C 35.878906 -101.484375 36.9375 -100.421875 36.9375 -98.296875 L 36.9375 -3.171875 C 36.9375 -1.054688 35.878906 0 33.765625 0 Z M 17.078125 0 "/></g></g></g><g fill="#f5f5f5" fill-opacity="1"><g transform="translate(2276.115787, 2842.200892)"><g><path d="M 60.96875 -103.0625 C 71.820312 -103.0625 80.457031 -99.882812 86.875 -93.53125 C 93.300781 -87.175781 96.515625 -78.503906 96.515625 -67.515625 L 96.515625 -3.171875 C 96.515625 -1.054688 95.457031 0 93.34375 0 L 76.65625 0 C 74.539062 0 73.484375 -1.054688 73.484375 -3.171875 L 73.484375 -62.75 C 73.484375 -68.84375 71.726562 -73.773438 68.21875 -77.546875 C 64.707031 -81.316406 60.109375 -83.203125 54.421875 -83.203125 C 48.722656 -83.203125 44.117188 -81.347656 40.609375 -77.640625 C 37.097656 -73.941406 35.34375 -69.046875 35.34375 -62.953125 L 35.34375 -3.171875 C 35.34375 -1.054688 34.285156 0 32.171875 0 L 15.484375 0 C 13.367188 0 12.3125 -1.054688 12.3125 -3.171875 L 12.3125 -98.296875 C 12.3125 -100.421875 13.367188 -101.484375 15.484375 -101.484375 L 32.171875 -101.484375 C 34.285156 -101.484375 35.34375 -100.421875 35.34375 -98.296875 L 35.34375 -92.9375 C 35.34375 -92.40625 35.472656 -92.070312 35.734375 -91.9375 C 36.003906 -91.8125 36.273438 -91.945312 36.546875 -92.34375 C 42.097656 -99.488281 50.238281 -103.0625 60.96875 -103.0625 Z M 60.96875 -103.0625 "/></g></g></g><g fill="#f5f5f5" fill-opacity="1"><g transform="translate(2384.108298, 2842.200892)"><g><path d="M 74.46875 -98.296875 C 74.46875 -100.421875 75.53125 -101.484375 77.65625 -101.484375 L 94.328125 -101.484375 C 96.453125 -101.484375 97.515625 -100.421875 97.515625 -98.296875 L 97.515625 -6.75 C 97.515625 9.800781 92.742188 21.648438 83.203125 28.796875 C 73.671875 35.941406 61.226562 39.515625 45.875 39.515625 C 42.164062 39.515625 38.394531 39.316406 34.5625 38.921875 C 32.707031 38.785156 31.78125 37.59375 31.78125 35.34375 L 32.375 20.65625 C 32.375 19.726562 32.703125 19 33.359375 18.46875 C 34.023438 17.9375 34.890625 17.738281 35.953125 17.875 C 40.453125 18.132812 43.5625 18.265625 45.28125 18.265625 C 55.34375 18.265625 62.722656 16.3125 67.421875 12.40625 C 72.117188 8.5 74.46875 1.914062 74.46875 -7.34375 L 74.46875 -8.546875 C 74.46875 -9.066406 74.332031 -9.394531 74.0625 -9.53125 C 73.800781 -9.664062 73.472656 -9.535156 73.078125 -9.140625 C 67.648438 -3.441406 60.039062 -0.59375 50.25 -0.59375 C 41.632812 -0.59375 33.753906 -2.773438 26.609375 -7.140625 C 19.460938 -11.515625 14.5 -18.203125 11.71875 -27.203125 C 10 -33.429688 9.140625 -41.441406 9.140625 -51.234375 C 9.140625 -62.222656 10.195312 -70.628906 12.3125 -76.453125 C 14.957031 -84.535156 19.523438 -90.988281 26.015625 -95.8125 C 32.503906 -100.644531 40.117188 -103.0625 48.859375 -103.0625 C 59.046875 -103.0625 67.117188 -100.085938 73.078125 -94.140625 C 73.472656 -93.734375 73.800781 -93.597656 74.0625 -93.734375 C 74.332031 -93.867188 74.46875 -94.203125 74.46875 -94.734375 Z M 73.078125 -33.765625 C 73.609375 -35.742188 73.972656 -37.890625 74.171875 -40.203125 C 74.367188 -42.523438 74.46875 -46.269531 74.46875 -51.4375 C 74.46875 -56.46875 74.367188 -60.070312 74.171875 -62.25 C 73.972656 -64.4375 73.546875 -66.59375 72.890625 -68.71875 C 71.828125 -73.082031 69.671875 -76.585938 66.421875 -79.234375 C 63.179688 -81.878906 59.046875 -83.203125 54.015625 -83.203125 C 49.253906 -83.203125 45.21875 -81.878906 41.90625 -79.234375 C 38.59375 -76.585938 36.207031 -73.082031 34.75 -68.71875 C 33.164062 -65.007812 32.375 -59.179688 32.375 -51.234375 C 32.375 -43.023438 33.035156 -37.265625 34.359375 -33.953125 C 35.679688 -29.722656 38.097656 -26.25 41.609375 -23.53125 C 45.117188 -20.820312 49.320312 -19.46875 54.21875 -19.46875 C 59.382812 -19.46875 63.554688 -20.789062 66.734375 -23.4375 C 69.910156 -26.082031 72.023438 -29.523438 73.078125 -33.765625 Z M 73.078125 -33.765625 "/></g></g></g><g fill="#f5f5f5" fill-opacity="1"><g transform="translate(2493.093354, 2842.200892)"><g/></g></g><g fill="#f5f5f5" fill-opacity="1"><g transform="translate(2532.796454, 2842.200892)"><g><path d="M 73.875 -135.84375 C 73.875 -137.957031 74.929688 -139.015625 77.046875 -139.015625 L 93.734375 -139.015625 C 95.847656 -139.015625 96.90625 -137.957031 96.90625 -135.84375 L 96.90625 -3.171875 C 96.90625 -1.054688 95.847656 0 93.734375 0 L 77.046875 0 C 74.929688 0 73.875 -1.054688 73.875 -3.171875 L 73.875 -8.34375 C 73.875 -8.875 73.707031 -9.203125 73.375 -9.328125 C 73.050781 -9.460938 72.753906 -9.265625 72.484375 -8.734375 C 66.796875 -1.847656 59.25 1.59375 49.84375 1.59375 C 40.582031 1.59375 32.640625 -0.890625 26.015625 -5.859375 C 19.398438 -10.828125 14.632812 -17.613281 11.71875 -26.21875 C 9.332031 -33.625 8.140625 -41.894531 8.140625 -51.03125 C 8.140625 -60.4375 9.265625 -68.515625 11.515625 -75.265625 C 14.429688 -84.003906 19.128906 -90.820312 25.609375 -95.71875 C 32.097656 -100.613281 40.175781 -103.0625 49.84375 -103.0625 C 59.113281 -103.0625 66.660156 -99.820312 72.484375 -93.34375 C 72.753906 -92.945312 73.050781 -92.78125 73.375 -92.84375 C 73.707031 -92.90625 73.875 -93.203125 73.875 -93.734375 Z M 68.90625 -27.796875 C 71.957031 -32.960938 73.484375 -40.644531 73.484375 -50.84375 C 73.484375 -61.164062 71.828125 -69.039062 68.515625 -74.46875 C 64.941406 -80.289062 59.976562 -83.203125 53.625 -83.203125 C 46.738281 -83.203125 41.441406 -80.425781 37.734375 -74.875 C 33.890625 -69.039062 31.96875 -60.960938 31.96875 -50.640625 C 31.96875 -41.109375 33.554688 -33.5625 36.734375 -28 C 40.179688 -21.644531 45.742188 -18.46875 53.421875 -18.46875 C 60.035156 -18.46875 65.195312 -21.578125 68.90625 -27.796875 Z M 68.90625 -27.796875 "/></g></g></g><g fill="#f5f5f5" fill-opacity="1"><g transform="translate(2642.17862, 2842.200892)"><g><path d="M 51.03125 -103.0625 C 59.375 -103.0625 66.753906 -101.601562 73.171875 -98.6875 C 79.597656 -95.78125 84.53125 -91.78125 87.96875 -86.6875 C 91.414062 -81.59375 93.140625 -75.800781 93.140625 -69.3125 L 93.140625 -3.171875 C 93.140625 -1.054688 92.082031 0 89.96875 0 L 73.28125 0 C 71.164062 0 70.109375 -1.054688 70.109375 -3.171875 L 70.109375 -8.140625 C 70.109375 -8.671875 69.972656 -8.96875 69.703125 -9.03125 C 69.441406 -9.101562 69.113281 -9.003906 68.71875 -8.734375 C 61.5625 -1.847656 52.023438 1.59375 40.109375 1.59375 C 30.316406 1.59375 22.273438 -0.921875 15.984375 -5.953125 C 9.691406 -10.984375 6.546875 -18.46875 6.546875 -28.40625 C 6.546875 -38.726562 10.15625 -46.769531 17.375 -52.53125 C 24.59375 -58.289062 34.753906 -61.171875 47.859375 -61.171875 L 68.90625 -61.171875 C 69.707031 -61.171875 70.109375 -61.566406 70.109375 -62.359375 L 70.109375 -66.921875 C 70.109375 -72.085938 68.550781 -76.09375 65.4375 -78.9375 C 62.320312 -81.78125 57.722656 -83.203125 51.640625 -83.203125 C 47.003906 -83.203125 43.160156 -82.375 40.109375 -80.71875 C 37.066406 -79.070312 35.015625 -76.789062 33.953125 -73.875 C 33.429688 -72.019531 32.242188 -71.160156 30.390625 -71.296875 L 12.515625 -73.484375 C 11.453125 -73.609375 10.65625 -73.898438 10.125 -74.359375 C 9.59375 -74.828125 9.394531 -75.394531 9.53125 -76.0625 C 10.71875 -84.007812 15.117188 -90.492188 22.734375 -95.515625 C 30.347656 -100.546875 39.78125 -103.0625 51.03125 -103.0625 Z M 46.46875 -16.6875 C 52.957031 -16.6875 58.519531 -18.40625 63.15625 -21.84375 C 67.789062 -25.289062 70.109375 -29.660156 70.109375 -34.953125 L 70.109375 -44.09375 C 70.109375 -44.882812 69.707031 -45.28125 68.90625 -45.28125 L 52.421875 -45.28125 C 45.410156 -45.28125 39.851562 -43.953125 35.75 -41.296875 C 31.644531 -38.648438 29.59375 -34.878906 29.59375 -29.984375 C 29.59375 -25.742188 31.179688 -22.46875 34.359375 -20.15625 C 37.535156 -17.84375 41.570312 -16.6875 46.46875 -16.6875 Z M 46.46875 -16.6875 "/></g></g></g><g fill="#f5f5f5" fill-opacity="1"><g transform="translate(2745.803837, 2842.200892)"><g><path d="M 66.125 -85.984375 C 66.125 -83.867188 65.066406 -82.8125 62.953125 -82.8125 L 43.6875 -82.8125 C 42.894531 -82.8125 42.5 -82.414062 42.5 -81.625 L 42.5 -34.75 C 42.5 -29.59375 43.585938 -25.882812 45.765625 -23.625 C 47.953125 -21.375 51.429688 -20.25 56.203125 -20.25 L 61.359375 -20.25 C 63.484375 -20.25 64.546875 -19.191406 64.546875 -17.078125 L 64.546875 -3.765625 C 64.546875 -1.648438 63.484375 -0.523438 61.359375 -0.390625 L 51.828125 -0.203125 C 41.367188 -0.203125 33.554688 -2.019531 28.390625 -5.65625 C 23.234375 -9.300781 20.585938 -16.085938 20.453125 -26.015625 L 20.453125 -81.625 C 20.453125 -82.414062 20.054688 -82.8125 19.265625 -82.8125 L 8.9375 -82.8125 C 6.820312 -82.8125 5.765625 -83.867188 5.765625 -85.984375 L 5.765625 -98.296875 C 5.765625 -100.421875 6.820312 -101.484375 8.9375 -101.484375 L 19.265625 -101.484375 C 20.054688 -101.484375 20.453125 -101.878906 20.453125 -102.671875 L 20.453125 -124.921875 C 20.453125 -127.035156 21.507812 -128.09375 23.625 -128.09375 L 39.328125 -128.09375 C 41.441406 -128.09375 42.5 -127.035156 42.5 -124.921875 L 42.5 -102.671875 C 42.5 -101.878906 42.894531 -101.484375 43.6875 -101.484375 L 62.953125 -101.484375 C 65.066406 -101.484375 66.125 -100.421875 66.125 -98.296875 Z M 66.125 -85.984375 "/></g></g></g><g fill="#f5f5f5" fill-opacity="1"><g transform="translate(2820.048638, 2842.200892)"><g><path d="M 51.03125 -103.0625 C 59.375 -103.0625 66.753906 -101.601562 73.171875 -98.6875 C 79.597656 -95.78125 84.53125 -91.78125 87.96875 -86.6875 C 91.414062 -81.59375 93.140625 -75.800781 93.140625 -69.3125 L 93.140625 -3.171875 C 93.140625 -1.054688 92.082031 0 89.96875 0 L 73.28125 0 C 71.164062 0 70.109375 -1.054688 70.109375 -3.171875 L 70.109375 -8.140625 C 70.109375 -8.671875 69.972656 -8.96875 69.703125 -9.03125 C 69.441406 -9.101562 69.113281 -9.003906 68.71875 -8.734375 C 61.5625 -1.847656 52.023438 1.59375 40.109375 1.59375 C 30.316406 1.59375 22.273438 -0.921875 15.984375 -5.953125 C 9.691406 -10.984375 6.546875 -18.46875 6.546875 -28.40625 C 6.546875 -38.726562 10.15625 -46.769531 17.375 -52.53125 C 24.59375 -58.289062 34.753906 -61.171875 47.859375 -61.171875 L 68.90625 -61.171875 C 69.707031 -61.171875 70.109375 -61.566406 70.109375 -62.359375 L 70.109375 -66.921875 C 70.109375 -72.085938 68.550781 -76.09375 65.4375 -78.9375 C 62.320312 -81.78125 57.722656 -83.203125 51.640625 -83.203125 C 47.003906 -83.203125 43.160156 -82.375 40.109375 -80.71875 C 37.066406 -79.070312 35.015625 -76.789062 33.953125 -73.875 C 33.429688 -72.019531 32.242188 -71.160156 30.390625 -71.296875 L 12.515625 -73.484375 C 11.453125 -73.609375 10.65625 -73.898438 10.125 -74.359375 C 9.59375 -74.828125 9.394531 -75.394531 9.53125 -76.0625 C 10.71875 -84.007812 15.117188 -90.492188 22.734375 -95.515625 C 30.347656 -100.546875 39.78125 -103.0625 51.03125 -103.0625 Z M 46.46875 -16.6875 C 52.957031 -16.6875 58.519531 -18.40625 63.15625 -21.84375 C 67.789062 -25.289062 70.109375 -29.660156 70.109375 -34.953125 L 70.109375 -44.09375 C 70.109375 -44.882812 69.707031 -45.28125 68.90625 -45.28125 L 52.421875 -45.28125 C 45.410156 -45.28125 39.851562 -43.953125 35.75 -41.296875 C 31.644531 -38.648438 29.59375 -34.878906 29.59375 -29.984375 C 29.59375 -25.742188 31.179688 -22.46875 34.359375 -20.15625 C 37.535156 -17.84375 41.570312 -16.6875 46.46875 -16.6875 Z M 46.46875 -16.6875 "/></g></g></g></svg>