<svg xmlns="http://www.w3.org/2000/svg" xmlns:xlink="http://www.w3.org/1999/xlink" width="5000" zoomAndPan="magnify" viewBox="0 0 3750 3749.999967" height="5000" preserveAspectRatio="xMidYMid meet" version="1.0"><defs><clipPath id="3ca82e15b7"><path d="M 19.628906 0 L 3730.628906 0 L 3730.628906 3711 L 19.628906 3711 Z M 19.628906 0 " clip-rule="nonzero"/></clipPath><clipPath id="2e1a2cbdb2"><path d="M 956 768.78125 L 2795 768.78125 L 2795 2241 L 956 2241 Z M 956 768.78125 " clip-rule="nonzero"/></clipPath></defs><g clip-path="url(#3ca82e15b7)"><path fill="#e3ae0a" d="M 1874.996094 3710.730469 C 849.960938 3710.730469 19.628906 2874.671875 19.628906 1855.367188 C 19.628906 836.058594 849.960938 0 1874.996094 0 C 2900.027344 0 3730.359375 830.332031 3730.359375 1855.367188 C 3730.359375 2880.398438 2894.300781 3710.730469 1874.996094 3710.730469 Z M 1874.996094 114.527344 C 912.953125 114.527344 134.160156 893.324219 134.160156 1855.367188 C 134.160156 2817.40625 912.953125 3596.203125 1874.996094 3596.203125 C 2837.035156 3596.203125 3615.832031 2817.40625 3615.832031 1855.367188 C 3615.832031 893.324219 2831.308594 114.527344 1874.996094 114.527344 Z M 1874.996094 114.527344 " fill-opacity="1" fill-rule="nonzero"/></g><path fill="#e3ae0a" d="M 2510.648438 1342.246094 L 2510.648438 2941.257812 L 2880.429688 2941.257812 L 2880.429688 1342.246094 L 2510.648438 1342.246094 " fill-opacity="1" fill-rule="nonzero"/><path fill="#e3ae0a" d="M 870.339844 2941.257812 L 1240.121094 2941.257812 L 1240.121094 1937.175781 L 870.339844 1937.175781 L 870.339844 2941.257812 " fill-opacity="1" fill-rule="nonzero"/><path fill="#e3ae0a" d="M 1963.867188 2941.257812 L 2333.648438 2941.257812 L 2333.648438 1826.953125 L 1963.867188 1826.953125 L 1963.867188 2941.257812 " fill-opacity="1" fill-rule="nonzero"/><path fill="#e3ae0a" d="M 1417.121094 2941.257812 L 1786.902344 2941.257812 L 1786.902344 2391.882812 L 1417.121094 2391.882812 L 1417.121094 2941.257812 " fill-opacity="1" fill-rule="nonzero"/><g clip-path="url(#2e1a2cbdb2)"><path fill="#e3ae0a" d="M 1055.230469 1565.875 C 1061.304688 1565.875 1067.269531 1565.246094 1073.046875 1564.171875 L 1510.457031 2104.066406 C 1505.640625 2115.695312 1502.972656 2128.398438 1502.972656 2141.769531 C 1502.972656 2196.4375 1547.308594 2240.769531 1602.011719 2240.769531 C 1656.679688 2240.769531 1701.011719 2196.4375 1701.011719 2141.769531 C 1701.011719 2125.363281 1696.976562 2109.917969 1689.902344 2096.289062 L 2139.421875 1430.246094 C 2142.496094 1430.542969 2145.609375 1430.726562 2148.757812 1430.726562 C 2203.460938 1430.726562 2247.792969 1386.394531 2247.792969 1331.6875 C 2247.792969 1324.800781 2247.089844 1318.058594 2245.722656 1311.539062 L 2660.019531 959.6875 C 2671.058594 963.945312 2682.984375 966.351562 2695.539062 966.351562 C 2750.207031 966.351562 2794.578125 922.054688 2794.578125 867.351562 C 2794.578125 812.648438 2750.207031 768.3125 2695.539062 768.3125 C 2640.835938 768.3125 2596.5 812.648438 2596.5 867.351562 C 2596.5 874.242188 2597.203125 880.980469 2598.574219 887.5 L 2184.277344 1239.355469 C 2173.238281 1235.09375 2161.3125 1232.6875 2148.757812 1232.6875 C 2094.054688 1232.6875 2049.71875 1277.023438 2049.71875 1331.6875 C 2049.71875 1348.097656 2053.792969 1363.542969 2060.867188 1377.171875 L 1611.308594 2043.210938 C 1608.234375 2042.917969 1605.160156 2042.730469 1602.011719 2042.730469 C 1595.902344 2042.730469 1589.9375 2043.359375 1584.160156 2044.433594 L 1146.785156 1504.542969 C 1151.566406 1492.914062 1154.269531 1480.207031 1154.269531 1466.839844 C 1154.269531 1412.132812 1109.898438 1367.800781 1055.230469 1367.800781 C 1000.527344 1367.800781 956.191406 1412.132812 956.191406 1466.839844 C 956.191406 1521.542969 1000.527344 1565.875 1055.230469 1565.875 " fill-opacity="1" fill-rule="nonzero"/></g></svg>