<svg xmlns="http://www.w3.org/2000/svg" xmlns:xlink="http://www.w3.org/1999/xlink" width="500" zoomAndPan="magnify" viewBox="0 0 375 374.999991" height="500" preserveAspectRatio="xMidYMid meet" version="1.0"><defs><clipPath id="2d7b1435e6"><path d="M 2.269531 143 L 90 143 L 90 231 L 2.269531 231 Z M 2.269531 143 " clip-rule="nonzero"/></clipPath><clipPath id="e270264158"><path d="M 214 143 L 372.769531 143 L 372.769531 354 L 214 354 Z M 214 143 " clip-rule="nonzero"/></clipPath></defs><g clip-path="url(#2d7b1435e6)"><path fill="#545454" d="M 2.269531 187.445312 C 2.269531 163.378906 21.796875 143.921875 45.8125 143.921875 C 69.890625 143.921875 89.355469 163.4375 89.355469 187.445312 C 89.355469 211.511719 69.828125 230.96875 45.8125 230.96875 C 21.734375 230.96875 2.269531 211.453125 2.269531 187.445312 Z M 2.269531 187.445312 " fill-opacity="1" fill-rule="evenodd"/></g><path fill="#545454" d="M 236.574219 102.496094 C 215.730469 90.460938 208.601562 63.878906 220.640625 43.046875 C 232.679688 22.214844 259.273438 15.089844 280.117188 27.121094 C 300.957031 39.15625 308.085938 65.738281 296.046875 86.570312 C 284.007812 107.402344 257.414062 114.527344 236.574219 102.496094 Z M 236.574219 102.496094 " fill-opacity="1" fill-rule="evenodd"/><g clip-path="url(#e270264158)"><path fill="#545454" d="M 322.519531 230.488281 L 292.273438 282.8125 C 293.652344 284.550781 294.910156 286.40625 296.046875 288.382812 C 308.085938 309.214844 300.957031 335.796875 280.117188 347.828125 C 259.273438 359.863281 232.679688 352.738281 220.640625 331.90625 C 208.601562 311.070312 215.730469 284.488281 236.574219 272.457031 C 245.558594 267.308594 255.558594 265.691406 265.082031 267.128906 L 295.328125 214.804688 C 289.277344 207.320312 285.6875 197.863281 285.6875 187.503906 C 285.6875 163.4375 305.210938 143.984375 329.226562 143.984375 C 353.304688 143.984375 372.769531 163.5 372.769531 187.503906 C 372.769531 211.570312 353.246094 231.027344 329.226562 231.027344 C 326.953125 231.027344 324.675781 230.847656 322.519531 230.488281 Z M 322.519531 230.488281 " fill-opacity="1" fill-rule="evenodd"/></g><path fill="#246fb5" d="M 123.375 107.824219 C 106.125 110.515625 88.21875 102.613281 78.933594 86.570312 C 66.894531 65.738281 74.023438 39.15625 94.867188 27.121094 C 115.707031 15.089844 142.300781 22.214844 154.339844 43.046875 C 163.621094 59.089844 161.527344 78.546875 150.566406 92.136719 L 180.8125 144.460938 C 182.96875 144.101562 185.246094 143.921875 187.519531 143.921875 C 211.597656 143.921875 231.0625 163.4375 231.0625 187.445312 C 231.0625 211.511719 211.539062 230.96875 187.519531 230.96875 C 185.246094 230.96875 183.027344 230.789062 180.871094 230.429688 L 150.625 282.8125 C 161.585938 296.402344 163.683594 315.859375 154.398438 331.84375 C 142.359375 352.679688 115.769531 359.800781 94.925781 347.769531 C 74.082031 335.734375 66.957031 309.15625 78.992188 288.320312 C 88.21875 272.277344 106.125 264.375 123.375 267.070312 L 153.621094 214.683594 C 147.632812 207.203125 143.976562 197.742188 143.976562 187.386719 C 143.976562 177.027344 147.570312 167.570312 153.621094 160.085938 L 123.375 107.761719 Z M 123.375 107.824219 " fill-opacity="1" fill-rule="evenodd"/></svg>